<svg version="1.1" id="Layer_1" xmlns="http://www.w3.org/2000/svg" xmlns:xlink="http://www.w3.org/1999/xlink" x="0px" y="0px"
	 width="100%" viewBox="0 0 968 820" enable-background="new 0 0 968 820" xml:space="preserve">
<path fill="#FAFBFF" opacity="1.000000" stroke="none" 
	d="
M560.000000,821.000000 
	C373.333344,821.000000 187.166672,821.000000 1.000000,821.000000 
	C1.000000,547.666687 1.000000,274.333344 1.000000,1.000000 
	C323.666656,1.000000 646.333313,1.000000 969.000000,1.000000 
	C969.000000,274.333344 969.000000,547.666687 969.000000,821.000000 
	C832.833313,821.000000 696.666687,821.000000 560.000000,821.000000 
M244.255524,157.805283 
	C244.111389,158.170944 243.967270,158.536606 243.923462,158.899658 
	C243.923462,158.899658 243.886032,158.806549 243.264145,158.827133 
	C243.116302,159.184723 242.968445,159.542313 242.914032,159.919128 
	C242.914032,159.919128 242.898041,159.825073 242.292755,159.856796 
	C242.135117,160.211014 241.977478,160.565231 241.916046,160.855591 
	C241.916046,160.855591 241.830704,160.777817 241.248795,160.979187 
	C240.762680,161.633652 240.276566,162.288116 239.362961,163.100754 
	C239.103256,163.302063 238.973129,163.567017 238.457031,164.247330 
	C238.243042,164.811142 238.029053,165.374954 237.931473,165.953217 
	C237.931473,165.953217 237.921661,165.836334 237.343170,165.924500 
	C237.176224,166.266998 237.009277,166.609497 236.936325,166.942352 
	C236.936325,166.942352 236.902161,166.854279 236.342575,167.162445 
	C236.161057,167.749634 235.979538,168.336807 235.911621,168.949051 
	C235.911621,168.949051 235.908264,168.832779 235.317139,168.888641 
	C235.160065,169.244141 235.002991,169.599625 234.938278,169.946533 
	C234.938278,169.946533 234.906158,169.859497 234.354828,170.176819 
	C233.868454,171.101974 233.382080,172.027115 232.970886,172.980347 
	C232.970886,172.980347 232.951263,172.902542 232.480438,173.287918 
	C232.276840,173.852097 232.073242,174.416275 231.959045,174.972214 
	C231.959045,174.972214 231.936249,174.885376 231.430511,175.241364 
	C231.235382,175.818375 231.040237,176.395386 230.943466,176.969482 
	C230.943466,176.969482 230.921738,176.873505 230.407089,177.221863 
	C230.223343,177.806503 230.039581,178.391144 229.945908,178.976532 
	C229.945908,178.976532 229.929871,178.887894 229.382217,179.337143 
	C227.299133,188.232300 225.216064,197.127441 223.010742,206.944534 
	C222.994308,295.839935 222.959213,384.735321 222.969696,473.630737 
	C222.974579,515.079285 223.067810,556.527893 222.979340,598.853394 
	C223.363953,602.220642 223.748581,605.587952 224.086823,609.514587 
	C224.153442,609.689453 224.220062,609.864258 224.338364,610.787415 
	C227.187820,617.574463 230.037277,624.361572 232.920563,631.053772 
	C232.920563,631.053772 232.820053,631.047974 232.912537,631.648132 
	C233.261505,632.125916 233.610458,632.603638 233.992981,633.014709 
	C233.992981,633.014709 233.921616,633.036560 234.072052,633.648621 
	C234.702454,634.476257 235.332870,635.303833 236.041443,636.563232 
	C236.175858,636.854919 236.401962,637.024109 236.962921,637.613525 
	C237.287201,637.789368 237.611465,637.965210 237.896973,638.027893 
	C237.896973,638.027893 237.791443,638.084167 237.816406,638.705688 
	C238.200073,639.176392 238.583740,639.647095 239.122650,640.636414 
	C239.642380,641.120911 240.162109,641.605408 240.950516,642.658264 
	C241.568970,643.185547 242.187424,643.712830 242.893936,644.170593 
	C242.893936,644.170593 242.801636,644.106812 242.896637,644.690125 
	C243.229813,644.856018 243.563004,645.021912 243.902863,645.082886 
	C243.902863,645.082886 243.802246,645.113342 243.883621,645.702759 
	C244.219315,645.865173 244.555008,646.027588 244.783371,646.131470 
	C244.783371,646.131470 244.738373,646.245117 244.927322,646.870972 
	C246.587402,648.353882 248.247482,649.836792 250.144592,651.809998 
	C250.729080,652.216064 251.313583,652.622131 252.273239,653.529846 
	C253.148712,654.077942 254.024170,654.626038 254.957367,655.088196 
	C254.957367,655.088196 254.862045,655.047791 255.059189,655.552124 
	C255.367706,655.720154 255.676208,655.888245 255.989502,655.996948 
	C255.989502,655.996948 255.939957,656.030090 256.335724,656.505310 
	C257.208405,657.035583 258.081085,657.565857 258.982880,658.020569 
	C258.982880,658.020569 258.907166,658.049194 259.275818,658.534668 
	C259.837860,658.746033 260.399902,658.957397 260.948456,659.067505 
	C260.948456,659.067505 260.853546,659.105286 261.174896,659.651917 
	C262.098511,660.138000 263.022125,660.624084 263.979919,661.033569 
	C263.979919,661.033569 263.899017,661.055603 264.281372,661.529968 
	C264.844757,661.736267 265.408112,661.942505 265.963013,662.055298 
	C265.963013,662.055298 265.873413,662.083252 266.275696,662.648254 
	C279.250702,669.690063 293.191528,672.761047 307.877716,672.760620 
	C364.931122,672.758911 421.984497,672.768311 479.037903,672.741577 
	C490.008301,672.736450 500.978668,672.587463 512.589050,672.740662 
	C513.269409,672.635498 513.949768,672.530396 514.630127,672.425232 
	C514.188354,671.906189 513.746521,671.387085 512.924988,670.359985 
	C511.957520,669.554260 510.990021,668.748535 509.832214,667.493042 
	C509.633270,667.208618 509.361877,667.042786 508.692291,666.483765 
	C508.162933,666.249939 507.633545,666.016113 507.086700,665.898193 
	C507.086700,665.898193 507.201874,665.875793 507.142456,665.278320 
	C506.798492,665.120056 506.454498,664.961792 506.096924,664.908875 
	C506.096924,664.908875 506.199890,664.883057 506.128448,664.289185 
	C505.788574,664.127991 505.448700,663.966797 505.097473,663.911316 
	C505.097473,663.911316 505.200134,663.883728 505.128876,663.289124 
	C504.789032,663.128052 504.449219,662.966980 504.099152,662.911255 
	C504.099152,662.911255 504.201019,662.882385 504.132294,662.286621 
	C503.791382,662.126160 503.450500,661.965698 503.100250,661.911377 
	C503.100250,661.911377 503.202637,661.881592 503.135406,661.283264 
	C502.794891,661.122498 502.454407,660.961670 502.102264,660.907715 
	C502.102264,660.907715 502.205719,660.878662 502.148590,660.269958 
	C501.806915,660.113281 501.465240,659.956604 501.127289,659.920105 
	C501.127289,659.920105 501.239319,659.876282 501.269562,659.260803 
	C500.849609,658.828430 500.429657,658.396118 499.716797,657.368408 
	C479.243225,634.305786 467.352844,607.297607 462.748993,576.108582 
	C462.423828,564.090759 462.098694,552.072998 461.983490,539.250122 
	C462.632172,534.884583 463.144440,530.493652 463.951477,526.157593 
	C469.527496,496.198425 483.188538,470.416351 504.323853,448.553406 
	C518.369385,434.024292 534.990295,423.132996 553.816040,414.155975 
	C555.657166,413.430664 557.508484,412.730072 559.337830,411.976105 
	C576.001770,405.107941 593.478027,401.916443 612.106812,400.645386 
	C617.082397,400.700195 622.057922,400.754974 627.878784,400.944946 
	C643.923157,401.873749 659.099548,406.371094 673.970947,412.062836 
	C673.970947,412.062836 673.880981,412.074951 674.274353,412.610657 
	C675.497925,413.113617 676.721497,413.616577 677.983948,414.047211 
	C677.983948,414.047211 677.902283,414.056183 678.283813,414.534668 
	C679.198792,414.960541 680.113770,415.386444 681.840637,415.541840 
	C681.893799,406.714874 681.997803,397.887909 681.991272,389.060974 
	C681.961975,349.402893 681.901306,309.744843 681.960266,269.332916 
	C680.609436,262.801178 677.266785,257.826660 670.319885,254.963989 
	C669.897888,254.910141 669.475891,254.856277 668.990784,254.883759 
	C668.990784,254.883759 669.073425,254.945114 668.605591,254.295609 
	C665.302917,253.968384 662.000366,253.356476 658.697571,253.355087 
	C543.913757,253.306931 429.129974,253.309494 314.346191,253.341019 
	C309.394318,253.342377 304.442535,253.686569 299.246918,253.177582 
	C297.138672,252.751190 295.029541,252.328964 292.922272,251.897797 
	C272.073181,247.631821 257.488556,227.867554 259.805511,207.021820 
	C261.947968,187.745605 273.140961,175.169464 294.002289,169.537827 
	C296.655029,169.357239 299.307678,169.020691 301.960510,169.019104 
	C354.791779,168.987473 407.623047,168.993271 460.454315,168.994141 
	C526.951782,168.995239 593.449341,169.045471 659.946350,168.877594 
	C663.682129,168.868179 667.413513,167.070862 671.052979,166.071671 
	C671.052979,166.071671 671.044922,166.171249 671.673645,166.075745 
	C672.175659,165.775543 672.677612,165.475342 673.097534,165.218903 
	C673.097534,165.218903 673.177185,165.266968 673.613647,165.183777 
	C673.613647,165.183777 673.980957,164.933945 674.591187,164.739777 
	C675.729858,163.493958 676.868469,162.248123 678.261536,160.657959 
	C678.261536,160.657959 678.318176,160.233566 678.243591,160.112717 
	C678.243591,160.112717 678.135742,160.205093 678.695984,160.082291 
	C678.852478,159.742111 679.008911,159.401932 679.078003,159.054413 
	C679.078003,159.054413 679.105591,159.137665 679.691040,158.705963 
	C682.571899,152.985794 682.779419,147.359589 679.081177,141.955826 
	C679.081177,141.955826 679.166504,141.935715 679.045898,141.368423 
	C678.747681,141.177261 678.449524,140.986084 678.305847,140.851257 
	C678.305847,140.851257 678.360962,140.696228 678.317932,140.289963 
	C678.317932,140.289963 678.044495,139.986374 677.830017,139.393921 
	C676.892456,138.578537 675.954956,137.763168 674.705750,136.658783 
	C674.705750,136.658783 674.280945,136.644623 674.203491,136.658737 
	C674.203491,136.658737 674.244019,136.726227 674.023560,136.082001 
	C669.474121,134.821442 664.927002,132.470901 660.374817,132.460846 
	C563.975098,132.247711 467.574707,132.251022 371.174561,132.328964 
	C346.208984,132.349136 321.243134,132.720093 296.279663,133.085770 
	C294.375458,133.113678 292.489471,134.388580 289.832153,134.968292 
	C289.576294,134.942398 289.320404,134.916489 288.644348,134.277390 
	C281.056152,136.825226 273.467926,139.373077 265.970703,141.939423 
	C265.970703,141.939423 265.969696,141.846603 265.360565,141.933075 
	C264.870972,142.269516 264.381378,142.605957 263.973419,142.962067 
	C263.973419,142.962067 263.979370,142.878311 263.381561,142.968842 
	C262.893738,143.299789 262.405914,143.630737 261.984955,143.993011 
	C261.984955,143.993011 261.963867,143.922241 261.408447,144.050049 
	C260.945831,144.380356 260.483246,144.710663 259.360077,145.189392 
	C256.978302,147.042587 254.596527,148.895782 251.601898,150.959579 
	C251.363678,151.295746 251.125443,151.631927 250.969696,151.888229 
	C250.969696,151.888229 250.884048,151.811783 250.299850,152.002090 
	C249.786240,152.602463 249.272629,153.202850 248.824905,153.900421 
	C248.824905,153.900421 248.905640,153.815186 248.297623,153.880676 
	C248.138580,154.221161 247.979538,154.561646 247.920410,154.913696 
	C247.920410,154.913696 247.897171,154.815842 247.269318,154.841064 
	C247.119232,155.193329 246.969147,155.545593 246.918350,155.903122 
	C246.918350,155.903122 246.886978,155.808792 246.249176,155.809128 
	C246.107010,156.172211 245.964844,156.535294 245.920074,156.896774 
	C245.920074,156.896774 245.882416,156.806946 245.242554,156.797729 
	C245.099655,157.162064 244.956772,157.526398 244.907791,157.909607 
	C244.907791,157.909607 244.888077,157.815857 244.255524,157.805283 
M653.644592,226.917252 
	C666.679932,222.893936 670.945190,210.605286 662.684143,200.519943 
	C659.018982,196.045471 653.891357,194.975861 648.324829,194.977325 
	C533.693909,195.007462 419.062958,194.998352 304.432007,194.998505 
	C303.099152,194.998505 301.759674,194.934570 300.434540,195.041061 
	C291.724945,195.740982 285.236694,202.227219 284.961395,210.462296 
	C284.679443,218.896515 290.566925,225.746704 300.003143,226.990631 
	C392.143311,227.014450 484.283478,227.052719 576.423645,227.052704 
	C601.914551,227.052704 627.405457,226.938736 653.644592,226.917252 
M668.620300,655.170288 
	C672.203918,653.135010 675.787598,651.099731 679.470642,649.007996 
	C680.702881,650.173157 681.802429,651.176086 682.861633,652.219849 
	C699.830200,668.941772 716.751221,685.712463 733.813477,702.338196 
	C735.885254,704.356934 738.520081,706.139099 741.224609,707.103760 
	C749.674622,710.117676 758.856140,706.504639 763.667114,698.723328 
	C768.326782,691.186707 767.295349,681.845398 760.916321,675.434387 
	C744.107361,658.541199 727.271240,641.674805 710.364502,624.879639 
	C707.976868,622.507690 707.457520,620.825623 709.658630,617.734741 
	C724.462463,596.947144 730.666077,573.780029 729.228088,548.232178 
	C727.666382,520.486389 716.921570,496.824890 697.655212,477.427704 
	C669.353333,448.933624 634.778992,438.695740 595.320923,445.938385 
	C548.359802,454.558228 511.828094,492.475616 505.850067,539.243958 
	C501.536316,572.992249 510.347076,603.086426 532.467957,628.685730 
	C565.834045,667.298584 621.971741,678.671753 668.620300,655.170288 
z"/>
<path fill="#FFA644" opacity="1.000000" stroke="none" 
	d="
M627.033508,400.809784 
	C622.057922,400.754974 617.082397,400.700195 611.452698,400.206665 
	C608.406982,399.832550 606.010864,399.824066 603.624573,399.973572 
	C587.313416,400.995697 571.771973,405.273682 556.675293,411.303192 
	C555.291382,411.855927 554.267395,413.310120 553.076294,414.345703 
	C534.990295,423.132996 518.369385,434.024292 504.323853,448.553406 
	C483.188538,470.416351 469.527496,496.198425 463.951477,526.157593 
	C463.144440,530.493652 462.632172,534.884583 461.502380,539.757812 
	C460.696289,540.796082 460.090973,541.325073 460.087952,541.857544 
	C460.036438,550.936646 459.862549,560.023254 460.188812,569.091248 
	C460.283936,571.735168 461.852753,574.326111 462.746063,576.941345 
	C467.352844,607.297607 479.243225,634.305786 499.887268,657.981812 
	C500.451630,659.022217 500.845490,659.449219 501.239319,659.876282 
	C501.239319,659.876282 501.127289,659.920105 501.196960,660.131470 
	C501.579651,660.521484 501.892700,660.700073 502.205719,660.878662 
	C502.205719,660.878662 502.102264,660.907715 502.182068,661.125854 
	C502.575470,661.523132 502.889038,661.702393 503.202637,661.881592 
	C503.202637,661.881592 503.100250,661.911377 503.180725,662.128662 
	C503.574493,662.524780 503.887756,662.703552 504.201050,662.882324 
	C504.201019,662.882385 504.099152,662.911255 504.180145,663.128906 
	C504.574127,663.525574 504.887115,663.704651 505.200134,663.883728 
	C505.200134,663.883728 505.097473,663.911316 505.178894,664.128906 
	C505.573517,664.525391 505.886688,664.704224 506.199890,664.883057 
	C506.199890,664.883057 506.096924,664.908875 506.178558,665.127075 
	C506.574097,665.522095 506.887970,665.698975 507.201874,665.875793 
	C507.201874,665.875793 507.086700,665.898193 507.200806,666.136475 
	C507.882599,666.581665 508.450287,666.788574 509.018005,666.995483 
	C509.361877,667.042786 509.633270,667.208618 509.750946,668.053223 
	C507.632050,669.404114 505.589783,670.883606 503.557648,670.869812 
	C493.011871,670.798584 482.469971,670.136963 471.924286,670.070190 
	C449.513489,669.928345 427.100281,669.903076 404.689758,670.063965 
	C384.809601,670.206665 364.932312,670.858826 345.052643,670.917175 
	C331.765015,670.956177 318.414795,669.436218 305.205475,670.313477 
	C294.159302,671.047058 284.293732,668.417480 274.332886,664.714111 
	C271.569092,663.686523 268.696228,662.952148 265.873413,662.083252 
	C265.873413,662.083252 265.963013,662.055298 265.823425,661.815918 
	C265.088898,661.402893 264.493958,661.229248 263.899017,661.055603 
	C263.899017,661.055603 263.979919,661.033569 263.937256,660.706360 
	C262.880890,659.954529 261.867218,659.529907 260.853546,659.105286 
	C260.853546,659.105286 260.948456,659.067505 260.817596,658.828003 
	C260.093536,658.408691 259.500366,658.228943 258.907166,658.049194 
	C258.907166,658.049194 258.982880,658.020569 258.940308,657.698730 
	C257.911835,656.927979 256.925873,656.479065 255.939957,656.030090 
	C255.939957,656.030090 255.989502,655.996948 255.874084,655.787231 
	C255.459793,655.400940 255.160919,655.224365 254.862045,655.047791 
	C254.862045,655.047791 254.957367,655.088196 254.919983,654.761353 
	C253.887772,653.965759 252.892929,653.496948 251.898102,653.028137 
	C251.313583,652.622131 250.729080,652.216064 250.038330,651.194458 
	C248.200851,649.134277 246.469604,647.689697 244.738373,646.245117 
	C244.738373,646.245117 244.783371,646.131470 244.762024,645.890503 
	C244.427872,645.470825 244.115067,645.292053 243.802246,645.113342 
	C243.802246,645.113342 243.902863,645.082886 243.822601,644.864990 
	C243.428757,644.466980 243.115189,644.286926 242.801636,644.106812 
	C242.801636,644.106812 242.893936,644.170593 242.874481,643.834229 
	C242.130646,643.028564 241.406250,642.559265 240.681839,642.089905 
	C240.162109,641.605408 239.642380,641.120911 239.030060,640.052490 
	C238.555450,639.007141 238.173447,638.545654 237.791443,638.084167 
	C237.791443,638.084167 237.896973,638.027893 237.804886,637.817993 
	C237.381775,637.428955 237.050766,637.249817 236.719757,637.070679 
	C236.401962,637.024109 236.175858,636.854919 236.008606,635.977417 
	C235.291046,634.606567 234.606323,633.821533 233.921600,633.036560 
	C233.921616,633.036560 233.992981,633.014709 233.959290,632.727539 
	C233.557083,631.976257 233.188568,631.512085 232.820038,631.047974 
	C232.820053,631.047974 232.920563,631.053772 232.941589,630.710754 
	C230.829529,624.546997 228.750961,618.705139 226.514847,612.924255 
	C226.094589,611.837769 225.045563,610.994568 224.286682,610.039062 
	C224.220062,609.864258 224.153442,609.689453 224.413055,609.066162 
	C224.885406,607.146240 225.253632,605.654907 225.124756,604.207886 
	C224.938950,602.121704 224.392151,600.067749 223.999268,597.533936 
	C223.997360,466.712555 223.995560,336.357239 224.280579,205.715332 
	C224.976120,202.332092 225.187027,199.193283 225.836044,196.147842 
	C227.068146,190.366287 228.551117,184.638199 229.929871,178.887894 
	C229.929871,178.887894 229.945908,178.976532 230.189728,178.831055 
	C230.596268,178.081573 230.759018,177.477539 230.921753,176.873505 
	C230.921738,176.873505 230.943466,176.969482 231.184082,176.828674 
	C231.595230,176.087021 231.765732,175.486206 231.936249,174.885376 
	C231.936249,174.885376 231.959045,174.972214 232.196045,174.828247 
	C232.605774,174.090378 232.778519,173.496460 232.951263,172.902542 
	C232.951263,172.902542 232.970886,172.980347 233.297363,172.936768 
	C234.051270,171.881958 234.478714,170.870728 234.906158,169.859497 
	C234.906158,169.859497 234.938278,169.946533 235.152649,169.854950 
	C235.547440,169.453171 235.727844,169.142975 235.908264,168.832779 
	C235.908264,168.832779 235.911621,168.949051 236.153412,168.805115 
	C236.564209,168.058884 236.733185,167.456589 236.902161,166.854279 
	C236.902161,166.854279 236.936325,166.942352 237.150269,166.851562 
	C237.550018,166.452621 237.735840,166.144485 237.921661,165.836334 
	C237.921661,165.836334 237.931473,165.953217 238.165710,165.811737 
	C238.590805,165.078705 238.781677,164.487167 238.972565,163.895615 
	C238.973129,163.567017 239.103256,163.302063 239.932739,163.005127 
	C240.945251,162.198929 241.387985,161.488373 241.830704,160.777817 
	C241.830704,160.777817 241.916046,160.855591 242.134247,160.804291 
	C242.534317,160.443695 242.716171,160.134384 242.898041,159.825073 
	C242.898041,159.825073 242.914032,159.919128 243.135529,159.831802 
	C243.533356,159.431824 243.709686,159.119186 243.886017,158.806549 
	C243.886032,158.806549 243.923462,158.899658 244.138031,158.820282 
	C244.531097,158.432556 244.709579,158.124207 244.888077,157.815857 
	C244.888077,157.815857 244.907791,157.909607 245.130005,157.825928 
	C245.528946,157.430496 245.705688,157.118713 245.882416,156.806946 
	C245.882416,156.806946 245.920074,156.896774 246.137268,156.817932 
	C246.531967,156.429001 246.709473,156.118896 246.886978,155.808792 
	C246.886978,155.808792 246.918350,155.903122 247.135056,155.821930 
	C247.533554,155.432434 247.715363,155.124130 247.897171,154.815842 
	C247.897171,154.815842 247.920410,154.913696 248.138336,154.829407 
	C248.539368,154.435135 248.722504,154.125153 248.905640,153.815186 
	C248.905640,153.815186 248.824905,153.900421 249.151001,153.884384 
	C249.946091,153.182831 250.415070,152.497314 250.884064,151.811798 
	C250.884048,151.811783 250.969696,151.888229 251.209076,151.802704 
	C251.703888,151.394440 251.959335,151.071716 252.214783,150.748993 
	C254.596527,148.895782 256.978302,147.042587 259.860077,145.349136 
	C260.894684,144.980011 261.429260,144.451126 261.963867,143.922241 
	C261.963867,143.922241 261.984955,143.993011 262.268372,143.959473 
	C263.027679,143.576736 263.503540,143.227524 263.979370,142.878311 
	C263.979370,142.878311 263.973419,142.962067 264.255737,142.942444 
	C265.015289,142.564072 265.492493,142.205338 265.969696,141.846619 
	C265.969696,141.846603 265.970703,141.939423 266.330231,141.957214 
	C274.148010,139.613541 281.606232,137.252060 289.064484,134.890594 
	C289.320404,134.916489 289.576294,134.942398 290.508057,134.934860 
	C296.075165,134.926544 300.966431,134.971130 305.857666,134.973312 
	C324.363953,134.981522 342.870239,134.975647 361.376526,134.975647 
	C458.360596,134.975677 555.344666,134.959747 652.328735,135.008316 
	C659.660645,135.011993 667.131958,133.725876 674.244019,136.726227 
	C674.244019,136.726227 674.203491,136.658737 674.203857,136.869690 
	C674.475342,137.036346 674.746399,136.992065 675.017456,136.947784 
	C675.954956,137.763168 676.892456,138.578537 677.759766,139.797485 
	C677.913330,140.366089 678.137146,140.531158 678.360962,140.696228 
	C678.360962,140.696228 678.305847,140.851257 678.287720,141.095490 
	C678.568604,141.538406 678.867554,141.737061 679.166504,141.935730 
	C679.166504,141.935715 679.081177,141.955826 679.056030,142.348877 
	C679.055725,148.207169 679.080688,153.672409 679.105591,159.137665 
	C679.105591,159.137665 679.078003,159.054413 678.858521,159.152008 
	C678.471252,159.568100 678.303528,159.886597 678.135742,160.205093 
	C678.135742,160.205093 678.243591,160.112717 678.070190,160.155029 
	C677.780151,160.265579 677.663452,160.333801 677.546753,160.402039 
	C677.700134,160.602142 677.853577,160.802231 678.007080,161.002289 
	C676.868469,162.248123 675.729858,163.493958 674.173584,164.676941 
	C673.563049,164.831726 673.370117,165.049347 673.177185,165.266968 
	C673.177185,165.266968 673.097534,165.218903 672.808167,165.156769 
	C672.027527,165.453506 671.536194,165.812378 671.044922,166.171249 
	C671.044922,166.171249 671.052979,166.071671 670.665161,166.055801 
	C666.989563,166.360092 663.702026,166.956436 660.414001,166.959473 
	C599.947693,167.015244 539.481323,166.999863 479.014954,166.999863 
	C420.547485,166.999878 362.079865,166.954559 303.612823,167.113770 
	C300.095734,167.123352 296.583130,168.765808 293.068420,169.648468 
	C273.140961,175.169464 261.947968,187.745605 259.805511,207.021820 
	C257.488556,227.867554 272.073181,247.631821 292.922272,251.897797 
	C295.029541,252.328964 297.138672,252.751190 299.739136,253.784485 
	C302.028381,254.590286 303.825073,254.958115 305.622559,254.962143 
	C325.119873,255.005920 344.617340,254.996948 364.114746,254.994080 
	C465.767639,254.979080 567.420532,254.961685 669.073425,254.945114 
	C669.073425,254.945114 668.990784,254.883759 669.100098,255.102112 
	C669.777832,255.281937 670.346313,255.243393 670.914795,255.204865 
	C677.266785,257.826660 680.609436,262.801178 681.634277,270.013733 
	C681.204285,272.678528 681.010925,274.662476 681.009521,276.646515 
	C680.977661,322.417511 680.966736,368.188477 680.571777,413.972687 
	C679.428589,414.009338 678.665405,414.032745 677.902283,414.056183 
	C677.902283,414.056183 677.983948,414.047211 677.930542,413.705719 
	C676.545105,412.934448 675.213074,412.504700 673.880981,412.074951 
	C673.880981,412.074951 673.970947,412.062836 673.846924,411.770630 
	C672.947327,410.891541 672.251648,410.120117 671.384521,409.745270 
	C657.694763,403.827454 643.282593,400.798737 628.523926,399.248260 
	C628.086609,399.202301 627.532959,400.264343 627.033508,400.809784 
z"/>
<path fill="#FCCF9E" opacity="1.000000" stroke="none" 
	d="
M668.290283,655.345398 
	C621.971741,678.671753 565.834045,667.298584 532.467957,628.685730 
	C510.347076,603.086426 501.536316,572.992249 505.850067,539.243958 
	C511.828094,492.475616 548.359802,454.558228 595.320923,445.938385 
	C634.778992,438.695740 669.353333,448.933624 697.655212,477.427704 
	C716.921570,496.824890 727.666382,520.486389 729.228088,548.232178 
	C730.666077,573.780029 724.462463,596.947144 709.658630,617.734741 
	C707.457520,620.825623 707.976868,622.507690 710.364502,624.879639 
	C727.271240,641.674805 744.107361,658.541199 760.916321,675.434387 
	C767.295349,681.845398 768.326782,691.186707 763.667114,698.723328 
	C758.856140,706.504639 749.674622,710.117676 741.224609,707.103760 
	C738.520081,706.139099 735.885254,704.356934 733.813477,702.338196 
	C716.751221,685.712463 699.830200,668.941772 682.861633,652.219849 
	C681.802429,651.176086 680.702881,650.173157 679.470642,649.007996 
	C675.787598,651.099731 672.203918,653.135010 668.290283,655.345398 
z"/>
<path fill="#FCCF9E" opacity="1.000000" stroke="none" 
	d="
M299.085144,226.895447 
	C290.566925,225.746704 284.679443,218.896515 284.961395,210.462296 
	C285.236694,202.227219 291.724945,195.740982 300.434540,195.041061 
	C301.759674,194.934570 303.099152,194.998505 304.432007,194.998505 
	C419.062958,194.998352 533.693909,195.007462 648.324829,194.977325 
	C653.891357,194.975861 659.018982,196.045471 662.684143,200.519943 
	C670.945190,210.605286 666.679932,222.893936 652.974854,226.622864 
	C650.988770,226.220505 649.672302,226.018173 648.355896,226.018005 
	C533.506714,226.002350 418.657501,225.998718 303.808289,226.038254 
	C302.233826,226.038788 300.659515,226.597336 299.085144,226.895447 
z"/>
<path fill="#FF9B2C" opacity="1.000000" stroke="none" 
	d="
M674.133789,136.404114 
	C667.131958,133.725876 659.660645,135.011993 652.328735,135.008316 
	C555.344666,134.959747 458.360596,134.975677 361.376526,134.975647 
	C342.870239,134.975647 324.363953,134.981522 305.857666,134.973312 
	C300.966431,134.971130 296.075165,134.926544 290.889465,134.992630 
	C292.489471,134.388580 294.375458,133.113678 296.279663,133.085770 
	C321.243134,132.720093 346.208984,132.349136 371.174561,132.328964 
	C467.574707,132.251022 563.975098,132.247711 660.374817,132.460846 
	C664.927002,132.470901 669.474121,134.821442 674.133789,136.404114 
z"/>
<path fill="#FF9F33" opacity="1.000000" stroke="none" 
	d="
M293.535339,169.593140 
	C296.583130,168.765808 300.095734,167.123352 303.612823,167.113770 
	C362.079865,166.954559 420.547485,166.999878 479.014954,166.999863 
	C539.481323,166.999863 599.947693,167.015244 660.414001,166.959473 
	C663.702026,166.956436 666.989563,166.360092 670.712097,166.072815 
	C667.413513,167.070862 663.682129,168.868179 659.946350,168.877594 
	C593.449341,169.045471 526.951782,168.995239 460.454315,168.994141 
	C407.623047,168.993271 354.791779,168.987473 301.960510,169.019104 
	C299.307678,169.020691 296.655029,169.357239 293.535339,169.593140 
z"/>
<path fill="#FF941A" opacity="1.000000" stroke="none" 
	d="
M668.839478,254.620361 
	C567.420532,254.961685 465.767639,254.979080 364.114746,254.994080 
	C344.617340,254.996948 325.119873,255.005920 305.622559,254.962143 
	C303.825073,254.958115 302.028381,254.590286 299.861023,254.131226 
	C304.442535,253.686569 309.394318,253.342377 314.346191,253.341019 
	C429.129974,253.309494 543.913757,253.306931 658.697571,253.355087 
	C662.000366,253.356476 665.302917,253.968384 668.839478,254.620361 
z"/>
<path fill="#FF9B2C" opacity="1.000000" stroke="none" 
	d="
M266.074554,662.365723 
	C268.696228,662.952148 271.569092,663.686523 274.332886,664.714111 
	C284.293732,668.417480 294.159302,671.047058 305.205475,670.313477 
	C318.414795,669.436218 331.765015,670.956177 345.052643,670.917175 
	C364.932312,670.858826 384.809601,670.206665 404.689758,670.063965 
	C427.100281,669.903076 449.513489,669.928345 471.924286,670.070190 
	C482.469971,670.136963 493.011871,670.798584 503.557648,670.869812 
	C505.589783,670.883606 507.632050,669.404114 509.846100,668.278137 
	C510.990021,668.748535 511.957520,669.554260 512.866821,670.741028 
	C512.522095,671.583008 512.235535,672.043945 511.949036,672.504883 
	C500.978668,672.587463 490.008301,672.736450 479.037903,672.741577 
	C421.984497,672.768311 364.931122,672.758911 307.877716,672.760620 
	C293.191528,672.761047 279.250702,669.690063 266.074554,662.365723 
z"/>
<path fill="#FF8906" opacity="1.000000" stroke="none" 
	d="
M223.993759,206.001907 
	C223.995560,336.357239 223.997360,466.712555 223.779495,597.534973 
	C223.559830,598.002075 223.120987,597.976440 223.120987,597.976440 
	C223.067810,556.527893 222.974579,515.079285 222.969696,473.630737 
	C222.959213,384.735321 222.994308,295.839935 223.286957,206.473862 
	C223.563171,206.003189 223.993759,206.001907 223.993759,206.001907 
z"/>
<path fill="#FDC07D" opacity="1.000000" stroke="none" 
	d="
M299.544128,226.943039 
	C300.659515,226.597336 302.233826,226.038788 303.808289,226.038254 
	C418.657501,225.998718 533.506714,226.002350 648.355896,226.018005 
	C649.672302,226.018173 650.988770,226.220505 652.600769,226.602768 
	C627.405457,226.938736 601.914551,227.052704 576.423645,227.052704 
	C484.283478,227.052719 392.143311,227.014450 299.544128,226.943039 
z"/>
<path fill="#FF8A0E" opacity="1.000000" stroke="none" 
	d="
M680.951904,413.959473 
	C680.966736,368.188477 680.977661,322.417511 681.009521,276.646515 
	C681.010925,274.662476 681.204285,272.678528 681.580078,270.390656 
	C681.901306,309.744843 681.961975,349.402893 681.991272,389.060974 
	C681.997803,397.887909 681.893799,406.714874 681.428833,415.368408 
	C680.995300,414.783142 680.973572,414.371307 680.951904,413.959473 
z"/>
<path fill="#FF9B2C" opacity="1.000000" stroke="none" 
	d="
M553.446167,414.250854 
	C554.267395,413.310120 555.291382,411.855927 556.675293,411.303192 
	C571.771973,405.273682 587.313416,400.995697 603.624573,399.973572 
	C606.010864,399.824066 608.406982,399.832550 611.069519,400.117310 
	C593.478027,401.916443 576.001770,405.107941 559.337830,411.976105 
	C557.508484,412.730072 555.657166,413.430664 553.446167,414.250854 
z"/>
<path fill="#FE9828" opacity="1.000000" stroke="none" 
	d="
M627.456177,400.877380 
	C627.532959,400.264343 628.086609,399.202301 628.523926,399.248260 
	C643.282593,400.798737 657.694763,403.827454 671.384521,409.745270 
	C672.251648,410.120117 672.947327,410.891541 673.843140,411.815857 
	C659.099548,406.371094 643.923157,401.873749 627.456177,400.877380 
z"/>
<path fill="#FF941A" opacity="1.000000" stroke="none" 
	d="
M462.747528,576.524963 
	C461.852753,574.326111 460.283936,571.735168 460.188812,569.091248 
	C459.862549,560.023254 460.036438,550.936646 460.087952,541.857544 
	C460.090973,541.325073 460.696289,540.796082 461.397430,540.160278 
	C462.098694,552.072998 462.423828,564.090759 462.747528,576.524963 
z"/>
<path fill="#FE9828" opacity="1.000000" stroke="none" 
	d="
M224.280579,205.715332 
	C223.993759,206.001907 223.563171,206.003189 223.348083,206.012894 
	C225.216064,197.127441 227.299133,188.232300 229.656036,179.112518 
	C228.551117,184.638199 227.068146,190.366287 225.836044,196.147842 
	C225.187027,199.193283 224.976120,202.332092 224.280579,205.715332 
z"/>
<path fill="#FF9B2C" opacity="1.000000" stroke="none" 
	d="
M224.312531,610.413208 
	C225.045563,610.994568 226.094589,611.837769 226.514847,612.924255 
	C228.750961,618.705139 230.829529,624.546997 232.924683,630.758179 
	C230.037277,624.361572 227.187820,617.574463 224.312531,610.413208 
z"/>
<path fill="#FE9828" opacity="1.000000" stroke="none" 
	d="
M288.854431,134.583984 
	C281.606232,137.252060 274.148010,139.613541 266.284729,141.947968 
	C273.467926,139.373077 281.056152,136.825226 288.854431,134.583984 
z"/>
<path fill="#FF9F33" opacity="1.000000" stroke="none" 
	d="
M679.398315,158.921814 
	C679.080688,153.672409 679.055725,148.207169 679.065063,142.305969 
	C682.779419,147.359589 682.571899,152.985794 679.398315,158.921814 
z"/>
<path fill="#FF9B2C" opacity="1.000000" stroke="none" 
	d="
M223.050171,598.414917 
	C223.120987,597.976440 223.559830,598.002075 223.779602,598.001038 
	C224.392151,600.067749 224.938950,602.121704 225.124756,604.207886 
	C225.253632,605.654907 224.885406,607.146240 224.436234,608.786499 
	C223.748581,605.587952 223.363953,602.220642 223.050171,598.414917 
z"/>
<path fill="#FF9B2C" opacity="1.000000" stroke="none" 
	d="
M244.832855,646.558044 
	C246.469604,647.689697 248.200851,649.134277 249.919815,650.949280 
	C248.247482,649.836792 246.587402,648.353882 244.832855,646.558044 
z"/>
<path fill="#FEA643" opacity="1.000000" stroke="none" 
	d="
M512.269043,672.622803 
	C512.235535,672.043945 512.522095,671.583008 513.056702,670.995056 
	C513.746521,671.387085 514.188354,671.906189 514.630127,672.425232 
	C513.949768,672.530396 513.269409,672.635498 512.269043,672.622803 
z"/>
<path fill="#FE9828" opacity="1.000000" stroke="none" 
	d="
M674.077637,412.342804 
	C675.213074,412.504700 676.545105,412.934448 677.911133,413.741882 
	C676.721497,413.616577 675.497925,413.113617 674.077637,412.342804 
z"/>
<path fill="#FF9B2C" opacity="1.000000" stroke="none" 
	d="
M233.996826,633.342590 
	C234.606323,633.821533 235.291046,634.606567 235.969513,635.761475 
	C235.332870,635.303833 234.702454,634.476257 233.996826,633.342590 
z"/>
<path fill="#FF9B2C" opacity="1.000000" stroke="none" 
	d="
M252.085663,653.278992 
	C252.892929,653.496948 253.887772,653.965759 254.891113,654.804321 
	C254.024170,654.626038 253.148712,654.077942 252.085663,653.278992 
z"/>
<path fill="#FF9B2C" opacity="1.000000" stroke="none" 
	d="
M261.014221,659.378601 
	C261.867218,659.529907 262.880890,659.954529 263.920166,660.744629 
	C263.022125,660.624084 262.098511,660.138000 261.014221,659.378601 
z"/>
<path fill="#FE9828" opacity="1.000000" stroke="none" 
	d="
M234.630493,170.018158 
	C234.478714,170.870728 234.051270,171.881958 233.259766,172.922729 
	C233.382080,172.027115 233.868454,171.101974 234.630493,170.018158 
z"/>
<path fill="#FF9B2C" opacity="1.000000" stroke="none" 
	d="
M256.137848,656.267700 
	C256.925873,656.479065 257.911835,656.927979 258.925781,657.736511 
	C258.081085,657.565857 257.208405,657.035583 256.137848,656.267700 
z"/>
<path fill="#FE9828" opacity="1.000000" stroke="none" 
	d="
M680.571777,413.972687 
	C680.973572,414.371307 680.995300,414.783142 681.022827,415.503662 
	C680.113770,415.386444 679.198792,414.960541 678.093018,414.295410 
	C678.665405,414.032745 679.428589,414.009338 680.571777,413.972687 
z"/>
<path fill="#FF9B2C" opacity="1.000000" stroke="none" 
	d="
M240.816177,642.374084 
	C241.406250,642.559265 242.130646,643.028564 242.830460,643.869019 
	C242.187424,643.712830 241.568970,643.185547 240.816177,642.374084 
z"/>
<path fill="#FE9828" opacity="1.000000" stroke="none" 
	d="
M250.591949,151.906952 
	C250.415070,152.497314 249.946091,153.182831 249.118073,153.835785 
	C249.272629,153.202850 249.786240,152.602463 250.591949,151.906952 
z"/>
<path fill="#FE9828" opacity="1.000000" stroke="none" 
	d="
M241.539749,160.878510 
	C241.387985,161.488373 240.945251,162.198929 240.146484,162.926025 
	C240.276566,162.288116 240.762680,161.633652 241.539749,160.878510 
z"/>
<path fill="#FE9828" opacity="1.000000" stroke="none" 
	d="
M261.686157,143.986145 
	C261.429260,144.451126 260.894684,144.980011 260.190369,145.274918 
	C260.483246,144.710663 260.945831,144.380356 261.686157,143.986145 
z"/>
<path fill="#FF9B2C" opacity="1.000000" stroke="none" 
	d="
M259.091492,658.291931 
	C259.500366,658.228943 260.093536,658.408691 260.824341,658.878601 
	C260.399902,658.957397 259.837860,658.746033 259.091492,658.291931 
z"/>
<path fill="#FF9B2C" opacity="1.000000" stroke="none" 
	d="
M501.254456,659.568542 
	C500.845490,659.449219 500.451630,659.022217 500.033752,658.279419 
	C500.429657,658.396118 500.849609,658.828430 501.254456,659.568542 
z"/>
<path fill="#FF9B2C" opacity="1.000000" stroke="none" 
	d="
M264.090210,661.292786 
	C264.493958,661.229248 265.088898,661.402893 265.827667,661.862671 
	C265.408112,661.942505 264.844757,661.736267 264.090210,661.292786 
z"/>
<path fill="#FF9B2C" opacity="1.000000" stroke="none" 
	d="
M508.855164,666.739624 
	C508.450287,666.788574 507.882599,666.581665 507.209534,666.078491 
	C507.633545,666.016113 508.162933,666.249939 508.855164,666.739624 
z"/>
<path fill="#FF9B2C" opacity="1.000000" stroke="none" 
	d="
M237.803925,638.394897 
	C238.173447,638.545654 238.555450,639.007141 238.952423,639.793213 
	C238.583740,639.647095 238.200073,639.176392 237.803925,638.394897 
z"/>
<path fill="#FE9828" opacity="1.000000" stroke="none" 
	d="
M263.680481,142.923584 
	C263.503540,143.227524 263.027679,143.576736 262.234924,143.943817 
	C262.405914,143.630737 262.893738,143.299789 263.680481,142.923584 
z"/>
<path fill="#FF9B2C" opacity="1.000000" stroke="none" 
	d="
M232.866287,631.348022 
	C233.188568,631.512085 233.557083,631.976257 233.942505,632.760864 
	C233.610458,632.603638 233.261505,632.125916 232.866287,631.348022 
z"/>
<path fill="#FF9F33" opacity="1.000000" stroke="none" 
	d="
M671.359253,166.123505 
	C671.536194,165.812378 672.027527,165.453506 672.849243,165.134888 
	C672.677612,165.475342 672.175659,165.775543 671.359253,166.123505 
z"/>
<path fill="#FF941A" opacity="1.000000" stroke="none" 
	d="
M670.617310,255.084412 
	C670.346313,255.243393 669.777832,255.281937 669.131592,255.061462 
	C669.475891,254.856277 669.897888,254.910141 670.617310,255.084412 
z"/>
<path fill="#FE9828" opacity="1.000000" stroke="none" 
	d="
M265.665131,141.889847 
	C265.492493,142.205338 265.015289,142.564072 264.214905,142.932587 
	C264.381378,142.605957 264.870972,142.269516 265.665131,141.889847 
z"/>
<path fill="#FE9828" opacity="1.000000" stroke="none" 
	d="
M230.664429,177.047684 
	C230.759018,177.477539 230.596268,178.081573 230.144684,178.830688 
	C230.039581,178.391144 230.223343,177.806503 230.664429,177.047684 
z"/>
<path fill="#FE9828" opacity="1.000000" stroke="none" 
	d="
M231.683380,175.063370 
	C231.765732,175.486206 231.595230,176.087021 231.134918,176.830109 
	C231.040237,176.395386 231.235382,175.818375 231.683380,175.063370 
z"/>
<path fill="#FE9828" opacity="1.000000" stroke="none" 
	d="
M232.715851,173.095230 
	C232.778519,173.496460 232.605774,174.090378 232.151337,174.832367 
	C232.073242,174.416275 232.276840,173.852097 232.715851,173.095230 
z"/>
<path fill="#FE9828" opacity="1.000000" stroke="none" 
	d="
M236.622375,167.008362 
	C236.733185,167.456589 236.564209,168.058884 236.096619,168.792587 
	C235.979538,168.336807 236.161057,167.749634 236.622375,167.008362 
z"/>
<path fill="#FE9828" opacity="1.000000" stroke="none" 
	d="
M238.714798,164.071472 
	C238.781677,164.487167 238.590805,165.078705 238.107498,165.804504 
	C238.029053,165.374954 238.243042,164.811142 238.714798,164.071472 
z"/>
<path fill="#FF9B2C" opacity="1.000000" stroke="none" 
	d="
M505.164490,663.586426 
	C504.887115,663.704651 504.574127,663.525574 504.185272,663.076172 
	C504.449219,662.966980 504.789032,663.128052 505.164490,663.586426 
z"/>
<path fill="#FF9B2C" opacity="1.000000" stroke="none" 
	d="
M504.166687,662.584473 
	C503.887756,662.703552 503.574493,662.524780 503.185425,662.075562 
	C503.450500,661.965698 503.791382,662.126160 504.166687,662.584473 
z"/>
<path fill="#FF9B2C" opacity="1.000000" stroke="none" 
	d="
M503.169006,661.582397 
	C502.889038,661.702393 502.575470,661.523132 502.187897,661.072388 
	C502.454407,660.961670 502.794891,661.122498 503.169006,661.582397 
z"/>
<path fill="#FE9828" opacity="1.000000" stroke="none" 
	d="
M251.908340,150.854279 
	C251.959335,151.071716 251.703888,151.394440 251.167831,151.842636 
	C251.125443,151.631927 251.363678,151.295746 251.908340,150.854279 
z"/>
<path fill="#FF9B2C" opacity="1.000000" stroke="none" 
	d="
M506.164185,664.586121 
	C505.886688,664.704224 505.573517,664.525391 505.184570,664.076050 
	C505.448700,663.966797 505.788574,664.127991 506.164185,664.586121 
z"/>
<path fill="#FF9B2C" opacity="1.000000" stroke="none" 
	d="
M502.177155,660.574341 
	C501.892700,660.700073 501.579651,660.521484 501.195068,660.071411 
	C501.465240,659.956604 501.806915,660.113281 502.177155,660.574341 
z"/>
<path fill="#FE9828" opacity="1.000000" stroke="none" 
	d="
M235.612701,168.860718 
	C235.727844,169.142975 235.547440,169.453171 235.106476,169.859253 
	C235.002991,169.599625 235.160065,169.244141 235.612701,168.860718 
z"/>
<path fill="#FF9B2C" opacity="1.000000" stroke="none" 
	d="
M507.172180,665.577026 
	C506.887970,665.698975 506.574097,665.522095 506.185364,665.074463 
	C506.454498,664.961792 506.798492,665.120056 507.172180,665.577026 
z"/>
<path fill="#FE9828" opacity="1.000000" stroke="none" 
	d="
M237.632416,165.880417 
	C237.735840,166.144485 237.550018,166.452621 237.103271,166.856384 
	C237.009277,166.609497 237.176224,166.266998 237.632416,165.880417 
z"/>
<path fill="#FF9B2C" opacity="1.000000" stroke="none" 
	d="
M254.960617,655.299927 
	C255.160919,655.224365 255.459793,655.400940 255.871674,655.816895 
	C255.676208,655.888245 255.367706,655.720154 254.960617,655.299927 
z"/>
<path fill="#FF9F33" opacity="1.000000" stroke="none" 
	d="
M673.395386,165.225372 
	C673.370117,165.049347 673.563049,164.831726 673.868469,164.774017 
	C673.980957,164.933945 673.613647,165.183777 673.395386,165.225372 
z"/>
<path fill="#FE9828" opacity="1.000000" stroke="none" 
	d="
M243.575073,158.816833 
	C243.709686,159.119186 243.533356,159.431824 243.088806,159.822189 
	C242.968445,159.542313 243.116302,159.184723 243.575073,158.816833 
z"/>
<path fill="#FF9F33" opacity="1.000000" stroke="none" 
	d="
M678.134277,160.830139 
	C677.853577,160.802231 677.700134,160.602142 677.546753,160.402039 
	C677.663452,160.333801 677.780151,160.265579 678.107544,160.215454 
	C678.318176,160.233566 678.261536,160.657959 678.134277,160.830139 
z"/>
<path fill="#FF9B2C" opacity="1.000000" stroke="none" 
	d="
M243.842941,645.408081 
	C244.115067,645.292053 244.427872,645.470825 244.815674,645.919800 
	C244.555008,646.027588 244.219315,645.865173 243.842941,645.408081 
z"/>
<path fill="#FF9B2C" opacity="1.000000" stroke="none" 
	d="
M242.849136,644.398438 
	C243.115189,644.286926 243.428757,644.466980 243.819260,644.917480 
	C243.563004,645.021912 243.229813,644.856018 242.849136,644.398438 
z"/>
<path fill="#FE9828" opacity="1.000000" stroke="none" 
	d="
M242.595398,159.840942 
	C242.716171,160.134384 242.534317,160.443695 242.086151,160.836227 
	C241.977478,160.565231 242.135117,160.211014 242.595398,159.840942 
z"/>
<path fill="#FF9F33" opacity="1.000000" stroke="none" 
	d="
M679.106201,141.652069 
	C678.867554,141.737061 678.568604,141.538406 678.210449,141.067322 
	C678.449524,140.986084 678.747681,141.177261 679.106201,141.652069 
z"/>
<path fill="#FF9B2C" opacity="1.000000" stroke="none" 
	d="
M236.841339,637.342102 
	C237.050766,637.249817 237.381775,637.428955 237.824280,637.874573 
	C237.611465,637.965210 237.287201,637.789368 236.841339,637.342102 
z"/>
<path fill="#FF9F33" opacity="1.000000" stroke="none" 
	d="
M678.339478,140.493103 
	C678.137146,140.531158 677.913330,140.366089 677.867004,140.093704 
	C678.044495,139.986374 678.317932,140.289963 678.339478,140.493103 
z"/>
<path fill="#FE9828" opacity="1.000000" stroke="none" 
	d="
M248.601624,153.847931 
	C248.722504,154.125153 248.539368,154.435135 248.088379,154.823624 
	C247.979538,154.561646 248.138580,154.221161 248.601624,153.847931 
z"/>
<path fill="#FE9828" opacity="1.000000" stroke="none" 
	d="
M247.583252,154.828461 
	C247.715363,155.124130 247.533554,155.432434 247.085419,155.819305 
	C246.969147,155.545593 247.119232,155.193329 247.583252,154.828461 
z"/>
<path fill="#FE9828" opacity="1.000000" stroke="none" 
	d="
M246.568085,155.808960 
	C246.709473,156.118896 246.531967,156.429001 246.088562,156.818741 
	C245.964844,156.535294 246.107010,156.172211 246.568085,155.808960 
z"/>
<path fill="#FF9B2C" opacity="1.000000" stroke="none" 
	d="
M674.861572,136.803284 
	C674.746399,136.992065 674.475342,137.036346 674.242615,136.862625 
	C674.280945,136.644623 674.705750,136.658783 674.861572,136.803284 
z"/>
<path fill="#FF9F33" opacity="1.000000" stroke="none" 
	d="
M678.415894,160.143692 
	C678.303528,159.886597 678.471252,159.568100 678.902222,159.155670 
	C679.008911,159.401932 678.852478,159.742111 678.415894,160.143692 
z"/>
<path fill="#FE9828" opacity="1.000000" stroke="none" 
	d="
M245.562485,156.802338 
	C245.705688,157.118713 245.528946,157.430496 245.083038,157.816498 
	C244.956772,157.526398 245.099655,157.162064 245.562485,156.802338 
z"/>
<path fill="#FE9828" opacity="1.000000" stroke="none" 
	d="
M244.571808,157.810577 
	C244.709579,158.124207 244.531097,158.432556 244.087891,158.821579 
	C243.967270,158.536606 244.111389,158.170944 244.571808,157.810577 
z"/>
</svg>