<svg version="1.1" id="Layer_1" xmlns="http://www.w3.org/2000/svg" xmlns:xlink="http://www.w3.org/1999/xlink" x="0px" y="0px"
	 width="100%" viewBox="0 0 973 839" enable-background="new 0 0 973 839" xml:space="preserve">
<path fill="#FBFCFF" opacity="1.000000" stroke="none" 
	d="
M467.000000,840.000000 
	C311.333344,840.000000 156.166672,840.000000 1.000000,840.000000 
	C1.000000,560.333313 1.000000,280.666656 1.000000,1.000000 
	C325.333344,1.000000 649.666687,1.000000 974.000000,1.000000 
	C974.000000,280.666656 974.000000,560.333313 974.000000,840.000000 
	C805.166687,840.000000 636.333313,840.000000 467.000000,840.000000 
M595.026062,579.584656 
	C595.334717,579.771667 595.643433,579.958618 595.942200,580.059204 
	C595.942200,580.059204 595.861816,580.092590 596.162781,580.655457 
	C597.112000,581.083862 598.061279,581.512207 599.516907,582.482300 
	C604.298889,584.733521 608.588501,582.214172 613.554077,580.946167 
	C613.758545,580.652161 613.963013,580.358154 614.065308,580.086792 
	C614.065308,580.086792 614.114868,580.178955 614.675049,579.952881 
	C615.183044,579.346130 615.691101,578.739319 616.103271,578.077576 
	C616.103271,578.077576 616.080017,578.185547 616.600525,577.989929 
	C616.773682,577.672424 616.946838,577.354919 617.038818,577.037903 
	C617.038818,577.037903 617.070923,577.112488 617.680725,576.695374 
	C620.844849,570.967346 621.461731,565.329285 617.052979,559.960754 
	C617.052979,559.960754 617.141602,559.916199 616.920898,559.310608 
	C615.975769,558.451355 615.030579,557.592163 613.924683,556.307617 
	C613.715332,556.050110 613.445435,555.936462 612.645691,555.471558 
	C611.772705,555.259216 610.899719,555.046875 610.039612,554.939453 
	C610.039612,554.939453 610.139709,554.905396 609.750305,554.260498 
	C604.678406,552.822998 599.924011,553.055054 595.938538,556.935547 
	C595.938538,556.935547 595.945374,556.848328 595.425415,557.037903 
	C595.225647,557.336426 595.025879,557.634949 594.945435,557.942078 
	C594.945435,557.942078 594.929932,557.823486 594.406555,558.015442 
	C594.214172,558.322815 594.021729,558.630127 593.945618,558.947632 
	C593.945618,558.947632 593.933167,558.831604 593.420898,559.032654 
	C593.247070,559.344849 593.073242,559.657043 592.977356,559.973511 
	C592.977356,559.973511 592.943054,559.903381 592.355835,560.340881 
	C589.597839,565.189514 588.762695,570.093750 591.951355,575.035767 
	C591.951355,575.035767 591.870056,575.030518 591.976807,575.623779 
	C592.309265,576.112549 592.641724,576.601257 593.035828,577.547302 
	C593.181335,577.852783 593.421997,578.026489 594.004272,578.579041 
	C594.318420,578.774475 594.632629,578.969849 594.946045,579.045898 
	C594.946045,579.045898 594.828735,579.067505 595.026062,579.584656 
M581.039001,548.036560 
	C581.039001,548.036560 581.047241,548.158508 581.576233,547.972351 
	C581.767639,547.661743 581.959045,547.351074 582.034180,547.028442 
	C582.034180,547.028442 582.035522,547.145386 582.572632,546.960327 
	C582.790649,546.656982 583.008728,546.353577 583.644104,545.944763 
	C583.912659,545.778748 584.048950,545.537964 584.564514,544.971130 
	C584.760864,544.660522 584.957214,544.349915 585.018738,544.046326 
	C585.018738,544.046326 585.038879,544.179810 585.628540,544.057495 
	C586.103455,543.712646 586.578308,543.367737 587.007385,542.994873 
	C587.007385,542.994873 587.011475,543.048340 587.544556,542.893250 
	C587.781677,542.613892 588.018860,542.334534 588.790833,542.016479 
	C589.198547,541.696167 589.606262,541.375793 590.683289,540.945557 
	C591.864807,540.316772 593.046387,539.687988 594.639160,539.090332 
	C594.639160,539.090332 595.015686,538.922302 595.740356,538.906433 
	C597.136414,538.547241 598.532532,538.187988 600.502808,537.907837 
	C600.683228,537.838684 600.863647,537.769470 601.926941,537.634033 
	C604.267334,537.644470 606.607727,537.654907 609.612610,537.932739 
	C610.086853,537.923584 610.561157,537.914429 611.751953,538.060791 
	C613.161804,538.402466 614.571655,538.744141 615.981201,539.013184 
	C615.981201,539.013184 615.914307,539.041382 616.368530,539.541199 
	C617.228516,539.764343 618.088562,539.987488 618.943359,540.066956 
	C618.943359,540.066956 618.803040,540.098206 618.936523,540.654297 
	C619.287292,540.783997 619.638062,540.913696 619.988586,540.991638 
	C619.988586,540.991638 619.946533,541.021729 620.360046,541.451294 
	C620.892395,541.708557 621.424744,541.965820 622.121826,542.671814 
	C622.551941,542.791504 622.982056,542.911194 623.770813,543.621399 
	C624.160950,543.863037 624.551086,544.104736 625.248596,544.912659 
	C631.311768,550.484924 635.379944,557.130737 635.923218,565.520691 
	C636.957886,581.499573 629.102722,591.837952 614.195129,598.276306 
	C613.878113,599.808838 613.324097,601.335083 613.282898,602.875000 
	C613.028503,612.390198 612.889526,621.908508 612.159485,631.850098 
	C610.533813,636.688965 609.221252,641.661438 607.224487,646.341980 
	C600.950806,661.047913 589.322754,670.671448 575.293457,678.556519 
	C574.157776,679.016663 573.022156,679.476868 571.974121,679.962830 
	C571.974121,679.962830 571.986511,679.872375 571.306274,679.934998 
	C570.500427,680.280884 569.694580,680.626770 568.419922,680.950623 
	C568.419922,680.950623 567.971191,681.087952 567.342041,681.037964 
	C566.805908,681.336670 566.269775,681.635376 565.345154,681.884766 
	C565.345154,681.884766 564.990112,682.049988 564.158142,682.009888 
	C553.830261,684.628174 543.463318,684.591919 532.357056,682.080933 
	C519.484680,678.822266 507.594269,673.125000 499.048523,663.065430 
	C493.219116,656.203430 489.792114,647.300537 485.156494,638.418396 
	C479.929596,619.551086 483.406403,600.200073 482.061462,579.927185 
	C477.155029,579.927185 472.298645,579.927185 467.314941,579.597534 
	C466.988312,579.493103 466.661652,579.388672 466.450500,578.411438 
	C462.520447,577.169983 458.590393,575.928589 454.309784,574.144897 
	C426.983917,561.627930 411.293243,540.154907 405.548401,510.137787 
	C405.022339,501.764923 404.496277,493.392059 404.055756,484.231384 
	C404.075745,483.175262 404.095734,482.119110 404.759155,480.569885 
	C404.833466,477.049683 404.907806,473.529480 405.042786,469.390869 
	C405.041809,468.976624 405.040833,468.562408 405.732025,467.648315 
	C405.878723,465.221497 406.025421,462.794708 406.209290,459.753204 
	C397.072571,461.628937 388.562073,463.376099 379.241272,465.011658 
	C372.476318,466.466705 365.711365,467.921753 358.204132,469.530487 
	C343.108490,473.673950 328.012848,477.817383 312.981445,481.991455 
	C312.981445,481.991455 312.981201,481.920288 312.220367,481.967804 
	C309.103882,483.285797 305.987366,484.603790 302.967041,485.934845 
	C302.967041,485.934845 302.959015,485.838074 302.224243,485.929138 
	C299.492737,487.306152 296.761261,488.683197 293.343140,490.183685 
	C277.737427,498.998199 265.339447,510.967163 256.916443,527.465088 
	C256.916443,527.465088 256.815460,527.927063 256.912537,527.945068 
	C256.912537,527.945068 256.900360,527.847046 256.314423,528.198730 
	C255.789001,529.448425 255.263580,530.698181 254.258881,532.201233 
	C254.151199,532.718689 254.043503,533.236145 253.418732,534.249695 
	C252.898651,535.823608 252.378571,537.397461 251.949112,538.972900 
	C251.949112,538.972900 251.933624,538.883667 251.366058,539.337402 
	C250.197281,543.219849 249.028519,547.102234 247.954437,550.982483 
	C247.954437,550.982483 247.938309,550.889160 247.388794,551.406738 
	C245.275955,561.573975 242.683121,571.671021 241.183090,581.927856 
	C239.633179,592.525940 239.145142,603.279297 238.035797,614.850403 
	C237.971497,617.535034 237.907211,620.219666 237.167435,623.444763 
	C237.100449,629.257996 236.731094,635.088196 237.057785,640.879272 
	C237.342377,645.923706 238.412537,650.923767 239.212158,656.627136 
	C242.577972,660.478210 245.524841,664.826599 249.391129,668.083618 
	C259.463440,676.568481 271.770355,680.758362 284.794952,685.045837 
	C285.729309,685.363220 286.642792,685.777710 287.601074,685.983704 
	C307.382202,690.235901 327.168427,694.464294 347.622162,698.949097 
	C348.094910,698.930542 348.567627,698.911987 349.843201,699.018127 
	C355.724182,699.866089 361.586090,700.892700 367.490234,701.523926 
	C378.963623,702.750366 390.460693,703.754822 402.822662,704.977478 
	C409.398224,705.543457 415.964600,706.273865 422.551208,706.642090 
	C437.385895,707.471313 452.230591,708.121155 467.993622,708.949158 
	C484.969269,708.911377 501.944885,708.873596 519.846497,708.995056 
	C533.908386,708.270203 547.970276,707.545349 562.916321,706.937256 
	C567.029541,706.633972 571.144714,706.354309 575.255676,706.022400 
	C584.000305,705.316406 592.784241,704.905273 601.476562,703.786926 
	C614.989441,702.048462 628.439331,699.821289 642.723206,697.867554 
	C643.856445,697.616821 644.981995,697.321777 646.124146,697.122009 
	C666.687866,693.525391 687.168152,689.503906 706.716797,681.960144 
	C719.106445,677.179138 731.403076,672.020508 740.536438,660.744568 
	C741.044250,659.837891 741.552063,658.931152 741.996033,658.016418 
	C741.996033,658.016418 742.030457,658.070801 742.525940,657.607910 
	C742.750977,656.756104 742.976013,655.904358 743.119019,655.021423 
	C743.119019,655.021423 743.112061,655.108826 743.814758,654.772949 
	C744.220154,652.695923 745.011658,650.610596 744.967590,648.543152 
	C744.701355,636.030334 744.244263,623.521606 743.950256,610.135742 
	C742.608826,598.659058 741.883545,587.066528 739.754395,575.737854 
	C737.580017,564.168701 734.027405,552.858582 731.190247,541.197998 
	C731.190247,541.197998 731.011780,541.005920 730.996643,540.301147 
	C730.343445,538.840759 729.690247,537.380371 729.005371,535.981995 
	C729.005371,535.981995 729.074829,535.985657 729.021973,535.369690 
	C728.703247,534.872314 728.384583,534.374878 728.051392,533.968994 
	C728.051392,533.968994 728.144043,533.965820 728.058167,533.226807 
	C726.399353,530.105957 724.740479,526.985107 723.050720,523.960876 
	C723.050720,523.960876 723.151367,523.973022 723.030029,523.382385 
	C722.696594,522.898560 722.363159,522.414795 721.995789,521.985046 
	C721.995789,521.985046 722.058838,521.974792 721.911072,521.365051 
	C721.291260,520.543762 720.671387,519.722412 720.020752,518.976440 
	C720.020752,518.976440 720.098877,518.953430 719.931152,518.366638 
	C719.373718,517.818542 718.816345,517.270508 718.152832,516.815308 
	C718.152832,516.815308 718.278076,516.880127 718.295471,516.246033 
	C717.891235,515.784119 717.486938,515.322144 717.068604,514.947815 
	C717.068604,514.947815 717.152466,514.918762 716.945435,514.336304 
	C716.299255,513.547546 715.653137,512.758789 714.875488,511.421509 
	C714.326355,510.929382 713.777283,510.437286 712.971191,509.440399 
	C712.658386,509.245789 712.345642,509.051178 712.038757,508.974365 
	C712.038757,508.974365 712.155151,508.955109 711.970520,508.422241 
	C711.663635,508.226776 711.356812,508.031311 711.046631,507.960144 
	C711.046631,507.960144 711.170105,507.945099 710.996155,507.405518 
	C710.678833,507.217438 710.361572,507.029388 710.039124,506.963135 
	C710.039124,506.963135 710.160522,506.952057 709.980042,506.417450 
	C709.668274,506.225464 709.356445,506.033508 709.039673,505.963043 
	C709.039673,505.963043 709.160767,505.951721 708.980042,505.418182 
	C708.667358,505.227203 708.354614,505.036224 708.037292,504.965363 
	C708.037292,504.965363 708.156982,504.954529 707.972900,504.424164 
	C707.663574,504.230499 707.354309,504.036835 707.031494,503.962250 
	C707.031494,503.962250 707.151306,503.961060 706.966736,503.420776 
	C706.662292,503.201355 706.357910,502.981934 705.803528,502.204498 
	C704.839844,501.476379 703.876099,500.748291 702.564392,499.517853 
	C701.728638,498.942810 700.892944,498.367737 699.885986,497.347992 
	C699.670044,497.072479 699.388123,496.953339 698.649719,496.511505 
	C697.777832,495.982483 696.905884,495.453461 696.017395,494.995789 
	C696.017395,494.995789 696.081421,494.960205 695.694885,494.466766 
	C694.793335,493.965271 693.891785,493.463806 692.788940,492.803375 
	C692.788940,492.803375 692.588074,492.962952 692.241699,492.385254 
	C691.831238,492.216675 691.420837,492.048096 691.036560,491.969360 
	C691.036560,491.969360 691.121887,491.931061 690.759521,491.367950 
	C689.171204,490.573761 687.582886,489.779572 685.806641,488.806305 
	C685.806641,488.806305 685.581482,488.935516 685.115540,488.347748 
	C682.418335,487.194183 679.721069,486.040649 677.026306,484.964722 
	C677.026306,484.964722 677.101746,484.946411 676.670715,484.393585 
	C675.123474,483.882324 673.576172,483.371063 672.028503,482.949982 
	C672.028503,482.949982 672.117126,482.933289 671.669678,482.359863 
	C657.799744,478.380066 643.929749,474.400299 629.296936,470.060577 
	C621.839294,468.768585 614.351196,467.628876 606.931824,466.145416 
	C597.949341,464.349426 589.022949,462.272064 580.076965,460.295227 
	C577.834595,459.799683 575.864197,459.824432 576.063354,462.865540 
	C576.329285,466.928558 576.809082,470.977570 577.132629,475.895020 
	C578.959900,490.724701 578.179077,505.420685 574.961609,519.980103 
	C574.961609,519.980103 574.941711,519.892883 574.395874,520.396301 
	C573.858337,522.569763 573.320801,524.743286 572.899048,526.924561 
	C572.899048,526.924561 572.869080,526.812439 572.243164,526.838928 
	C572.135986,527.238586 572.028870,527.638245 571.786194,528.228455 
	C571.786194,528.228455 571.934753,528.409058 571.329468,528.842834 
	C570.823242,530.213440 570.317017,531.584106 569.925720,532.953369 
	C569.925720,532.953369 569.898438,532.841736 569.346802,533.157410 
	C569.172241,533.761536 568.997620,534.365662 568.955566,534.973755 
	C568.955566,534.973755 568.944397,534.841553 568.451172,535.033630 
	C568.330200,535.346436 568.209167,535.659241 567.910950,536.328064 
	C567.910950,536.328064 567.927124,536.725403 567.390625,537.096069 
	C566.900879,538.052429 566.411072,539.008789 565.993469,539.981018 
	C565.993469,539.981018 565.960754,539.914673 565.501099,540.307129 
	C565.281860,540.863281 565.062683,541.419373 564.949951,541.955261 
	C564.949951,541.955261 564.910828,541.854187 564.346863,542.162964 
	C563.813354,543.085693 563.279846,544.008484 562.302307,545.100342 
	C562.038391,545.329163 561.934326,545.616028 561.526611,546.374207 
	C560.958252,547.233093 560.389832,548.092041 559.363159,549.116516 
	C559.066406,549.326965 558.943237,549.612366 558.530945,550.376831 
	C558.066101,551.241943 557.601196,552.107056 556.815491,553.572998 
	C542.167664,568.338806 524.704163,577.509827 503.153870,580.137573 
	C501.207825,580.472290 499.261780,580.807007 497.105194,581.177979 
	C497.105194,593.810669 497.105194,606.380737 496.955963,619.812256 
	C498.388428,639.547058 507.252869,654.537354 525.500977,664.003235 
	C525.500977,664.003235 525.979675,664.069824 525.983215,664.001892 
	C525.983215,664.001892 525.923096,664.033875 526.403931,664.535522 
	C527.930298,665.049683 529.456604,665.563843 530.983398,666.007629 
	C530.983398,666.007629 530.919312,666.036926 531.454102,666.569763 
	C539.298767,667.328796 547.143372,668.087830 555.784302,668.934204 
	C561.724915,666.653076 567.665466,664.371948 573.807983,662.217041 
	C573.807983,662.217041 573.988892,662.062317 574.586609,661.948181 
	C575.158875,661.421753 575.731079,660.895264 576.281189,660.257874 
	C576.281189,660.257874 576.212402,660.347717 576.828979,660.324097 
	C577.271118,659.918152 577.713196,659.512207 578.056335,659.079468 
	C578.056335,659.079468 578.104858,659.169739 578.675354,658.968445 
	C579.209167,658.390869 579.742981,657.813293 580.172485,657.141174 
	C580.172485,657.141174 580.124146,657.273376 580.720886,657.184326 
	C581.164551,656.794312 581.608154,656.404358 582.520935,655.885803 
	C582.819885,655.702148 582.987976,655.435852 583.592224,654.755432 
	C584.791138,653.211365 585.990051,651.667297 587.096680,650.066895 
	C587.096680,650.066895 587.067078,650.170959 587.578857,649.968506 
	C587.758179,649.656982 587.937500,649.345520 588.036865,649.037415 
	C588.036865,649.037415 588.067688,649.111267 588.609314,648.791077 
	C589.122742,647.888550 589.636230,646.986023 590.063538,646.044312 
	C590.063538,646.044312 590.087952,646.135803 590.622559,645.811218 
	C590.812317,645.223450 591.002014,644.635620 591.079346,644.059021 
	C591.079346,644.059021 591.119568,644.164551 591.718384,643.815613 
	C592.788391,641.213440 593.858459,638.611328 595.058289,635.622498 
	C595.058289,635.622498 595.066589,635.214600 595.698425,634.765686 
	C597.195740,623.073059 598.693054,611.380371 600.155579,599.959351 
	C595.571899,597.888123 592.296326,596.407959 588.636597,594.442993 
	C587.460083,593.618164 586.283508,592.793396 584.773865,591.438843 
	C583.858887,590.594666 582.943909,589.750549 581.850403,588.382385 
	C581.308472,587.900879 580.766541,587.419434 579.993286,586.341431 
	C579.357239,585.514160 578.721191,584.686829 578.052002,583.958862 
	C578.052002,583.958862 578.155762,583.972778 578.042419,583.361206 
	C577.715149,582.868958 577.387939,582.376709 577.043091,581.968689 
	C577.043091,581.968689 577.129150,581.970337 577.002380,581.201477 
	C572.694580,572.121460 573.487793,563.070312 577.056335,554.040710 
	C577.056335,554.040710 577.082336,554.136902 577.637146,553.827698 
	C578.114441,552.895142 578.591797,551.962585 579.000671,551.016663 
	C579.000671,551.016663 579.034851,551.077515 579.504639,550.692627 
	C579.739502,550.148132 579.974426,549.603638 580.065552,549.047668 
	C580.065552,549.047668 580.078247,549.191345 580.638733,549.053528 
	C580.812805,548.717102 580.986877,548.380676 581.039001,548.036560 
M426.504333,399.092651 
	C429.582947,406.641052 430.284790,414.311005 429.121979,422.474884 
	C427.535553,433.612793 427.380707,444.961182 425.659821,456.071808 
	C423.038177,472.998444 421.360443,489.867950 423.980530,506.917175 
	C426.397858,522.646851 432.183594,536.709045 444.727966,547.195801 
	C452.677734,553.841675 461.714386,558.523315 472.201599,558.924805 
	C484.016113,559.377136 495.877716,559.414185 507.688446,558.914062 
	C518.788513,558.443909 528.731323,554.355652 536.908569,546.599060 
	C552.049744,532.236877 558.246643,513.872070 558.819031,493.712006 
	C559.208618,479.988800 557.873596,466.194458 556.891968,452.461792 
	C556.148987,442.067169 554.987305,431.686218 553.553772,421.362823 
	C552.567017,414.257324 553.002930,407.489899 555.648682,400.830536 
	C561.168152,386.937958 566.564819,372.996063 572.165894,359.136597 
	C574.893738,352.386444 576.283142,344.686554 584.606567,341.694946 
	C586.395081,341.052124 587.645020,338.705170 588.968018,337.006836 
	C596.710999,327.067047 599.582031,315.325012 600.893616,303.165771 
	C601.581421,296.789337 600.884277,290.556183 595.493774,285.761780 
	C594.389221,284.779358 594.071045,282.484741 594.047302,280.785858 
	C593.912659,271.122040 594.057983,261.454590 593.957275,251.789993 
	C593.752014,232.089294 590.267822,213.221527 580.049805,195.964722 
	C568.478699,176.422806 552.217407,162.211121 531.572449,153.053116 
	C513.646912,145.101425 494.830353,143.068893 475.516327,146.026932 
	C456.846954,148.886261 440.026093,156.310257 425.869476,168.758850 
	C401.624817,190.078323 390.274689,217.424393 389.973480,249.519760 
	C389.890594,258.351379 389.738251,267.192352 390.050293,276.013733 
	C390.225220,280.959656 389.546234,285.109528 385.300110,288.283966 
	C384.122070,289.164673 383.398193,290.958893 382.962555,292.476562 
	C380.309265,301.720337 382.549896,310.782776 385.494202,319.318970 
	C389.039703,329.598145 392.851166,340.224762 404.165741,345.215607 
	C405.133148,345.642365 405.738678,347.226837 406.207489,348.395752 
	C412.886536,365.048584 419.513000,381.722504 426.504333,399.092651 
z"/>
<path fill="#FFA82D" opacity="1.000000" stroke="none" 
	d="
M585.106995,591.968567 
	C586.283508,592.793396 587.460083,593.618164 588.863098,595.040283 
	C589.929932,596.366150 590.658386,597.469788 591.629639,597.759583 
	C596.255676,599.139709 597.459778,602.207214 597.057068,606.747314 
	C596.216797,616.220764 595.710205,625.723755 595.066589,635.214600 
	C595.066589,635.214600 595.058289,635.622498 594.645508,635.871460 
	C593.195007,638.801758 592.157288,641.483154 591.119568,644.164551 
	C591.119568,644.164551 591.079346,644.059021 590.840637,644.193726 
	C590.430603,644.930908 590.259277,645.533325 590.087952,646.135803 
	C590.087952,646.135803 590.063538,646.044312 589.739380,646.079895 
	C588.966064,647.114075 588.516907,648.112671 588.067688,649.111267 
	C588.067688,649.111267 588.036865,649.037415 587.824585,649.142639 
	C587.430542,649.555542 587.248779,649.863281 587.067078,650.170959 
	C587.067078,650.170959 587.096680,650.066895 586.770020,650.080811 
	C585.303894,651.758850 584.164551,653.422913 583.025146,655.086975 
	C582.987976,655.435852 582.819885,655.702148 581.967041,655.976685 
	C580.983459,656.469482 580.553772,656.871460 580.124146,657.273376 
	C580.124146,657.273376 580.172485,657.141174 579.864258,657.144531 
	C579.072266,657.821838 578.588562,658.495789 578.104858,659.169739 
	C578.104858,659.169739 578.056335,659.079468 577.770508,659.080933 
	C577.060608,659.504150 576.636536,659.925903 576.212402,660.347717 
	C576.212402,660.347717 576.281189,660.257874 575.943848,660.219727 
	C575.067261,660.808472 574.528076,661.435364 573.988892,662.062317 
	C573.988892,662.062317 573.807983,662.217041 573.282593,662.134827 
	C566.838135,664.037903 560.919067,666.023132 554.533325,668.003296 
	C546.350891,667.344421 538.635132,666.690674 530.919312,666.036926 
	C530.919312,666.036926 530.983398,666.007629 530.836670,665.705383 
	C529.101013,664.946716 527.512024,664.490295 525.923096,664.033875 
	C525.923096,664.033875 525.983215,664.001892 525.926086,663.858032 
	C525.596741,663.750732 525.324463,663.787231 525.052246,663.823730 
	C507.252869,654.537354 498.388428,639.547058 497.313721,619.082031 
	C497.671509,606.433594 497.671509,594.515442 497.671509,583.534912 
	C500.518646,582.013123 502.241608,581.092224 503.964600,580.171265 
	C524.704163,577.509827 542.167664,568.338806 557.308228,553.211121 
	C558.198486,551.890381 558.596069,550.931519 558.993713,549.972656 
	C558.943237,549.612366 559.066406,549.326965 559.955688,549.012573 
	C561.028809,547.926086 561.509399,546.943481 561.990051,545.960938 
	C561.934326,545.616028 562.038391,545.329163 562.899414,544.998291 
	C563.968018,543.882202 564.439453,542.868225 564.910889,541.854187 
	C564.910828,541.854187 564.949951,541.955261 565.180786,541.820618 
	C565.594666,541.095520 565.777710,540.505127 565.960754,539.914673 
	C565.960754,539.914673 565.993469,539.981018 566.329224,539.934570 
	C567.085754,538.833862 567.506470,537.779663 567.927124,536.725403 
	C567.927124,536.725403 567.910950,536.328064 568.214355,536.026611 
	C568.753906,535.476013 568.896057,535.181458 568.944397,534.841553 
	C568.944397,534.841553 568.955566,534.973755 569.183228,534.824219 
	C569.573364,534.063721 569.735901,533.452698 569.898438,532.841736 
	C569.898438,532.841736 569.925720,532.953369 570.238037,532.817017 
	C571.011841,531.256775 571.473267,529.832886 571.934692,528.409058 
	C571.934753,528.409058 571.786194,528.228455 572.100098,528.008057 
	C572.565735,527.462646 572.717407,527.137512 572.869080,526.812439 
	C572.869080,526.812439 572.899048,526.924561 573.180786,526.753296 
	C573.955627,524.352295 574.448669,522.122620 574.941711,519.892883 
	C574.941711,519.892883 574.961609,519.980103 575.239746,519.793579 
	C575.618774,519.474670 575.761658,519.357239 575.814514,519.207886 
	C580.803162,505.106293 579.222900,490.552948 578.701843,476.081116 
	C578.688599,475.714020 577.720093,475.381317 577.197021,475.032593 
	C576.809082,470.977570 576.329285,466.928558 576.063354,462.865540 
	C575.864197,459.824432 577.834595,459.799683 580.076965,460.295227 
	C589.022949,462.272064 597.949341,464.349426 606.931824,466.145416 
	C614.351196,467.628876 621.839294,468.768585 629.771301,470.567322 
	C638.214111,473.390411 646.172363,475.742920 654.154480,478.011230 
	C660.126038,479.708191 666.128418,481.296600 672.117126,482.933289 
	C672.117126,482.933289 672.028503,482.949982 672.164551,483.253265 
	C673.900940,484.019836 675.501343,484.483124 677.101746,484.946411 
	C677.101746,484.946411 677.026306,484.964722 677.155151,485.259949 
	C680.049805,486.681915 682.815613,487.808716 685.581482,488.935516 
	C685.581482,488.935516 685.806641,488.806305 685.949463,489.251282 
	C687.768799,490.441193 689.445312,491.186127 691.121887,491.931061 
	C691.121887,491.931061 691.036560,491.969360 691.199951,492.209900 
	C691.771606,492.621277 692.179871,492.792114 692.588074,492.962952 
	C692.588074,492.962952 692.788940,492.803375 692.937134,493.237579 
	C694.083984,494.101257 695.082703,494.530731 696.081421,494.960205 
	C696.081421,494.960205 696.017395,494.995789 696.056519,495.316040 
	C697.077148,496.087708 698.058594,496.539154 699.040100,496.990601 
	C699.388123,496.953339 699.670044,497.072479 699.983276,497.927673 
	C701.024475,499.011627 701.968445,499.515900 702.912415,500.020172 
	C703.876099,500.748291 704.839844,501.476379 706.020752,502.756104 
	C706.542419,503.525482 706.846863,503.743286 707.151306,503.961060 
	C707.151306,503.961060 707.031494,503.962250 707.135254,504.164734 
	C707.544983,504.562988 707.851013,504.758759 708.156982,504.954529 
	C708.156982,504.954529 708.037292,504.965363 708.139465,505.166229 
	C708.548035,505.561981 708.854370,505.756836 709.160767,505.951721 
	C709.160767,505.951721 709.039673,505.963043 709.140930,506.163910 
	C709.548279,506.560547 709.854431,506.756287 710.160522,506.952057 
	C710.160522,506.952057 710.039124,506.963135 710.141479,507.164307 
	C710.552612,507.558685 710.861389,507.751892 711.170105,507.945099 
	C711.170105,507.945099 711.046631,507.960144 711.144714,508.160400 
	C711.546936,508.558807 711.851013,508.756958 712.155151,508.955109 
	C712.155151,508.955109 712.038757,508.974365 712.149658,509.178284 
	C712.583069,509.569885 712.905579,509.757538 713.228149,509.945190 
	C713.777283,510.437286 714.326355,510.929382 714.953003,512.060730 
	C715.737793,513.439575 716.445129,514.179199 717.152466,514.918762 
	C717.152466,514.918762 717.068604,514.947815 717.068909,515.236572 
	C717.472168,515.976990 717.875122,516.428528 718.278076,516.880127 
	C718.278076,516.880127 718.152832,516.815308 718.152100,517.123291 
	C718.800537,517.938660 719.449707,518.446045 720.098877,518.953430 
	C720.098877,518.953430 720.020752,518.976440 720.027771,519.304810 
	C720.709473,520.413757 721.384155,521.194275 722.058838,521.974792 
	C722.058838,521.974792 721.995789,521.985046 722.040894,522.274292 
	C722.441162,523.033325 722.796265,523.503174 723.151367,523.973022 
	C723.151367,523.973022 723.050720,523.960876 723.041992,524.299133 
	C724.736877,527.746887 726.440491,530.856323 728.144043,533.965820 
	C728.144043,533.965820 728.051392,533.968994 728.065674,534.242188 
	C728.411560,535.005493 728.743164,535.495605 729.074829,535.985657 
	C729.074829,535.985657 729.005371,535.981995 729.021240,536.329102 
	C729.695312,538.119385 730.353516,539.562683 731.011780,541.005920 
	C731.011780,541.005920 731.190247,541.197998 731.117859,541.765747 
	C731.114624,543.324524 730.988586,544.377808 731.281799,545.297363 
	C736.850037,562.755249 739.536377,580.726685 741.082764,598.923096 
	C741.427002,602.973999 742.331177,606.977234 742.980225,611.468994 
	C743.025879,626.326660 743.068970,640.717712 743.112061,655.108826 
	C743.112061,655.108826 743.119019,655.021423 742.848572,655.201111 
	C742.395569,656.277466 742.213013,657.174133 742.030457,658.070801 
	C742.030457,658.070801 741.996033,658.016418 741.669189,658.058838 
	C740.904846,659.107544 740.467346,660.113770 740.029846,661.119934 
	C731.403076,672.020508 719.106445,677.179138 706.716797,681.960144 
	C687.168152,689.503906 666.687866,693.525391 646.124146,697.122009 
	C644.981995,697.321777 643.856445,697.616821 642.024170,697.584595 
	C639.201538,697.377380 637.053894,697.274780 634.958618,697.558960 
	C624.494019,698.978638 614.075928,700.815979 603.579102,701.904846 
	C590.599426,703.251343 577.555603,703.975037 564.549500,705.085144 
	C563.667419,705.160461 562.869324,706.219177 562.032166,706.820496 
	C547.970276,707.545349 533.908386,708.270203 519.070557,708.655029 
	C501.810181,708.226562 485.325745,708.129761 468.841125,708.083557 
	C468.251862,708.081909 467.661224,708.579285 467.071228,708.844116 
	C452.230591,708.121155 437.385895,707.471313 422.551208,706.642090 
	C415.964600,706.273865 409.398224,705.543457 402.185486,704.587280 
	C396.395264,703.462891 391.253052,702.638855 386.086853,702.013184 
	C375.627228,700.746521 365.160309,699.532654 354.681885,698.435425 
	C352.837616,698.242310 350.922668,698.723511 349.040375,698.893311 
	C348.567627,698.911987 348.094910,698.930542 347.191040,698.478638 
	C344.616913,697.340698 342.510742,696.500549 340.324860,696.033630 
	C325.179901,692.798035 310.026398,689.600708 294.856110,686.486389 
	C291.293671,685.755005 287.656403,685.388062 284.053558,684.853455 
	C271.770355,680.758362 259.463440,676.568481 249.391129,668.083618 
	C245.524841,664.826599 242.577972,660.478210 239.432465,656.035522 
	C239.427689,645.957581 239.244095,636.470032 238.931366,626.986633 
	C238.886154,625.615356 238.221115,624.264587 237.842911,622.904297 
	C237.907211,620.219666 237.971497,617.535034 238.489044,614.303589 
	C239.292984,612.560364 239.823883,611.384888 239.966278,610.164185 
	C241.303268,598.702271 242.417236,587.212036 243.915863,575.771912 
	C245.006683,567.444885 246.580078,559.181152 247.938309,550.889160 
	C247.938309,550.889160 247.954437,550.982483 248.224365,550.804688 
	C249.640717,546.712463 250.787170,542.798035 251.933624,538.883667 
	C251.933624,538.883667 251.949112,538.972900 252.258453,538.831421 
	C253.023773,537.044495 253.479782,535.399048 253.935791,533.753601 
	C254.043503,533.236145 254.151199,532.718689 254.849670,531.965332 
	C255.927094,530.435303 256.413696,529.141174 256.900330,527.847046 
	C256.900360,527.847046 256.912537,527.945068 257.056671,527.896484 
	C257.304230,527.772827 257.504395,527.645020 257.496552,527.630676 
	C257.382996,527.422241 257.241516,527.229065 257.106750,527.032227 
	C265.339447,510.967163 277.737427,498.998199 293.886169,490.368164 
	C297.272461,488.981079 300.115753,487.409576 302.959015,485.838074 
	C302.959015,485.838074 302.967041,485.934845 303.323822,485.951172 
	C306.780792,484.618439 309.880981,483.269348 312.981201,481.920288 
	C312.981201,481.920288 312.981445,481.991455 313.372009,481.980743 
	C315.379944,481.724548 317.037689,481.629761 318.608093,481.208954 
	C328.161163,478.649139 337.715240,476.088226 347.224213,473.371002 
	C351.188385,472.238220 355.042358,470.719879 358.946411,469.376831 
	C365.711365,467.921753 372.476318,466.466705 379.912720,465.332581 
	C388.540100,464.454132 396.496063,463.254730 405.039856,461.966675 
	C405.039856,464.571747 405.039856,466.359955 405.039856,468.148163 
	C405.040833,468.562408 405.041809,468.976624 404.720673,469.973175 
	C404.304260,474.057983 404.209991,477.560486 404.115723,481.062988 
	C404.095734,482.119110 404.075745,483.175262 403.716980,484.917603 
	C403.265564,491.398071 402.869110,497.206848 403.165802,502.980042 
	C403.303955,505.669281 404.786041,508.289490 405.658966,510.940979 
	C411.293243,540.154907 426.983917,561.627930 454.708008,574.750610 
	C458.849152,576.665588 462.592072,577.974915 466.335022,579.284180 
	C466.661652,579.388672 466.988312,579.493103 467.825989,579.787964 
	C470.783997,580.358032 473.228241,580.756042 475.678497,581.113037 
	C479.335693,581.645996 481.321075,582.877441 481.150208,587.438782 
	C480.702515,599.392212 480.569824,611.395996 481.194855,623.333496 
	C481.476715,628.715759 483.860718,633.987976 485.290955,639.310120 
	C489.792114,647.300537 493.219116,656.203430 499.048523,663.065430 
	C507.594269,673.125000 519.484680,678.822266 532.826599,682.610596 
	C541.920532,683.567505 550.542175,684.151733 559.171326,684.301025 
	C561.097351,684.334351 563.049805,682.840637 564.990112,682.049927 
	C564.990112,682.049988 565.345154,681.884766 565.859619,681.903320 
	C566.906494,681.643921 567.438843,681.365967 567.971191,681.088013 
	C567.971191,681.087952 568.419922,680.950623 569.011963,680.956177 
	C570.398254,680.598633 571.192383,680.235535 571.986511,679.872375 
	C571.986511,679.872375 571.974121,679.962830 572.285767,679.965088 
	C573.705872,679.482117 574.814331,678.996887 575.922729,678.511658 
	C589.322754,670.671448 600.950806,661.047913 607.224487,646.341980 
	C609.221252,641.661438 610.533813,636.688965 612.738281,631.323730 
	C613.872070,619.903748 614.427185,609.010193 614.982239,598.116577 
	C629.102722,591.837952 636.957886,581.499573 635.923218,565.520691 
	C635.379944,557.130737 631.311768,550.484924 624.947571,544.304932 
	C624.235107,543.475037 623.823608,543.252930 623.412170,543.030823 
	C622.982056,542.911194 622.551941,542.791504 621.908875,542.157959 
	C621.112793,541.436584 620.529663,541.229187 619.946533,541.021729 
	C619.946533,541.021729 619.988586,540.991638 619.870483,540.776001 
	C619.435974,540.406311 619.119507,540.252258 618.803040,540.098206 
	C618.803040,540.098206 618.943359,540.066956 618.780396,539.825195 
	C617.716431,539.402771 616.815369,539.222107 615.914307,539.041382 
	C615.914307,539.041382 615.981201,539.013184 615.850037,538.727173 
	C614.157715,538.262451 612.596558,538.083862 611.035400,537.905273 
	C610.561157,537.914429 610.086853,537.923584 609.176575,537.449829 
	C606.175049,537.211365 603.609558,537.455811 601.044067,537.700317 
	C600.863647,537.769470 600.683228,537.838684 599.966553,537.624878 
	C597.958740,537.868713 596.487183,538.395508 595.015686,538.922302 
	C595.015686,538.922302 594.639160,539.090332 594.037048,539.063171 
	C592.294617,539.709167 591.154297,540.382324 590.013977,541.055420 
	C589.606262,541.375793 589.198547,541.696167 588.257996,542.121582 
	C587.487244,542.500610 587.249390,542.774475 587.011475,543.048340 
	C587.011475,543.048340 587.007385,542.994873 586.714844,543.038269 
	C585.961182,543.447693 585.500061,543.813782 585.038879,544.179810 
	C585.038879,544.179810 585.018738,544.046326 584.822388,544.154053 
	C584.435059,544.581909 584.244019,544.902100 584.052979,545.222290 
	C584.048950,545.537964 583.912659,545.778748 583.165649,546.091797 
	C582.470032,546.540955 582.252747,546.843201 582.035522,547.145386 
	C582.035522,547.145386 582.034180,547.028442 581.832153,547.134521 
	C581.435852,547.546570 581.241516,547.852539 581.047241,548.158508 
	C581.047241,548.158508 581.039001,548.036560 580.837524,548.142334 
	C580.450134,548.562500 580.264221,548.876892 580.078247,549.191345 
	C580.078247,549.191345 580.065552,549.047668 579.844788,549.183350 
	C579.427612,549.905212 579.231262,550.491394 579.034851,551.077515 
	C579.034851,551.077515 579.000671,551.016663 578.674744,551.060486 
	C577.926636,552.115173 577.504456,553.126038 577.082336,554.136902 
	C577.082336,554.136902 577.056335,554.040710 576.758057,554.165833 
	C571.670288,560.566101 572.610718,567.763855 573.573792,574.771973 
	C573.919373,577.286804 575.896606,579.577393 577.129150,581.970337 
	C577.129150,581.970337 577.043091,581.968689 577.059082,582.250732 
	C577.435242,583.012817 577.795532,583.492798 578.155762,583.972778 
	C578.155762,583.972778 578.052002,583.958862 578.043335,584.290527 
	C578.764648,585.394104 579.494629,586.166016 580.224609,586.937988 
	C580.766541,587.419434 581.308472,587.900879 581.937744,589.028748 
	C583.052368,590.439575 584.079651,591.204102 585.106995,591.968567 
M341.297729,626.350098 
	C341.577484,626.560852 341.857208,626.771667 342.600861,626.953430 
	C342.600861,626.953430 343.042084,627.099487 343.637054,627.672607 
	C350.089630,627.452698 356.542175,627.232849 363.313110,626.651489 
	C363.532715,626.416565 363.766357,626.196472 364.613373,625.410645 
	C364.743683,618.995789 365.040894,612.578125 364.934753,606.167175 
	C364.880646,602.897949 365.999542,601.800171 369.216339,601.948792 
	C373.826324,602.161926 378.459869,602.140930 383.070953,601.937622 
	C385.380615,601.835815 387.662750,601.109436 389.955475,599.770081 
	C389.953430,592.313599 389.951355,584.857117 389.522400,576.651184 
	C382.777344,576.433716 376.032074,576.058105 369.287384,576.068604 
	C366.138214,576.073547 364.752655,575.241150 364.947876,571.872742 
	C365.187225,567.742676 365.159210,563.579895 364.943970,559.447083 
	C364.814636,556.963318 364.107971,554.509583 362.766022,552.046265 
	C355.641327,552.047913 348.516602,552.049561 340.641113,552.475220 
	C340.428162,558.205566 340.127258,563.934387 340.025879,569.666687 
	C339.914001,575.994263 339.990051,575.861694 333.494019,576.039795 
	C327.659485,576.199707 321.834259,576.697632 315.806885,577.465820 
	C315.627136,577.734558 315.382446,577.915466 314.426941,578.547913 
	C314.633392,585.696777 314.839813,592.845642 315.457581,600.213745 
	C315.714111,600.406372 315.896637,600.653625 316.559296,601.586304 
	C321.861511,601.724182 327.162994,601.905945 332.466064,601.989990 
	C340.949249,602.124634 339.801361,601.087036 340.038361,609.397522 
	C340.196381,614.937744 340.721252,620.467529 340.996613,625.999390 
	C340.996613,625.999390 340.998413,625.914062 341.297729,626.350098 
z"/>
<path fill="#FFE0C2" opacity="1.000000" stroke="none" 
	d="
M426.328247,398.742004 
	C419.513000,381.722504 412.886536,365.048584 406.207489,348.395752 
	C405.738678,347.226837 405.133148,345.642365 404.165741,345.215607 
	C392.851166,340.224762 389.039703,329.598145 385.494202,319.318970 
	C382.549896,310.782776 380.309265,301.720337 382.962555,292.476562 
	C383.398193,290.958893 384.122070,289.164673 385.300110,288.283966 
	C389.546234,285.109528 390.225220,280.959656 390.050293,276.013733 
	C389.738251,267.192352 389.890594,258.351379 389.973480,249.519760 
	C390.274689,217.424393 401.624817,190.078323 425.869476,168.758850 
	C440.026093,156.310257 456.846954,148.886261 475.516327,146.026932 
	C494.830353,143.068893 513.646912,145.101425 531.572449,153.053116 
	C552.217407,162.211121 568.478699,176.422806 580.049805,195.964722 
	C590.267822,213.221527 593.752014,232.089294 593.957275,251.789993 
	C594.057983,261.454590 593.912659,271.122040 594.047302,280.785858 
	C594.071045,282.484741 594.389221,284.779358 595.493774,285.761780 
	C600.884277,290.556183 601.581421,296.789337 600.893616,303.165771 
	C599.582031,315.325012 596.710999,327.067047 588.968018,337.006836 
	C587.645020,338.705170 586.395081,341.052124 584.606567,341.694946 
	C576.283142,344.686554 574.893738,352.386444 572.165894,359.136597 
	C566.564819,372.996063 561.168152,386.937958 555.648682,400.830536 
	C553.002930,407.489899 552.567017,414.257324 553.553772,421.362823 
	C554.987305,431.686218 556.148987,442.067169 556.891968,452.461792 
	C557.873596,466.194458 559.208618,479.988800 558.819031,493.712006 
	C558.246643,513.872070 552.049744,532.236877 536.908569,546.599060 
	C528.731323,554.355652 518.788513,558.443909 507.688446,558.914062 
	C495.877716,559.414185 484.016113,559.377136 472.201599,558.924805 
	C461.714386,558.523315 452.677734,553.841675 444.727966,547.195801 
	C432.183594,536.709045 426.397858,522.646851 423.980530,506.917175 
	C421.360443,489.867950 423.038177,472.998444 425.659821,456.071808 
	C427.380707,444.961182 427.535553,433.612793 429.121979,422.474884 
	C430.284790,414.311005 429.582947,406.641052 426.328247,398.742004 
z"/>
<path fill="#FFA72C" opacity="1.000000" stroke="none" 
	d="
M613.021973,581.088562 
	C608.588501,582.214172 604.298889,584.733521 599.196899,581.864441 
	C597.871887,580.861877 596.866821,580.477234 595.861816,580.092590 
	C595.861816,580.092590 595.942200,580.059204 595.847900,579.843323 
	C595.445374,579.440796 595.137024,579.254150 594.828735,579.067505 
	C594.828735,579.067505 594.946045,579.045898 594.837769,578.838318 
	C594.405579,578.443298 594.081604,578.255859 593.757690,578.068420 
	C593.421997,578.026489 593.181335,577.852783 592.983032,577.001770 
	C592.576904,575.981018 592.223450,575.505737 591.870056,575.030518 
	C591.870056,575.030518 591.951355,575.035767 591.964050,574.649170 
	C592.298889,569.476196 592.620972,564.689758 592.943054,559.903381 
	C592.943054,559.903381 592.977356,559.973511 593.188477,559.864014 
	C593.577454,559.446838 593.755310,559.139221 593.933167,558.831604 
	C593.933167,558.831604 593.945618,558.947632 594.151611,558.848877 
	C594.548340,558.441284 594.739136,558.132385 594.929932,557.823486 
	C594.929932,557.823486 594.945435,557.942078 595.149658,557.848328 
	C595.551025,557.452515 595.748230,557.150391 595.945374,556.848328 
	C595.945374,556.848328 595.938538,556.935547 596.305786,556.951172 
	C601.161865,556.279663 605.650818,555.592529 610.139709,554.905396 
	C610.139709,554.905396 610.039612,554.939453 610.215027,555.192871 
	C611.298584,555.619690 612.206787,555.793091 613.114929,555.966553 
	C613.445435,555.936462 613.715332,556.050110 614.001343,556.888367 
	C615.099243,558.284790 616.120422,559.100525 617.141602,559.916199 
	C617.141602,559.916199 617.052979,559.960754 617.044434,560.318726 
	C619.631714,566.149780 618.216797,571.631409 617.070923,577.112488 
	C617.070923,577.112488 617.038818,577.037903 616.824280,577.142700 
	C616.433167,577.560120 616.256592,577.872864 616.080017,578.185547 
	C616.080017,578.185547 616.103271,578.077576 615.796875,578.097046 
	C615.031921,578.803955 614.573364,579.491455 614.114868,580.178955 
	C614.114868,580.178955 614.065308,580.086792 613.857544,580.160889 
	C613.440491,580.519470 613.231262,580.804016 613.021973,581.088562 
z"/>
<path fill="#FE9610" opacity="1.000000" stroke="none" 
	d="
M562.474243,706.878906 
	C562.869324,706.219177 563.667419,705.160461 564.549500,705.085144 
	C577.555603,703.975037 590.599426,703.251343 603.579102,701.904846 
	C614.075928,700.815979 624.494019,698.978638 634.958618,697.558960 
	C637.053894,697.274780 639.201538,697.377380 641.620483,697.551392 
	C628.439331,699.821289 614.989441,702.048462 601.476562,703.786926 
	C592.784241,704.905273 584.000305,705.316406 575.255676,706.022400 
	C571.144714,706.354309 567.029541,706.633972 562.474243,706.878906 
z"/>
<path fill="#FE920B" opacity="1.000000" stroke="none" 
	d="
M485.223724,638.864258 
	C483.860718,633.987976 481.476715,628.715759 481.194855,623.333496 
	C480.569824,611.395996 480.702515,599.392212 481.150208,587.438782 
	C481.321075,582.877441 479.335693,581.645996 475.678497,581.113037 
	C473.228241,580.756042 470.783997,580.358032 467.889648,579.952759 
	C472.298645,579.927185 477.155029,579.927185 482.061462,579.927185 
	C483.406403,600.200073 479.929596,619.551086 485.223724,638.864258 
z"/>
<path fill="#FE9B1C" opacity="1.000000" stroke="none" 
	d="
M742.977539,611.002441 
	C742.331177,606.977234 741.427002,602.973999 741.082764,598.923096 
	C739.536377,580.726685 736.850037,562.755249 731.281799,545.297363 
	C730.988586,544.377808 731.114624,543.324524 731.061768,541.884277 
	C734.027405,552.858582 737.580017,564.168701 739.754395,575.737854 
	C741.883545,587.066528 742.608826,598.659058 743.682251,610.569153 
	C743.414307,611.002563 742.977539,611.002441 742.977539,611.002441 
z"/>
<path fill="#FE9610" opacity="1.000000" stroke="none" 
	d="
M247.663544,551.147949 
	C246.580078,559.181152 245.006683,567.444885 243.915863,575.771912 
	C242.417236,587.212036 241.303268,598.702271 239.966278,610.164185 
	C239.823883,611.384888 239.292984,612.560364 238.567444,613.860718 
	C239.145142,603.279297 239.633179,592.525940 241.183090,581.927856 
	C242.683121,571.671021 245.275955,561.573975 247.663544,551.147949 
z"/>
<path fill="#FE9610" opacity="1.000000" stroke="none" 
	d="
M284.424255,684.949646 
	C287.656403,685.388062 291.293671,685.755005 294.856110,686.486389 
	C310.026398,689.600708 325.179901,692.798035 340.324860,696.033630 
	C342.510742,696.500549 344.616913,697.340698 346.856812,698.352783 
	C327.168427,694.464294 307.382202,690.235901 287.601074,685.983704 
	C286.642792,685.777710 285.729309,685.363220 284.424255,684.949646 
z"/>
<path fill="#FE9610" opacity="1.000000" stroke="none" 
	d="
M349.441772,698.955688 
	C350.922668,698.723511 352.837616,698.242310 354.681885,698.435425 
	C365.160309,699.532654 375.627228,700.746521 386.086853,702.013184 
	C391.253052,702.638855 396.395264,703.462891 401.748138,704.524170 
	C390.460693,703.754822 378.963623,702.750366 367.490234,701.523926 
	C361.586090,700.892700 355.724182,699.866089 349.441772,698.955688 
z"/>
<path fill="#FE9B1C" opacity="1.000000" stroke="none" 
	d="
M595.382507,634.990112 
	C595.710205,625.723755 596.216797,616.220764 597.057068,606.747314 
	C597.459778,602.207214 596.255676,599.139709 591.629639,597.759583 
	C590.658386,597.469788 589.929932,596.366150 589.055176,595.282715 
	C592.296326,596.407959 595.571899,597.888123 600.155579,599.959351 
	C598.693054,611.380371 597.195740,623.073059 595.382507,634.990112 
z"/>
<path fill="#FE9610" opacity="1.000000" stroke="none" 
	d="
M358.575256,469.453674 
	C355.042358,470.719879 351.188385,472.238220 347.224213,473.371002 
	C337.715240,476.088226 328.161163,478.649139 318.608093,481.208954 
	C317.037689,481.629761 315.379944,481.724548 313.339905,481.965424 
	C328.012848,477.817383 343.108490,473.673950 358.575256,469.453674 
z"/>
<path fill="#FE9610" opacity="1.000000" stroke="none" 
	d="
M671.893433,482.646606 
	C666.128418,481.296600 660.126038,479.708191 654.154480,478.011230 
	C646.172363,475.742920 638.214111,473.390411 630.152710,470.747284 
	C643.929749,474.400299 657.799744,478.380066 671.893433,482.646606 
z"/>
<path fill="#FE9610" opacity="1.000000" stroke="none" 
	d="
M577.164856,475.463806 
	C577.720093,475.381317 578.688599,475.714020 578.701843,476.081116 
	C579.222900,490.552948 580.803162,505.106293 575.814514,519.207886 
	C575.761658,519.357239 575.618774,519.474670 575.195190,519.797119 
	C578.179077,505.420685 578.959900,490.724701 577.164856,475.463806 
z"/>
<path fill="#FE920B" opacity="1.000000" stroke="none" 
	d="
M742.980164,611.468994 
	C742.977539,611.002441 743.414307,611.002563 743.632629,611.007019 
	C744.244263,623.521606 744.701355,636.030334 744.967590,648.543152 
	C745.011658,650.610596 744.220154,652.695923 743.463440,654.940918 
	C743.068970,640.717712 743.025879,626.326660 742.980164,611.468994 
z"/>
<path fill="#FE9610" opacity="1.000000" stroke="none" 
	d="
M614.588684,598.196411 
	C614.427185,609.010193 613.872070,619.903748 613.014587,631.111572 
	C612.889526,621.908508 613.028503,612.390198 613.282898,602.875000 
	C613.324097,601.335083 613.878113,599.808838 614.588684,598.196411 
z"/>
<path fill="#FE8A03" opacity="1.000000" stroke="none" 
	d="
M467.532410,708.896606 
	C467.661224,708.579285 468.251862,708.081909 468.841125,708.083557 
	C485.325745,708.129761 501.810181,708.226562 518.607605,708.575439 
	C501.944885,708.873596 484.969269,708.911377 467.532410,708.896606 
z"/>
<path fill="#FE9610" opacity="1.000000" stroke="none" 
	d="
M405.385925,467.898254 
	C405.039856,466.359955 405.039856,464.571747 405.039856,461.966675 
	C396.496063,463.254730 388.540100,464.454132 380.317841,465.388397 
	C388.562073,463.376099 397.072571,461.628937 406.209290,459.753204 
	C406.025421,462.794708 405.878723,465.221497 405.385925,467.898254 
z"/>
<path fill="#FE920B" opacity="1.000000" stroke="none" 
	d="
M503.559235,580.154419 
	C502.241608,581.092224 500.518646,582.013123 497.671509,583.534912 
	C497.671509,594.515442 497.671509,606.433594 497.388367,618.651245 
	C497.105194,606.380737 497.105194,593.810669 497.105194,581.177979 
	C499.261780,580.807007 501.207825,580.472290 503.559235,580.154419 
z"/>
<path fill="#FE920B" opacity="1.000000" stroke="none" 
	d="
M237.505173,623.174561 
	C238.221115,624.264587 238.886154,625.615356 238.931366,626.986633 
	C239.244095,636.470032 239.427689,645.957581 239.394165,655.693665 
	C238.412537,650.923767 237.342377,645.923706 237.057785,640.879272 
	C236.731094,635.088196 237.100449,629.257996 237.505173,623.174561 
z"/>
<path fill="#FE9610" opacity="1.000000" stroke="none" 
	d="
M564.574097,682.029907 
	C563.049805,682.840637 561.097351,684.334351 559.171326,684.301025 
	C550.542175,684.151733 541.920532,683.567505 533.180908,682.803833 
	C543.463318,684.591919 553.830261,684.628174 564.574097,682.029907 
z"/>
<path fill="#FE9610" opacity="1.000000" stroke="none" 
	d="
M577.065796,581.585938 
	C575.896606,579.577393 573.919373,577.286804 573.573792,574.771973 
	C572.610718,567.763855 571.670288,560.566101 576.807861,554.163147 
	C573.487793,563.070312 572.694580,572.121460 577.065796,581.585938 
z"/>
<path fill="#FE920B" opacity="1.000000" stroke="none" 
	d="
M405.603699,510.539368 
	C404.786041,508.289490 403.303955,505.669281 403.165802,502.980042 
	C402.869110,497.206848 403.265564,491.398071 403.674225,485.311523 
	C404.496277,493.392059 405.022339,501.764923 405.603699,510.539368 
z"/>
<path fill="#FE9B1C" opacity="1.000000" stroke="none" 
	d="
M555.000000,668.008423 
	C560.919067,666.023132 566.838135,664.037903 573.181641,662.071777 
	C567.665466,664.371948 561.724915,666.653076 555.390381,668.680908 
	C554.996460,668.427673 555.000000,668.008423 555.000000,668.008423 
z"/>
<path fill="#FE920B" opacity="1.000000" stroke="none" 
	d="
M554.533325,668.003296 
	C555.000000,668.008423 554.996460,668.427673 554.992249,668.637268 
	C547.143372,668.087830 539.298767,667.328796 531.186707,666.303345 
	C538.635132,666.690674 546.350891,667.344421 554.533325,668.003296 
z"/>
<path fill="#FE9B1C" opacity="1.000000" stroke="none" 
	d="
M617.375854,576.903931 
	C618.216797,571.631409 619.631714,566.149780 617.061279,560.272095 
	C621.461731,565.329285 620.844849,570.967346 617.375854,576.903931 
z"/>
<path fill="#FE9B1C" opacity="1.000000" stroke="none" 
	d="
M609.945007,554.582947 
	C605.650818,555.592529 601.161865,556.279663 596.265137,556.934814 
	C599.924011,553.055054 604.678406,552.822998 609.945007,554.582947 
z"/>
<path fill="#FE9B1C" opacity="1.000000" stroke="none" 
	d="
M592.649414,560.122131 
	C592.620972,564.689758 592.298889,569.476196 591.952393,574.688232 
	C588.762695,570.093750 589.597839,565.189514 592.649414,560.122131 
z"/>
<path fill="#FE9610" opacity="1.000000" stroke="none" 
	d="
M251.649841,539.110535 
	C250.787170,542.798035 249.640717,546.712463 248.177017,550.805786 
	C249.028519,547.102234 250.197281,543.219849 251.649841,539.110535 
z"/>
<path fill="#FE9610" opacity="1.000000" stroke="none" 
	d="
M728.101074,533.596313 
	C726.440491,530.856323 724.736877,527.746887 723.057495,524.250854 
	C724.740479,526.985107 726.399353,530.105957 728.101074,533.596313 
z"/>
<path fill="#FE920B" opacity="1.000000" stroke="none" 
	d="
M466.392761,578.847778 
	C462.592072,577.974915 458.849152,576.665588 454.883240,575.021729 
	C458.590393,575.928589 462.520447,577.169983 466.392761,578.847778 
z"/>
<path fill="#FE9610" opacity="1.000000" stroke="none" 
	d="
M302.591614,485.883606 
	C300.115753,487.409576 297.272461,488.981079 294.229492,490.306396 
	C296.761261,488.683197 299.492737,487.306152 302.591614,485.883606 
z"/>
<path fill="#FE9610" opacity="1.000000" stroke="none" 
	d="
M312.600769,481.944031 
	C309.880981,483.269348 306.780792,484.618439 303.275726,485.944641 
	C305.987366,484.603790 309.103882,483.285797 312.600769,481.944031 
z"/>
<path fill="#FE9610" opacity="1.000000" stroke="none" 
	d="
M601.485474,537.667114 
	C603.609558,537.455811 606.175049,537.211365 608.844360,537.316101 
	C606.607727,537.654907 604.267334,537.644470 601.485474,537.667114 
z"/>
<path fill="#FE9610" opacity="1.000000" stroke="none" 
	d="
M404.437439,480.816437 
	C404.209991,477.560486 404.304260,474.057983 404.690369,470.282379 
	C404.907806,473.529480 404.833466,477.049683 404.437439,480.816437 
z"/>
<path fill="#FE9B1C" opacity="1.000000" stroke="none" 
	d="
M591.418945,643.990112 
	C592.157288,641.483154 593.195007,638.801758 594.580627,636.064819 
	C593.858459,638.611328 592.788391,641.213440 591.418945,643.990112 
z"/>
<path fill="#FE9610" opacity="1.000000" stroke="none" 
	d="
M685.348511,488.641632 
	C682.815613,487.808716 680.049805,486.681915 677.153931,485.221130 
	C679.721069,486.040649 682.418335,487.194183 685.348511,488.641632 
z"/>
<path fill="#FE9B1C" opacity="1.000000" stroke="none" 
	d="
M583.308716,654.921204 
	C584.164551,653.422913 585.303894,651.758850 586.816101,650.109009 
	C585.990051,651.667297 584.791138,653.211365 583.308716,654.921204 
z"/>
<path fill="#FE9610" opacity="1.000000" stroke="none" 
	d="
M690.940674,491.649506 
	C689.445312,491.186127 687.768799,490.441193 686.043396,489.340820 
	C687.582886,489.779572 689.171204,490.573761 690.940674,491.649506 
z"/>
<path fill="#FE9610" opacity="1.000000" stroke="none" 
	d="
M574.668823,520.144592 
	C574.448669,522.122620 573.955627,524.352295 573.122925,526.749390 
	C573.320801,524.743286 573.858337,522.569763 574.668823,520.144592 
z"/>
<path fill="#FE9610" opacity="1.000000" stroke="none" 
	d="
M611.393677,537.983032 
	C612.596558,538.083862 614.157715,538.262451 615.850220,538.763428 
	C614.571655,538.744141 613.161804,538.402466 611.393677,537.983032 
z"/>
<path fill="#FE9610" opacity="1.000000" stroke="none" 
	d="
M595.378052,538.914368 
	C596.487183,538.395508 597.958740,537.868713 599.679443,537.585327 
	C598.532532,538.187988 597.136414,538.547241 595.378052,538.914368 
z"/>
<path fill="#FE9610" opacity="1.000000" stroke="none" 
	d="
M731.004211,540.653564 
	C730.353516,539.562683 729.695312,538.119385 729.036987,536.298096 
	C729.690247,537.380371 730.343445,538.840759 731.004211,540.653564 
z"/>
<path fill="#FE920B" opacity="1.000000" stroke="none" 
	d="
M526.163513,664.284668 
	C527.512024,664.490295 529.101013,664.946716 530.836426,665.740601 
	C529.456604,665.563843 527.930298,665.049683 526.163513,664.284668 
z"/>
<path fill="#FE9610" opacity="1.000000" stroke="none" 
	d="
M676.886230,484.669983 
	C675.501343,484.483124 673.900940,484.019836 672.164734,483.208191 
	C673.576172,483.371063 675.123474,483.882324 676.886230,484.669983 
z"/>
<path fill="#FE9610" opacity="1.000000" stroke="none" 
	d="
M253.677246,534.001648 
	C253.479782,535.399048 253.023773,537.044495 252.213135,538.830688 
	C252.378571,537.397461 252.898651,535.823608 253.677246,534.001648 
z"/>
<path fill="#FE9B1C" opacity="1.000000" stroke="none" 
	d="
M617.031250,559.613403 
	C616.120422,559.100525 615.099243,558.284790 614.081787,557.101013 
	C615.030579,557.592163 615.975769,558.451355 617.031250,559.613403 
z"/>
<path fill="#FE9B1C" opacity="1.000000" stroke="none" 
	d="
M584.940430,591.703735 
	C584.079651,591.204102 583.052368,590.439575 582.026978,589.290771 
	C582.943909,589.750549 583.858887,590.594666 584.940430,591.703735 
z"/>
<path fill="#FE9610" opacity="1.000000" stroke="none" 
	d="
M256.607361,528.022888 
	C256.413696,529.141174 255.927094,530.435303 255.089294,531.838623 
	C255.263580,530.698181 255.789001,529.448425 256.607361,528.022888 
z"/>
<path fill="#FE9610" opacity="1.000000" stroke="none" 
	d="
M571.632080,528.625977 
	C571.473267,529.832886 571.011841,531.256775 570.180603,532.817627 
	C570.317017,531.584106 570.823242,530.213440 571.632080,528.625977 
z"/>
<path fill="#FE9610" opacity="1.000000" stroke="none" 
	d="
M575.608093,678.534058 
	C574.814331,678.996887 573.705872,679.482117 572.241943,679.952148 
	C573.022156,679.476868 574.157776,679.016663 575.608093,678.534058 
z"/>
<path fill="#FE9610" opacity="1.000000" stroke="none" 
	d="
M590.348633,541.000488 
	C591.154297,540.382324 592.294617,539.709167 593.831421,539.047607 
	C593.046387,539.687988 591.864807,540.316772 590.348633,541.000488 
z"/>
<path fill="#FE9610" opacity="1.000000" stroke="none" 
	d="
M580.108948,586.639709 
	C579.494629,586.166016 578.764648,585.394104 578.059937,584.240845 
	C578.721191,584.686829 579.357239,585.514160 580.108948,586.639709 
z"/>
<path fill="#FE9610" opacity="1.000000" stroke="none" 
	d="
M721.984985,521.669922 
	C721.384155,521.194275 720.709473,520.413757 720.043213,519.267212 
	C720.671387,519.722412 721.291260,520.543762 721.984985,521.669922 
z"/>
<path fill="#FE9610" opacity="1.000000" stroke="none" 
	d="
M567.658936,536.910767 
	C567.506470,537.779663 567.085754,538.833862 566.293152,539.926575 
	C566.411072,539.008789 566.900879,538.052429 567.658936,536.910767 
z"/>
<path fill="#FE9B1C" opacity="1.000000" stroke="none" 
	d="
M588.338501,648.951172 
	C588.516907,648.112671 588.966064,647.114075 589.782471,646.099487 
	C589.636230,646.986023 589.122742,647.888550 588.338501,648.951172 
z"/>
<path fill="#FE9610" opacity="1.000000" stroke="none" 
	d="
M695.888184,494.713501 
	C695.082703,494.530731 694.083984,494.101257 693.037781,493.317078 
	C693.891785,493.463806 694.793335,493.965271 695.888184,494.713501 
z"/>
<path fill="#FE9610" opacity="1.000000" stroke="none" 
	d="
M717.048950,514.627563 
	C716.445129,514.179199 715.737793,513.439575 715.018738,512.335022 
	C715.653137,512.758789 716.299255,513.547546 717.048950,514.627563 
z"/>
<path fill="#FE9610" opacity="1.000000" stroke="none" 
	d="
M577.359741,553.982300 
	C577.504456,553.126038 577.926636,552.115173 578.708984,551.067200 
	C578.591797,551.962585 578.114441,552.895142 577.359741,553.982300 
z"/>
<path fill="#FE9610" opacity="1.000000" stroke="none" 
	d="
M698.844910,496.751038 
	C698.058594,496.539154 697.077148,496.087708 696.064819,495.280334 
	C696.905884,495.453461 697.777832,495.982483 698.844910,496.751038 
z"/>
<path fill="#FE9610" opacity="1.000000" stroke="none" 
	d="
M558.762329,550.174744 
	C558.596069,550.931519 558.198486,551.890381 557.468628,552.910706 
	C557.601196,552.107056 558.066101,551.241943 558.762329,550.174744 
z"/>
<path fill="#FE9B1C" opacity="1.000000" stroke="none" 
	d="
M596.012329,580.374023 
	C596.866821,580.477234 597.871887,580.861877 598.943726,581.593567 
	C598.061279,581.512207 597.112000,581.083862 596.012329,580.374023 
z"/>
<path fill="#FE920B" opacity="1.000000" stroke="none" 
	d="
M740.283142,660.932251 
	C740.467346,660.113770 740.904846,659.107544 741.701050,658.062866 
	C741.552063,658.931152 741.044250,659.837891 740.283142,660.932251 
z"/>
<path fill="#FE9610" opacity="1.000000" stroke="none" 
	d="
M564.628906,542.008545 
	C564.439453,542.868225 563.968018,543.882202 563.121460,544.913696 
	C563.279846,544.008484 563.813354,543.085693 564.628906,542.008545 
z"/>
<path fill="#FE9610" opacity="1.000000" stroke="none" 
	d="
M561.758301,546.167603 
	C561.509399,546.943481 561.028809,547.926086 560.184814,548.929810 
	C560.389832,548.092041 560.958252,547.233093 561.758301,546.167603 
z"/>
<path fill="#FE9610" opacity="1.000000" stroke="none" 
	d="
M702.738403,499.769012 
	C701.968445,499.515900 701.024475,499.011627 700.068848,498.149994 
	C700.892944,498.367737 701.728638,498.942810 702.738403,499.769012 
z"/>
<path fill="#FE9610" opacity="1.000000" stroke="none" 
	d="
M720.015015,518.660034 
	C719.449707,518.446045 718.800537,517.938660 718.205139,517.076843 
	C718.816345,517.270508 719.373718,517.818542 720.015015,518.660034 
z"/>
<path fill="#FE9B1C" opacity="1.000000" stroke="none" 
	d="
M614.394958,580.065918 
	C614.573364,579.491455 615.031921,578.803955 615.844727,578.124512 
	C615.691101,578.739319 615.183044,579.346130 614.394958,580.065918 
z"/>
<path fill="#FE9B1C" opacity="1.000000" stroke="none" 
	d="
M578.390137,659.069092 
	C578.588562,658.495789 579.072266,657.821838 579.916382,657.191772 
	C579.742981,657.813293 579.209167,658.390869 578.390137,659.069092 
z"/>
<path fill="#FE9B1C" opacity="1.000000" stroke="none" 
	d="
M574.287720,662.005249 
	C574.528076,661.435364 575.067261,660.808472 575.954895,660.275146 
	C575.731079,660.895264 575.158875,661.421753 574.287720,662.005249 
z"/>
<path fill="#FE920B" opacity="1.000000" stroke="none" 
	d="
M742.278198,657.839355 
	C742.213013,657.174133 742.395569,656.277466 742.889526,655.216675 
	C742.976013,655.904358 742.750977,656.756104 742.278198,657.839355 
z"/>
<path fill="#FE9B1C" opacity="1.000000" stroke="none" 
	d="
M612.880310,555.719055 
	C612.206787,555.793091 611.298584,555.619690 610.208618,555.140381 
	C610.899719,555.046875 611.772705,555.259216 612.880310,555.719055 
z"/>
<path fill="#FE9610" opacity="1.000000" stroke="none" 
	d="
M616.141418,539.291321 
	C616.815369,539.222107 617.716431,539.402771 618.783020,539.897095 
	C618.088562,539.987488 617.228516,539.764343 616.141418,539.291321 
z"/>
<path fill="#FE9610" opacity="1.000000" stroke="none" 
	d="
M571.646362,679.903687 
	C571.192383,680.235535 570.398254,680.598633 569.246338,680.967224 
	C569.694580,680.626770 570.500427,680.280884 571.646362,679.903687 
z"/>
<path fill="#FE9610" opacity="1.000000" stroke="none" 
	d="
M578.099121,583.666992 
	C577.795532,583.492798 577.435242,583.012817 577.067871,582.208618 
	C577.387939,582.376709 577.715149,582.868958 578.099121,583.666992 
z"/>
<path fill="#FE9610" opacity="1.000000" stroke="none" 
	d="
M579.269775,550.885071 
	C579.231262,550.491394 579.427612,549.905212 579.916687,549.189087 
	C579.974426,549.603638 579.739502,550.148132 579.269775,550.885071 
z"/>
<path fill="#FE9B1C" opacity="1.000000" stroke="none" 
	d="
M590.355225,645.973511 
	C590.259277,645.533325 590.430603,644.930908 590.896851,644.188110 
	C591.002014,644.635620 590.812317,645.223450 590.355225,645.973511 
z"/>
<path fill="#FE9B1C" opacity="1.000000" stroke="none" 
	d="
M591.923462,575.327148 
	C592.223450,575.505737 592.576904,575.981018 592.952209,576.773132 
	C592.641724,576.601257 592.309265,576.112549 591.923462,575.327148 
z"/>
<path fill="#FE9B1C" opacity="1.000000" stroke="none" 
	d="
M580.422485,657.228882 
	C580.553772,656.871460 580.983459,656.469482 581.732422,656.040955 
	C581.608154,656.404358 581.164551,656.794312 580.422485,657.228882 
z"/>
<path fill="#FE9610" opacity="1.000000" stroke="none" 
	d="
M718.286743,516.563110 
	C717.875122,516.428528 717.472168,515.976990 717.075928,515.192810 
	C717.486938,515.322144 717.891235,515.784119 718.286743,516.563110 
z"/>
<path fill="#FE9B1C" opacity="1.000000" stroke="none" 
	d="
M576.520691,660.335938 
	C576.636536,659.925903 577.060608,659.504150 577.820007,659.094238 
	C577.713196,659.512207 577.271118,659.918152 576.520691,660.335938 
z"/>
<path fill="#FE9610" opacity="1.000000" stroke="none" 
	d="
M585.333740,544.118652 
	C585.500061,543.813782 585.961182,543.447693 586.737793,543.052246 
	C586.578308,543.367737 586.103455,543.712646 585.333740,544.118652 
z"/>
<path fill="#FE9610" opacity="1.000000" stroke="none" 
	d="
M620.153320,541.236511 
	C620.529663,541.229187 621.112793,541.436584 621.826538,541.933594 
	C621.424744,541.965820 620.892395,541.708557 620.153320,541.236511 
z"/>
<path fill="#FE9610" opacity="1.000000" stroke="none" 
	d="
M565.730957,540.110901 
	C565.777710,540.505127 565.594666,541.095520 565.127563,541.830688 
	C565.062683,541.419373 565.281860,540.863281 565.730957,540.110901 
z"/>
<path fill="#FE9610" opacity="1.000000" stroke="none" 
	d="
M729.048401,535.677673 
	C728.743164,535.495605 728.411560,535.005493 728.072876,534.196411 
	C728.384583,534.374878 728.703247,534.872314 729.048401,535.677673 
z"/>
<path fill="#FE9610" opacity="1.000000" stroke="none" 
	d="
M569.622620,532.999573 
	C569.735901,533.452698 569.573364,534.063721 569.116943,534.822266 
	C568.997620,534.365662 569.172241,533.761536 569.622620,532.999573 
z"/>
<path fill="#FE9610" opacity="1.000000" stroke="none" 
	d="
M567.656616,681.062988 
	C567.438843,681.365967 566.906494,681.643921 566.053833,681.927979 
	C566.269775,681.635376 566.805908,681.336670 567.656616,681.062988 
z"/>
<path fill="#FE9610" opacity="1.000000" stroke="none" 
	d="
M723.090698,523.677734 
	C722.796265,523.503174 722.441162,523.033325 722.057861,522.247192 
	C722.363159,522.414795 722.696594,522.898560 723.090698,523.677734 
z"/>
<path fill="#FE9B1C" opacity="1.000000" stroke="none" 
	d="
M587.322998,650.069702 
	C587.248779,649.863281 587.430542,649.555542 587.864502,649.140930 
	C587.937500,649.345520 587.758179,649.656982 587.322998,650.069702 
z"/>
<path fill="#FE920B" opacity="1.000000" stroke="none" 
	d="
M525.276611,663.913452 
	C525.324463,663.787231 525.596741,663.750732 525.924316,663.892029 
	C525.979675,664.069824 525.500977,664.003235 525.276611,663.913452 
z"/>
<path fill="#FE9610" opacity="1.000000" stroke="none" 
	d="
M692.414917,492.674103 
	C692.179871,492.792114 691.771606,492.621277 691.186890,492.164978 
	C691.420837,492.048096 691.831238,492.216675 692.414917,492.674103 
z"/>
<path fill="#FE9610" opacity="1.000000" stroke="none" 
	d="
M584.308716,545.096680 
	C584.244019,544.902100 584.435059,544.581909 584.889771,544.150513 
	C584.957214,544.349915 584.760864,544.660522 584.308716,545.096680 
z"/>
<path fill="#FE9610" opacity="1.000000" stroke="none" 
	d="
M709.070435,505.684937 
	C708.854370,505.756836 708.548035,505.561981 708.141785,505.106171 
	C708.354614,505.036224 708.667358,505.227203 709.070435,505.684937 
z"/>
<path fill="#FE9610" opacity="1.000000" stroke="none" 
	d="
M710.070312,506.684753 
	C709.854431,506.756287 709.548279,506.560547 709.143433,506.103149 
	C709.356445,506.033508 709.668274,506.225464 710.070312,506.684753 
z"/>
<path fill="#FE9610" opacity="1.000000" stroke="none" 
	d="
M711.083130,507.675293 
	C710.861389,507.751892 710.552612,507.558685 710.144043,507.103394 
	C710.361572,507.029388 710.678833,507.217438 711.083130,507.675293 
z"/>
<path fill="#FE9610" opacity="1.000000" stroke="none" 
	d="
M712.062866,508.688660 
	C711.851013,508.756958 711.546936,508.558807 711.146362,508.098267 
	C711.356812,508.031311 711.663635,508.226776 712.062866,508.688660 
z"/>
<path fill="#FE9610" opacity="1.000000" stroke="none" 
	d="
M713.099670,509.692810 
	C712.905579,509.757538 712.583069,509.569885 712.146667,509.119385 
	C712.345642,509.051178 712.658386,509.245789 713.099670,509.692810 
z"/>
<path fill="#FE9610" opacity="1.000000" stroke="none" 
	d="
M257.011597,527.248657 
	C257.241516,527.229065 257.382996,527.422241 257.496552,527.630676 
	C257.504395,527.645020 257.304230,527.772827 257.008118,527.887451 
	C256.815460,527.927063 256.916443,527.465088 257.011597,527.248657 
z"/>
<path fill="#FE9610" opacity="1.000000" stroke="none" 
	d="
M572.556152,526.825684 
	C572.717407,527.137512 572.565735,527.462646 572.167847,527.912842 
	C572.028870,527.638245 572.135986,527.238586 572.556152,526.825684 
z"/>
<path fill="#FE9610" opacity="1.000000" stroke="none" 
	d="
M568.697754,534.937622 
	C568.896057,535.181458 568.753906,535.476013 568.302979,535.848633 
	C568.209167,535.659241 568.330200,535.346436 568.697754,534.937622 
z"/>
<path fill="#FE9610" opacity="1.000000" stroke="none" 
	d="
M707.059021,503.690918 
	C706.846863,503.743286 706.542419,503.525482 706.145752,503.035095 
	C706.357910,502.981934 706.662292,503.201355 707.059021,503.690918 
z"/>
<path fill="#FE9610" opacity="1.000000" stroke="none" 
	d="
M618.869751,540.376221 
	C619.119507,540.252258 619.435974,540.406311 619.870605,540.801880 
	C619.638062,540.913696 619.287292,540.783997 618.869751,540.376221 
z"/>
<path fill="#FE9610" opacity="1.000000" stroke="none" 
	d="
M587.278015,542.970825 
	C587.249390,542.774475 587.487244,542.500610 587.990601,542.140991 
	C588.018860,542.334534 587.781677,542.613892 587.278015,542.970825 
z"/>
<path fill="#FE9610" opacity="1.000000" stroke="none" 
	d="
M623.591492,543.326111 
	C623.823608,543.252930 624.235107,543.475037 624.793823,544.021851 
	C624.551086,544.104736 624.160950,543.863037 623.591492,543.326111 
z"/>
<path fill="#FE9610" opacity="1.000000" stroke="none" 
	d="
M582.304077,547.052856 
	C582.252747,546.843201 582.470032,546.540955 582.957031,546.144531 
	C583.008728,546.353577 582.790649,546.656982 582.304077,547.052856 
z"/>
<path fill="#FE9610" opacity="1.000000" stroke="none" 
	d="
M581.311768,548.065430 
	C581.241516,547.852539 581.435852,547.546570 581.890320,547.140503 
	C581.959045,547.351074 581.767639,547.661743 581.311768,548.065430 
z"/>
<path fill="#FE9610" opacity="1.000000" stroke="none" 
	d="
M580.358521,549.122437 
	C580.264221,548.876892 580.450134,548.562500 580.898560,548.146118 
	C580.986877,548.380676 580.812805,548.717102 580.358521,549.122437 
z"/>
<path fill="#FE9610" opacity="1.000000" stroke="none" 
	d="
M708.064941,504.689331 
	C707.851013,504.758759 707.544983,504.562988 707.141968,504.105194 
	C707.354309,504.036835 707.663574,504.230499 708.064941,504.689331 
z"/>
<path fill="#FE9B1C" opacity="1.000000" stroke="none" 
	d="
M595.685425,556.943115 
	C595.748230,557.150391 595.551025,557.452515 595.090027,557.844055 
	C595.025879,557.634949 595.225647,557.336426 595.685425,556.943115 
z"/>
<path fill="#FE9B1C" opacity="1.000000" stroke="none" 
	d="
M594.668213,557.919434 
	C594.739136,558.132385 594.548340,558.441284 594.093445,558.843872 
	C594.021729,558.630127 594.214172,558.322815 594.668213,557.919434 
z"/>
<path fill="#FE9B1C" opacity="1.000000" stroke="none" 
	d="
M593.677002,558.932129 
	C593.755310,559.139221 593.577454,559.446838 593.149475,559.861816 
	C593.073242,559.657043 593.247070,559.344849 593.677002,558.932129 
z"/>
<path fill="#FE9B1C" opacity="1.000000" stroke="none" 
	d="
M616.340271,578.087769 
	C616.256592,577.872864 616.433167,577.560120 616.864868,577.142456 
	C616.946838,577.354919 616.773682,577.672424 616.340271,578.087769 
z"/>
<path fill="#FE9B1C" opacity="1.000000" stroke="none" 
	d="
M593.880981,578.323730 
	C594.081604,578.255859 594.405579,578.443298 594.838135,578.897949 
	C594.632629,578.969849 594.318420,578.774475 593.880981,578.323730 
z"/>
<path fill="#FE9B1C" opacity="1.000000" stroke="none" 
	d="
M594.927368,579.326050 
	C595.137024,579.254150 595.445374,579.440796 595.852905,579.886536 
	C595.643433,579.958618 595.334717,579.771667 594.927368,579.326050 
z"/>
<path fill="#FE9B1C" opacity="1.000000" stroke="none" 
	d="
M613.288025,581.017334 
	C613.231262,580.804016 613.440491,580.519470 613.908630,580.149536 
	C613.963013,580.358154 613.758545,580.652161 613.288025,581.017334 
z"/>
<path fill="#FAFCFF" opacity="1.000000" stroke="none" 
	d="
M341.391907,552.051208 
	C348.516602,552.049561 355.641327,552.047913 363.318542,552.500732 
	C363.871094,560.878662 363.871094,568.802124 363.871094,577.400635 
	C373.042908,577.400635 381.496094,577.400635 389.949310,577.400635 
	C389.951355,584.857117 389.953430,592.313599 389.500793,600.326233 
	C380.791382,600.882385 372.536652,600.882385 364.014008,600.882385 
	C364.014008,609.731567 364.014008,617.861450 364.014008,625.991333 
	C363.766357,626.196472 363.532715,626.416565 362.685913,626.827393 
	C355.719818,627.035339 349.380951,627.067383 343.042084,627.099487 
	C343.042084,627.099487 342.600861,626.953430 342.213531,626.755127 
	C341.550262,626.342590 341.274353,626.128296 340.998413,625.914062 
	C340.998413,625.914062 340.996613,625.999390 341.005493,625.531799 
	C341.014404,617.136475 341.014404,609.208801 341.014404,600.955444 
	C332.268921,600.955444 324.137024,600.955444 316.005096,600.955444 
	C315.896637,600.653625 315.714111,600.406372 315.235901,599.636108 
	C315.033722,592.041809 315.053253,585.025146 315.072815,578.008484 
	C315.382446,577.915466 315.627136,577.734558 316.373932,577.237427 
	C324.859039,577.009094 332.777100,577.009094 341.391907,577.009094 
	C341.391907,568.272583 341.391907,560.161865 341.391907,552.051208 
z"/>
<path fill="#FE8A03" opacity="1.000000" stroke="none" 
	d="
M364.313690,625.700989 
	C364.014008,617.861450 364.014008,609.731567 364.014008,600.882385 
	C372.536652,600.882385 380.791382,600.882385 389.501709,600.773926 
	C387.662750,601.109436 385.380615,601.835815 383.070953,601.937622 
	C378.459869,602.140930 373.826324,602.161926 369.216339,601.948792 
	C365.999542,601.800171 364.880646,602.897949 364.934753,606.167175 
	C365.040894,612.578125 364.743683,618.995789 364.313690,625.700989 
z"/>
<path fill="#FE8A03" opacity="1.000000" stroke="none" 
	d="
M389.735840,577.025879 
	C381.496094,577.400635 373.042908,577.400635 363.871094,577.400635 
	C363.871094,568.802124 363.871094,560.878662 363.765930,552.498779 
	C364.107971,554.509583 364.814636,556.963318 364.943970,559.447083 
	C365.159210,563.579895 365.187225,567.742676 364.947876,571.872742 
	C364.752655,575.241150 366.138214,576.073547 369.287384,576.068604 
	C376.032074,576.058105 382.777344,576.433716 389.735840,577.025879 
z"/>
<path fill="#FE8A03" opacity="1.000000" stroke="none" 
	d="
M316.282196,601.270874 
	C324.137024,600.955444 332.268921,600.955444 341.014404,600.955444 
	C341.014404,609.208801 341.014404,617.136475 341.048157,625.533081 
	C340.721252,620.467529 340.196381,614.937744 340.038361,609.397522 
	C339.801361,601.087036 340.949249,602.124634 332.466064,601.989990 
	C327.162994,601.905945 321.861511,601.724182 316.282196,601.270874 
z"/>
<path fill="#FE8A03" opacity="1.000000" stroke="none" 
	d="
M341.016510,552.263184 
	C341.391907,560.161865 341.391907,568.272583 341.391907,577.009094 
	C332.777100,577.009094 324.859039,577.009094 316.472961,577.027771 
	C321.834259,576.697632 327.659485,576.199707 333.494019,576.039795 
	C339.990051,575.861694 339.914001,575.994263 340.025879,569.666687 
	C340.127258,563.934387 340.428162,558.205566 341.016510,552.263184 
z"/>
<path fill="#FE8A03" opacity="1.000000" stroke="none" 
	d="
M314.749878,578.278198 
	C315.053253,585.025146 315.033722,592.041809 315.030212,599.526489 
	C314.839813,592.845642 314.633392,585.696777 314.749878,578.278198 
z"/>
<path fill="#FE8A03" opacity="1.000000" stroke="none" 
	d="
M343.339569,627.385986 
	C349.380951,627.067383 355.719818,627.035339 362.526733,627.008118 
	C356.542175,627.232849 350.089630,627.452698 343.339569,627.385986 
z"/>
<path fill="#FE8A03" opacity="1.000000" stroke="none" 
	d="
M341.148071,626.132080 
	C341.274353,626.128296 341.550262,626.342590 341.981567,626.769653 
	C341.857208,626.771667 341.577484,626.560852 341.148071,626.132080 
z"/>
</svg>