<svg version="1.1" id="Layer_1" xmlns="http://www.w3.org/2000/svg" xmlns:xlink="http://www.w3.org/1999/xlink" x="0px" y="0px"
	 width="100%" viewBox="0 0 977 821" enable-background="new 0 0 977 821" xml:space="preserve">
<path fill="#FBFBFF" opacity="1.000000" stroke="none" 
	d="
M579.000000,822.000000 
	C386.000000,822.000000 193.500000,822.000000 1.000000,822.000000 
	C1.000000,548.333313 1.000000,274.666656 1.000000,1.000000 
	C326.666656,1.000000 652.333313,1.000000 978.000000,1.000000 
	C978.000000,274.666656 978.000000,548.333313 978.000000,822.000000 
	C845.166687,822.000000 712.333313,822.000000 579.000000,822.000000 
M248.162766,590.336243 
	C252.239944,595.775818 255.967621,601.524231 260.454742,606.601562 
	C280.006165,628.724487 305.538696,641.150940 333.034454,649.873718 
	C346.751312,654.225403 360.760284,657.982422 374.898499,660.592712 
	C390.686401,663.507507 406.751312,664.995422 422.735992,666.733643 
	C428.836761,667.397095 435.052155,666.946655 441.210205,667.154846 
	C457.603607,667.709106 473.996582,668.889832 490.385437,668.820068 
	C514.292114,668.718323 538.191956,667.764099 561.875549,663.930481 
	C574.297852,661.919800 586.874146,660.692688 599.170410,658.109985 
	C617.474365,654.265442 635.439514,649.254272 652.912781,642.221130 
	C677.161865,632.460693 699.291870,619.915771 716.468750,599.805725 
	C729.935364,584.039673 737.777466,565.867371 738.731079,545.027649 
	C739.492554,528.386047 734.777588,512.942383 728.026794,497.924164 
	C720.541931,481.272766 709.308838,467.401337 696.338501,454.903442 
	C689.053101,447.883362 680.875061,441.797394 673.366577,434.995392 
	C671.604797,433.399384 670.382507,430.733673 669.834961,428.348267 
	C666.277527,412.849091 663.747559,397.072479 659.419983,381.800781 
	C651.635010,354.327728 637.625000,330.201813 617.179688,310.052612 
	C614.927124,307.832703 614.812927,306.091309 616.589417,303.635468 
	C620.157898,298.702332 621.679382,293.321472 620.220337,287.138275 
	C619.943176,285.964020 621.262024,283.548065 622.429382,283.034515 
	C632.084900,278.786774 642.099731,275.310425 651.583008,270.725922 
	C670.489868,261.585693 687.087585,249.196442 700.241211,232.692566 
	C708.841492,221.901871 708.136292,211.409653 698.528564,201.364960 
	C694.406555,197.055496 689.529175,193.474976 685.297729,189.259491 
	C684.105530,188.071808 683.145081,185.593369 683.532776,184.079330 
	C684.636841,179.767303 686.900085,175.748962 687.972839,171.432571 
	C691.288879,158.090424 691.489563,144.963867 682.557861,133.417007 
	C674.328796,122.778587 663.509094,117.085686 649.851196,115.806351 
	C635.542114,114.466019 621.616699,115.131920 608.174622,120.199974 
	C592.332397,126.172943 578.948975,135.927872 567.648987,148.471573 
	C565.395203,150.973373 564.418274,150.236099 562.759399,148.044403 
	C560.160828,144.611359 557.456787,141.208496 554.429504,138.158020 
	C540.027771,123.646149 511.731018,123.800858 498.722961,143.806519 
	C491.771759,154.496994 489.605164,166.851700 489.557953,179.005798 
	C489.483276,198.237732 491.003448,217.501663 492.563080,236.693985 
	C492.905823,240.911667 492.035919,243.381561 489.028595,245.558441 
	C481.137024,251.270752 477.906616,258.809570 479.401672,268.513885 
	C479.565155,269.575073 478.026886,271.794586 476.975861,272.011230 
	C463.033112,274.885193 448.816772,276.686340 435.113617,280.397736 
	C420.878906,284.253052 406.620789,288.807983 393.295868,295.032745 
	C377.432556,302.443298 362.386688,311.678711 347.288483,320.632446 
	C330.039154,330.861877 314.884735,343.947357 300.902527,358.167419 
	C281.960083,377.432159 265.760223,398.751221 253.762360,423.270355 
	C245.891098,439.356293 239.978653,455.994049 236.266052,473.338440 
	C233.848938,484.630676 232.958435,496.288666 231.930328,507.831512 
	C229.367172,536.608582 233.836884,564.113708 248.162766,590.336243 
z"/>
<path fill="#FEC881" opacity="1.000000" stroke="none" 
	d="
M247.938965,590.050049 
	C233.836884,564.113708 229.367172,536.608582 231.930328,507.831512 
	C232.958435,496.288666 233.848938,484.630676 236.266052,473.338440 
	C239.978653,455.994049 245.891098,439.356293 253.762360,423.270355 
	C265.760223,398.751221 281.960083,377.432159 300.902527,358.167419 
	C314.884735,343.947357 330.039154,330.861877 347.288483,320.632446 
	C362.386688,311.678711 377.432556,302.443298 393.295868,295.032745 
	C406.620789,288.807983 420.878906,284.253052 435.113617,280.397736 
	C448.816772,276.686340 463.033112,274.885193 476.975861,272.011230 
	C478.026886,271.794586 479.565155,269.575073 479.401672,268.513885 
	C477.906616,258.809570 481.137024,251.270752 489.028595,245.558441 
	C492.035919,243.381561 492.905823,240.911667 492.563080,236.693985 
	C491.003448,217.501663 489.483276,198.237732 489.557953,179.005798 
	C489.605164,166.851700 491.771759,154.496994 498.722961,143.806519 
	C511.731018,123.800858 540.027771,123.646149 554.429504,138.158020 
	C557.456787,141.208496 560.160828,144.611359 562.759399,148.044403 
	C564.418274,150.236099 565.395203,150.973373 567.648987,148.471573 
	C578.948975,135.927872 592.332397,126.172943 608.174622,120.199974 
	C621.616699,115.131920 635.542114,114.466019 649.851196,115.806351 
	C663.509094,117.085686 674.328796,122.778587 682.557861,133.417007 
	C691.489563,144.963867 691.288879,158.090424 687.972839,171.432571 
	C686.900085,175.748962 684.636841,179.767303 683.532776,184.079330 
	C683.145081,185.593369 684.105530,188.071808 685.297729,189.259491 
	C689.529175,193.474976 694.406555,197.055496 698.528564,201.364960 
	C708.136292,211.409653 708.841492,221.901871 700.241211,232.692566 
	C687.087585,249.196442 670.489868,261.585693 651.583008,270.725922 
	C642.099731,275.310425 632.084900,278.786774 622.429382,283.034515 
	C621.262024,283.548065 619.943176,285.964020 620.220337,287.138275 
	C621.679382,293.321472 620.157898,298.702332 616.589417,303.635468 
	C614.812927,306.091309 614.927124,307.832703 617.179688,310.052612 
	C637.625000,330.201813 651.635010,354.327728 659.419983,381.800781 
	C663.747559,397.072479 666.277527,412.849091 669.834961,428.348267 
	C670.382507,430.733673 671.604797,433.399384 673.366577,434.995392 
	C680.875061,441.797394 689.053101,447.883362 696.338501,454.903442 
	C709.308838,467.401337 720.541931,481.272766 728.026794,497.924164 
	C734.777588,512.942383 739.492554,528.386047 738.731079,545.027649 
	C737.777466,565.867371 729.935364,584.039673 716.468750,599.805725 
	C699.291870,619.915771 677.161865,632.460693 652.912781,642.221130 
	C635.439514,649.254272 617.474365,654.265442 599.170410,658.109985 
	C586.874146,660.692688 574.297852,661.919800 561.875549,663.930481 
	C538.191956,667.764099 514.292114,668.718323 490.385437,668.820068 
	C473.996582,668.889832 457.603607,667.709106 441.210205,667.154846 
	C435.052155,666.946655 428.836761,667.397095 422.735992,666.733643 
	C406.751312,664.995422 390.686401,663.507507 374.898499,660.592712 
	C360.760284,657.982422 346.751312,654.225403 333.034454,649.873718 
	C305.538696,641.150940 280.006165,628.724487 260.454742,606.601562 
	C255.967621,601.524231 252.239944,595.775818 247.938965,590.050049 
M551.769043,139.019974 
	C541.811890,128.973679 520.086182,128.489792 509.105164,136.669113 
	C499.251068,144.009064 495.038239,154.448822 494.126404,165.846466 
	C492.935028,180.738525 492.916779,195.761749 493.152679,210.716583 
	C493.293304,219.634399 494.787048,228.542847 495.976715,237.414734 
	C496.104736,238.369339 498.643951,240.019104 499.426697,239.713287 
	C509.764465,235.674683 520.407227,234.321991 531.492249,233.730179 
	C544.876648,233.015625 557.650391,234.712677 570.031555,239.283295 
	C577.766052,242.138550 585.125854,246.008820 592.866150,250.044266 
	C593.335938,250.500336 593.778687,250.988770 594.279541,251.407684 
	C602.841370,258.568024 610.827393,266.357666 616.086304,276.267120 
	C618.183655,280.218994 620.373108,280.845764 623.974304,279.622375 
	C638.954895,274.533173 653.465271,268.374817 666.526978,259.338928 
	C679.103333,250.638824 691.377075,241.651855 699.748108,228.250793 
	C704.307678,220.951324 705.704590,214.084106 699.711914,207.527328 
	C694.278442,201.582321 688.063538,196.334808 682.024658,190.969345 
	C680.018921,189.187241 678.478027,187.984070 679.780212,184.803314 
	C682.132324,179.058167 684.538086,173.199631 685.756226,167.153656 
	C688.321228,154.423004 686.675476,142.325485 677.712097,131.337341 
	C671.404602,124.471626 663.450256,120.802750 654.401978,119.099693 
	C635.534485,115.548492 617.489075,118.126213 600.380615,126.630905 
	C587.948364,132.811020 577.197388,141.273117 568.173157,151.915924 
	C567.054199,153.235596 564.932312,153.704941 563.125061,153.927551 
	C559.453918,149.145599 555.782715,144.363647 551.769043,139.019974 
M666.282349,429.008820 
	C663.928162,396.018829 654.655334,365.310944 636.056946,336.979736 
	C615.390747,306.451691 588.908569,284.177338 551.832031,276.168579 
	C528.367981,271.100189 504.934479,269.339233 481.264801,273.873749 
	C463.856018,277.208832 446.237061,279.889526 429.204651,284.631989 
	C408.888824,290.288727 389.389618,298.472015 370.885345,308.859802 
	C348.759735,321.280548 328.110138,335.724792 309.546204,353.022217 
	C295.513458,366.097626 282.975586,380.559540 272.266876,396.481750 
	C260.148743,414.499573 249.728653,433.525543 244.036987,454.573059 
	C240.153473,468.934113 237.639816,483.691620 235.059998,498.367920 
	C233.802658,505.520905 233.234772,512.904480 233.376724,520.163696 
	C233.522049,527.595947 235.092926,534.988586 235.734177,542.424927 
	C238.589035,575.531555 253.692215,601.923340 280.205261,621.474426 
	C302.904938,638.213318 329.144318,647.668884 356.293793,653.958801 
	C373.677399,657.986084 391.553070,660.251587 409.333405,662.105896 
	C428.636169,664.118896 448.069580,665.306091 467.472931,665.803467 
	C485.927795,666.276489 504.430267,665.721069 522.887451,664.996887 
	C535.970093,664.483643 549.171753,663.862549 562.036865,661.645386 
	C583.911865,657.875366 605.770691,653.614319 627.255676,648.081665 
	C653.006714,641.450439 677.094360,630.638062 698.208374,614.020203 
	C712.717285,602.600891 724.016113,588.718628 730.558411,571.260681 
	C741.024353,543.332275 735.911072,516.894287 722.104614,491.692047 
	C710.084412,469.750488 692.692078,452.466431 672.708984,437.620972 
	C670.110718,435.690704 668.431641,432.523132 666.282349,429.008820 
z"/>
<path fill="#FF9702" opacity="1.000000" stroke="none" 
	d="
M666.326782,429.928680 
	C668.431641,432.523132 670.110718,435.690704 672.708984,437.620972 
	C692.692078,452.466431 710.084412,469.750488 722.104614,491.692047 
	C735.911072,516.894287 741.024353,543.332275 730.558411,571.260681 
	C724.016113,588.718628 712.717285,602.600891 698.208374,614.020203 
	C677.094360,630.638062 653.006714,641.450439 627.255676,648.081665 
	C605.770691,653.614319 583.911865,657.875366 562.036865,661.645386 
	C549.171753,663.862549 535.970093,664.483643 522.887451,664.996887 
	C504.430267,665.721069 485.927795,666.276489 467.472931,665.803467 
	C448.069580,665.306091 428.636169,664.118896 409.333405,662.105896 
	C391.553070,660.251587 373.677399,657.986084 356.293793,653.958801 
	C329.144318,647.668884 302.904938,638.213318 280.205261,621.474426 
	C253.692215,601.923340 238.589035,575.531555 235.734177,542.424927 
	C235.092926,534.988586 233.522049,527.595947 233.376724,520.163696 
	C233.234772,512.904480 233.802658,505.520905 235.059998,498.367920 
	C237.639816,483.691620 240.153473,468.934113 244.036987,454.573059 
	C249.728653,433.525543 260.148743,414.499573 272.266876,396.481750 
	C282.975586,380.559540 295.513458,366.097626 309.546204,353.022217 
	C328.110138,335.724792 348.759735,321.280548 370.885345,308.859802 
	C389.389618,298.472015 408.888824,290.288727 429.204651,284.631989 
	C446.237061,279.889526 463.856018,277.208832 481.264801,273.873749 
	C504.934479,269.339233 528.367981,271.100189 551.832031,276.168579 
	C588.908569,284.177338 615.390747,306.451691 635.937744,337.714539 
	C635.877380,342.176788 635.780823,345.914490 636.025513,349.629700 
	C636.643555,359.014343 636.433411,368.595245 638.351562,377.719818 
	C641.340088,391.935425 646.771729,405.518585 654.675842,417.787903 
	C657.657288,422.416016 662.391541,425.914978 666.326782,429.928680 
M513.173340,569.590149 
	C549.011780,549.955322 553.164062,507.327362 527.607117,479.136810 
	C519.120056,469.775238 508.032013,462.786316 498.279175,454.539948 
	C497.008728,453.465759 495.754730,451.230560 495.970825,449.748627 
	C496.688019,444.830261 497.616241,439.842529 499.300293,435.183899 
	C504.444336,420.953705 509.996246,406.871246 515.349365,392.716156 
	C516.735962,389.049530 519.250122,388.299683 521.742310,391.032928 
	C525.260193,394.891113 529.217834,398.895325 531.059570,403.592926 
	C533.239563,409.153595 533.115662,415.577850 534.508362,421.506042 
	C535.079895,423.938538 536.599365,427.580383 538.383240,428.054504 
	C547.361023,430.440521 556.554199,432.039154 565.701660,433.754578 
	C570.264038,434.610168 572.325073,432.252960 573.079285,427.843689 
	C575.076538,416.167389 572.881714,405.338257 567.084167,395.139313 
	C558.893799,380.730865 546.651917,370.725159 532.041260,363.482483 
	C528.072815,361.515289 527.444214,359.332062 528.534729,355.171570 
	C530.596436,347.305908 531.893555,339.239471 533.496338,331.254028 
	C534.083191,328.330231 533.084839,326.467316 530.025024,325.725677 
	C522.918640,324.003265 515.855835,322.099731 508.741943,320.410034 
	C504.796967,319.473022 502.416748,321.145874 501.428833,325.144684 
	C499.714264,332.084900 497.684418,338.949066 496.059418,345.908752 
	C495.248016,349.383911 493.496429,350.487183 490.030914,350.077393 
	C471.810913,347.922852 455.047882,352.270020 439.513123,361.776703 
	C411.010254,379.219360 403.989777,416.256378 423.771912,443.015076 
	C431.427856,453.371033 440.944092,461.597382 451.298218,468.877899 
	C455.285706,471.681671 455.482056,474.362488 454.574677,478.532104 
	C450.544189,497.053711 446.782440,515.634094 442.973938,534.203552 
	C442.067780,538.621887 440.745850,539.275452 436.910767,536.737427 
	C427.873383,530.756348 422.893311,522.316345 421.745148,511.550354 
	C421.128052,505.764160 420.377930,499.992249 419.692932,494.213287 
	C419.303680,490.929688 417.415924,488.892242 414.184540,488.801514 
	C405.531921,488.558655 396.868256,488.404907 388.216705,488.585663 
	C384.983154,488.653198 382.629211,490.522797 382.466492,494.271423 
	C381.682373,512.333496 385.814911,528.880310 397.249908,543.266418 
	C406.385376,554.759460 418.110443,562.710266 431.506927,568.298767 
	C435.194275,569.836975 436.641144,571.718384 435.650055,575.871887 
	C434.030884,582.657471 433.104095,589.605408 431.639038,596.431946 
	C430.843109,600.140564 431.434906,602.586548 435.574951,603.446167 
	C443.054443,604.998962 450.504669,606.693115 457.965393,608.335938 
	C461.675964,609.153076 463.730194,607.456665 464.431976,603.946533 
	C465.670410,597.752380 467.165619,591.579712 467.883240,585.321228 
	C468.411072,580.717529 469.902618,579.002869 474.880768,578.590271 
	C487.777863,577.521423 500.817047,576.457275 513.173340,569.590149 
z"/>
<path fill="#FF9001" opacity="1.000000" stroke="none" 
	d="
M592.653748,249.423615 
	C585.125854,246.008820 577.766052,242.138550 570.031555,239.283295 
	C557.650391,234.712677 544.876648,233.015625 531.492249,233.730179 
	C520.407227,234.321991 509.764465,235.674683 499.426697,239.713287 
	C498.643951,240.019104 496.104736,238.369339 495.976715,237.414734 
	C494.787048,228.542847 493.293304,219.634399 493.152679,210.716583 
	C492.916779,195.761749 492.935028,180.738525 494.126404,165.846466 
	C495.038239,154.448822 499.251068,144.009064 509.105164,136.669113 
	C520.086182,128.489792 541.811890,128.973679 551.908569,139.711609 
	C548.798828,147.718353 545.140808,154.883545 542.390320,162.381607 
	C537.565979,175.533203 536.183350,189.280472 537.127991,203.213989 
	C537.236206,204.811096 538.929993,207.441757 540.088623,207.555496 
	C541.768188,207.720367 544.023132,206.391129 545.295166,205.016663 
	C546.395386,203.827881 546.559570,201.709824 546.978333,199.964340 
	C548.782715,192.443069 549.856445,184.663818 552.476624,177.443176 
	C555.340515,169.551254 559.615295,162.171341 563.275208,154.568298 
	C564.932312,153.704941 567.054199,153.235596 568.173157,151.915924 
	C577.197388,141.273117 587.948364,132.811020 600.380615,126.630905 
	C617.489075,118.126213 635.534485,115.548492 654.401978,119.099693 
	C663.450256,120.802750 671.404602,124.471626 677.414551,131.683701 
	C676.080811,134.887314 674.481140,137.671768 674.100952,140.613785 
	C671.864746,157.918518 665.713440,173.848312 656.720886,188.577637 
	C652.366089,195.710617 646.682068,202.084427 641.221191,208.478622 
	C630.554199,220.968811 618.700378,232.122894 604.383362,240.504898 
	C600.175293,242.968506 596.547485,246.423157 592.653748,249.423615 
z"/>
<path fill="#F47201" opacity="1.000000" stroke="none" 
	d="
M592.759949,249.733948 
	C596.547485,246.423157 600.175293,242.968506 604.383362,240.504898 
	C618.700378,232.122894 630.554199,220.968811 641.221191,208.478622 
	C646.682068,202.084427 652.366089,195.710617 656.720886,188.577637 
	C665.713440,173.848312 671.864746,157.918518 674.100952,140.613785 
	C674.481140,137.671768 676.080811,134.887314 677.507935,132.004791 
	C686.675476,142.325485 688.321228,154.423004 685.756226,167.153656 
	C684.538086,173.199631 682.132324,179.058167 679.780212,184.803314 
	C678.478027,187.984070 680.018921,189.187241 682.024658,190.969345 
	C688.063538,196.334808 694.278442,201.582321 699.711914,207.527328 
	C705.704590,214.084106 704.307678,220.951324 699.748108,228.250793 
	C691.377075,241.651855 679.103333,250.638824 666.526978,259.338928 
	C653.465271,268.374817 638.954895,274.533173 623.974304,279.622375 
	C620.373108,280.845764 618.183655,280.218994 616.086304,276.267120 
	C610.827393,266.357666 602.841370,258.568024 594.279541,251.407684 
	C593.778687,250.988770 593.335938,250.500336 592.759949,249.733948 
z"/>
<path fill="#F47504" opacity="1.000000" stroke="none" 
	d="
M666.304565,429.468750 
	C662.391541,425.914978 657.657288,422.416016 654.675842,417.787903 
	C646.771729,405.518585 641.340088,391.935425 638.351562,377.719818 
	C636.433411,368.595245 636.643555,359.014343 636.025513,349.629700 
	C635.780823,345.914490 635.877380,342.176788 635.982788,338.049377 
	C654.655334,365.310944 663.928162,396.018829 666.304565,429.468750 
z"/>
<path fill="#F57400" opacity="1.000000" stroke="none" 
	d="
M563.200134,154.247925 
	C559.615295,162.171341 555.340515,169.551254 552.476624,177.443176 
	C549.856445,184.663818 548.782715,192.443069 546.978333,199.964340 
	C546.559570,201.709824 546.395386,203.827881 545.295166,205.016663 
	C544.023132,206.391129 541.768188,207.720367 540.088623,207.555496 
	C538.929993,207.441757 537.236206,204.811096 537.127991,203.213989 
	C536.183350,189.280472 537.565979,175.533203 542.390320,162.381607 
	C545.140808,154.883545 548.798828,147.718353 552.079834,139.992477 
	C555.782715,144.363647 559.453918,149.145599 563.200134,154.247925 
z"/>
<path fill="#FFFCF7" opacity="1.000000" stroke="none" 
	d="
M512.844604,569.760864 
	C500.817047,576.457275 487.777863,577.521423 474.880768,578.590271 
	C469.902618,579.002869 468.411072,580.717529 467.883240,585.321228 
	C467.165619,591.579712 465.670410,597.752380 464.431976,603.946533 
	C463.730194,607.456665 461.675964,609.153076 457.965393,608.335938 
	C450.504669,606.693115 443.054443,604.998962 435.574951,603.446167 
	C431.434906,602.586548 430.843109,600.140564 431.639038,596.431946 
	C433.104095,589.605408 434.030884,582.657471 435.650055,575.871887 
	C436.641144,571.718384 435.194275,569.836975 431.506927,568.298767 
	C418.110443,562.710266 406.385376,554.759460 397.249908,543.266418 
	C385.814911,528.880310 381.682373,512.333496 382.466492,494.271423 
	C382.629211,490.522797 384.983154,488.653198 388.216705,488.585663 
	C396.868256,488.404907 405.531921,488.558655 414.184540,488.801514 
	C417.415924,488.892242 419.303680,490.929688 419.692932,494.213287 
	C420.377930,499.992249 421.128052,505.764160 421.745148,511.550354 
	C422.893311,522.316345 427.873383,530.756348 436.910767,536.737427 
	C440.745850,539.275452 442.067780,538.621887 442.973938,534.203552 
	C446.782440,515.634094 450.544189,497.053711 454.574677,478.532104 
	C455.482056,474.362488 455.285706,471.681671 451.298218,468.877899 
	C440.944092,461.597382 431.427856,453.371033 423.771912,443.015076 
	C403.989777,416.256378 411.010254,379.219360 439.513123,361.776703 
	C455.047882,352.270020 471.810913,347.922852 490.030914,350.077393 
	C493.496429,350.487183 495.248016,349.383911 496.059418,345.908752 
	C497.684418,338.949066 499.714264,332.084900 501.428833,325.144684 
	C502.416748,321.145874 504.796967,319.473022 508.741943,320.410034 
	C515.855835,322.099731 522.918640,324.003265 530.025024,325.725677 
	C533.084839,326.467316 534.083191,328.330231 533.496338,331.254028 
	C531.893555,339.239471 530.596436,347.305908 528.534729,355.171570 
	C527.444214,359.332062 528.072815,361.515289 532.041260,363.482483 
	C546.651917,370.725159 558.893799,380.730865 567.084167,395.139313 
	C572.881714,405.338257 575.076538,416.167389 573.079285,427.843689 
	C572.325073,432.252960 570.264038,434.610168 565.701660,433.754578 
	C556.554199,432.039154 547.361023,430.440521 538.383240,428.054504 
	C536.599365,427.580383 535.079895,423.938538 534.508362,421.506042 
	C533.115662,415.577850 533.239563,409.153595 531.059570,403.592926 
	C529.217834,398.895325 525.260193,394.891113 521.742310,391.032928 
	C519.250122,388.299683 516.735962,389.049530 515.349365,392.716156 
	C509.996246,406.871246 504.444336,420.953705 499.300293,435.183899 
	C497.616241,439.842529 496.688019,444.830261 495.970825,449.748627 
	C495.754730,451.230560 497.008728,453.465759 498.279175,454.539948 
	C508.032013,462.786316 519.120056,469.775238 527.607117,479.136810 
	C553.164062,507.327362 549.011780,549.955322 512.844604,569.760864 
M488.180115,544.853882 
	C489.520233,544.189819 490.874878,543.553467 492.198120,542.857300 
	C502.035828,537.681763 512.299683,519.740051 502.470459,505.938232 
	C498.637512,500.556183 492.951385,496.410919 487.774109,492.105469 
	C485.316284,490.061493 483.604370,491.466736 483.118652,494.608002 
	C482.409241,499.195984 481.400299,503.736816 480.592194,508.310638 
	C478.513611,520.075806 476.460266,531.845581 474.431061,543.619385 
	C473.908844,546.649414 474.915894,548.129639 478.262421,547.263672 
	C481.309357,546.475281 484.400513,545.857788 488.180115,544.853882 
M485.427551,382.868469 
	C486.404388,380.029938 485.742798,378.225708 482.401611,378.298004 
	C470.566925,378.553986 460.384033,382.156616 454.253662,393.095276 
	C447.986694,404.277679 449.278809,415.278900 456.376892,425.522125 
	C458.713318,428.893768 462.356598,431.359772 466.039093,434.842102 
	C467.306702,431.881195 468.091125,430.260773 468.706543,428.578522 
	C474.190033,413.589447 479.643707,398.589478 485.427551,382.868469 
z"/>
<path fill="#FF9B0F" opacity="1.000000" stroke="none" 
	d="
M487.826172,545.009399 
	C484.400513,545.857788 481.309357,546.475281 478.262421,547.263672 
	C474.915894,548.129639 473.908844,546.649414 474.431061,543.619385 
	C476.460266,531.845581 478.513611,520.075806 480.592194,508.310638 
	C481.400299,503.736816 482.409241,499.195984 483.118652,494.608002 
	C483.604370,491.466736 485.316284,490.061493 487.774109,492.105469 
	C492.951385,496.410919 498.637512,500.556183 502.470459,505.938232 
	C512.299683,519.740051 502.035828,537.681763 492.198120,542.857300 
	C490.874878,543.553467 489.520233,544.189819 487.826172,545.009399 
z"/>
<path fill="#FF9B11" opacity="1.000000" stroke="none" 
	d="
M485.266846,383.230591 
	C479.643707,398.589478 474.190033,413.589447 468.706543,428.578522 
	C468.091125,430.260773 467.306702,431.881195 466.039093,434.842102 
	C462.356598,431.359772 458.713318,428.893768 456.376892,425.522125 
	C449.278809,415.278900 447.986694,404.277679 454.253662,393.095276 
	C460.384033,382.156616 470.566925,378.553986 482.401611,378.298004 
	C485.742798,378.225708 486.404388,380.029938 485.266846,383.230591 
z"/>
</svg>