<svg version="1.1" id="Layer_1" xmlns="http://www.w3.org/2000/svg" xmlns:xlink="http://www.w3.org/1999/xlink" x="0px" y="0px"
	 width="100%" viewBox="0 0 975 807" enable-background="new 0 0 975 807" xml:space="preserve">
<path fill="#F8FBFF" opacity="1.000000" stroke="none" 
	d="
M556.000000,808.000000 
	C370.666656,808.000000 185.833328,808.000000 1.000000,808.000000 
	C1.000000,539.000000 1.000000,270.000000 1.000000,1.000000 
	C326.000000,1.000000 651.000000,1.000000 976.000000,1.000000 
	C976.000000,270.000000 976.000000,539.000000 976.000000,808.000000 
	C836.166687,808.000000 696.333313,808.000000 556.000000,808.000000 
M634.294556,122.697052 
	C634.294556,122.697052 634.462280,122.626740 634.206909,122.140907 
	C633.902039,121.946602 633.597168,121.752296 633.269043,121.709000 
	C633.269043,121.709000 633.393433,121.620293 633.067627,121.066139 
	C631.731201,119.980659 630.394775,118.895172 628.926758,117.351448 
	C628.722900,117.062660 628.445129,116.936531 627.765930,116.475456 
	C627.257263,116.171257 626.748657,115.867050 626.178894,115.772102 
	C626.178894,115.772102 626.395752,115.749680 626.112671,115.241920 
	C625.765015,115.075920 625.417358,114.909920 624.948914,114.299110 
	C624.741455,114.027908 624.468628,113.915627 623.769958,113.437187 
	C622.857544,112.921478 621.945068,112.405769 620.633667,111.277061 
	C616.271973,109.152672 611.910339,107.028290 607.134338,104.309090 
	C606.435242,104.154205 605.736084,103.999321 605.055542,103.949821 
	C605.055542,103.949821 605.155273,103.911118 604.700195,103.400307 
	C603.820312,103.194595 602.940430,102.988884 602.065674,102.866875 
	C602.065674,102.866875 602.133545,102.817513 601.609192,102.276871 
	C594.119202,101.575974 589.440369,96.356644 584.958435,91.301849 
	C577.324646,82.692314 567.754028,77.237762 557.085449,72.376534 
	C556.730591,72.287010 556.375793,72.197495 555.357788,71.785995 
	C547.567322,69.275673 539.776855,66.765350 531.351624,64.021736 
	C530.902832,64.040161 530.454102,64.058586 529.277283,63.755623 
	C522.554199,62.755100 515.831116,61.754578 508.435822,60.340557 
	C506.292877,60.262127 504.149902,60.183701 501.154999,59.924099 
	C499.132751,59.881184 497.110535,59.838268 494.319824,59.483631 
	C485.867615,59.612633 477.415405,59.741634 468.145874,59.692837 
	C466.761444,59.833355 465.377045,59.973869 463.126221,59.985920 
	C460.079742,60.275723 457.033234,60.565521 453.191833,60.714451 
	C452.125519,60.845940 451.059204,60.977432 449.203522,60.986053 
	C442.131470,61.981243 435.059387,62.976433 427.317963,63.882629 
	C426.876099,63.961407 426.434265,64.040184 425.296478,64.001022 
	C424.190002,64.317039 423.083496,64.633057 421.309662,64.876289 
	C420.870605,64.956375 420.431549,65.036453 419.173553,65.010078 
	C414.488953,65.997200 409.761108,66.815407 405.127686,68.002296 
	C389.649292,71.967224 374.157013,75.892532 358.763885,80.170692 
	C348.473511,83.030655 344.879059,92.855331 347.882721,99.655655 
	C348.184418,100.128487 348.486084,100.601318 348.903656,101.766388 
	C351.414642,105.558563 346.491089,105.671021 345.954773,107.960159 
	C345.954773,107.960159 345.913300,107.863998 345.285034,108.105927 
	C340.779968,112.710312 336.274933,117.314705 331.249207,122.117165 
	C330.817444,122.699570 330.385681,123.281975 329.360748,124.162514 
	C328.168182,125.749580 326.975616,127.336647 325.327728,129.046753 
	C325.046326,129.252197 324.923157,129.528244 324.396881,130.204971 
	C323.548187,131.452896 322.699524,132.700806 321.369354,134.109848 
	C321.249664,134.407883 321.129974,134.705933 320.492249,135.425461 
	C318.647400,138.279175 316.802551,141.132889 314.492371,144.272507 
	C314.300293,144.768829 314.108185,145.265152 313.306763,146.106644 
	C301.287201,165.681213 293.681854,186.882523 291.282623,209.689240 
	C290.265839,219.354858 291.074249,229.212479 290.935638,239.657242 
	C290.996490,240.107361 291.057343,240.557495 290.990723,241.807449 
	C292.633118,246.284592 294.275543,250.761749 295.930389,255.670761 
	C295.930389,255.670761 296.197052,256.010712 296.328888,256.643585 
	C297.506348,258.159363 298.683777,259.675171 299.910614,261.087219 
	C299.910614,261.087219 299.804871,261.132141 299.985474,261.735748 
	C300.642883,262.532806 301.300323,263.329834 302.011871,264.589417 
	C302.137360,264.922852 302.378204,265.090729 302.969543,265.740540 
	C303.951782,267.241699 304.934052,268.742859 305.896301,270.652069 
	C305.896301,270.652069 306.099091,271.006683 306.154938,271.745941 
	C308.420593,278.504486 310.686279,285.263031 312.888458,292.689362 
	C312.964294,293.128693 313.040131,293.568054 313.030792,294.836975 
	C314.029816,300.220642 315.028870,305.604340 315.924896,311.662659 
	C315.989807,312.110992 316.054718,312.559296 316.003876,313.825531 
	C316.289368,315.289703 316.607758,316.748352 316.854492,318.219025 
	C317.838226,324.083038 320.791321,325.709442 326.214569,323.250732 
	C327.553802,322.643616 328.755707,321.733704 330.525787,320.987610 
	C330.694336,320.987244 330.862915,320.986877 331.010590,321.925323 
	C331.298981,334.728546 331.689240,347.530487 331.848022,360.335297 
	C332.017395,373.995544 331.870209,387.659729 332.046021,401.319855 
	C332.180206,411.746033 334.625305,421.678802 339.044830,431.143311 
	C345.343475,444.632111 355.155457,455.457916 365.136047,466.973419 
	C365.424408,478.339508 365.712769,489.705566 365.189697,501.000824 
	C358.551025,499.021118 352.984100,500.475128 349.111237,506.426697 
	C344.685944,513.227173 340.470001,520.163879 335.930847,527.449219 
	C335.930847,527.449219 335.819122,527.905029 335.911377,527.936279 
	C335.911377,527.936279 335.882568,527.843201 335.325043,528.153809 
	C334.821869,529.081726 334.318726,530.009644 333.384369,531.071899 
	C333.111420,531.252136 332.966675,531.505676 332.166260,531.981750 
	C291.165375,541.643677 250.204620,551.481018 209.142044,560.873169 
	C194.591110,564.201355 182.444290,570.432617 174.844391,583.828735 
	C174.844391,583.828735 174.866669,583.820740 174.311646,584.123291 
	C174.117676,584.719177 173.923706,585.315002 173.866577,585.906738 
	C173.866577,585.906738 173.815323,585.779846 173.266891,586.097046 
	C173.077805,586.696411 172.888718,587.295715 172.839249,587.904968 
	C172.839249,587.904968 172.794830,587.772217 172.258759,588.114075 
	C172.111984,588.729370 171.965225,589.344604 171.926010,589.955261 
	C171.926010,589.955261 171.896194,589.851807 171.329407,590.247803 
	C171.135147,591.145386 170.940887,592.043030 170.876862,592.953247 
	C170.876862,592.953247 170.853424,592.824524 170.269913,593.274780 
	C169.898636,595.199585 169.527374,597.124329 168.981827,599.966187 
	C168.951111,635.951843 168.876343,671.937622 168.979019,707.922913 
	C168.986664,710.605774 170.265839,713.285034 170.941147,716.594849 
	C171.255524,717.084778 171.569901,717.574646 171.993561,718.492126 
	C171.993561,718.492126 172.209824,718.876892 172.281479,719.550293 
	C176.607498,726.620972 182.724167,730.949341 192.007065,731.956604 
	C385.475708,731.966064 578.944336,731.976013 772.412964,731.975525 
	C773.573120,731.975525 774.733215,731.830322 776.635864,731.760010 
	C777.426697,731.529114 778.217712,731.298950 779.008240,731.067139 
	C788.416138,728.308289 795.582520,720.109192 796.747498,710.950928 
	C796.771667,674.313354 796.795837,637.675781 796.953308,600.250671 
	C795.678589,596.444885 794.403870,592.639038 793.100952,588.942322 
	C793.100952,588.942322 793.213501,588.936951 793.116394,588.311584 
	C792.794922,587.809021 792.473450,587.306458 792.115234,586.926636 
	C792.115234,586.926636 792.243286,586.923523 792.137512,586.303040 
	C791.792297,585.817871 791.447083,585.332642 791.070496,584.948242 
	C791.070496,584.948242 791.175903,584.954346 791.051880,584.357178 
	C790.717834,583.876526 790.383728,583.395874 790.031067,582.960083 
	C790.031067,582.960083 790.075623,582.938232 789.875854,582.290161 
	C782.753601,572.081787 773.270935,565.179993 761.128479,562.257812 
	C749.075378,559.357056 736.954590,556.738464 724.872070,553.958679 
	C692.946899,546.613647 661.026245,539.248291 629.060425,531.948242 
	C629.060425,531.948242 629.131226,531.959351 628.938965,531.444336 
	C628.645752,531.240479 628.352600,531.036560 628.055786,530.964722 
	C628.055786,530.964722 628.186951,530.949524 628.066772,530.335999 
	C627.739075,529.847778 627.411377,529.359619 627.056824,528.956177 
	C627.056824,528.956177 627.142639,528.932983 627.031982,528.470154 
	C627.031982,528.470154 626.799500,528.054932 626.673218,527.386353 
	C622.373901,519.959351 618.150452,512.487061 613.753235,505.118439 
	C609.621216,498.194122 604.352722,496.662933 596.337952,499.469635 
	C596.225464,497.838623 595.929993,496.196259 596.030090,494.578400 
	C596.681396,484.053009 597.418579,473.532959 598.695251,462.686096 
	C602.067078,459.023987 605.627686,455.516357 608.774109,451.669861 
	C617.029907,441.576935 624.720154,430.814545 626.826294,417.778198 
	C629.379883,401.972290 630.608582,385.930786 631.907166,369.950256 
	C632.994690,356.567261 633.282410,343.120880 634.090210,329.712524 
	C634.326660,325.787415 635.130676,321.896484 636.145935,318.548370 
	C637.070435,319.500702 637.882996,320.606567 638.939880,321.377533 
	C642.588928,324.039520 647.898071,321.725128 648.365417,317.295654 
	C649.348267,307.979248 649.693665,298.547913 651.406250,289.369995 
	C653.003479,280.809967 654.750793,271.841705 658.740906,264.269836 
	C664.289917,253.739532 667.238098,242.851273 666.801819,231.387604 
	C666.161255,214.556549 664.197815,197.775848 662.916138,180.163040 
	C660.297302,171.070740 657.678406,161.978455 655.024048,152.955612 
	C655.024048,152.955612 655.101562,152.965027 655.029602,152.351074 
	C654.716736,151.845840 654.403931,151.340622 654.057190,150.931122 
	C654.057190,150.931122 654.158325,150.940369 654.074768,150.259949 
	C653.435120,149.100067 652.795471,147.940186 652.117676,146.908401 
	C652.117676,146.908401 652.251221,146.902832 652.119873,146.287643 
	C651.788940,145.793396 651.458008,145.299164 651.094055,144.924255 
	C651.094055,144.924255 651.217834,144.922028 651.074829,144.327347 
	C650.738525,143.843323 650.402222,143.359283 650.024658,142.948547 
	C650.024658,142.948547 650.108521,142.942383 649.979248,142.281525 
	C649.005432,140.818436 648.031677,139.355362 647.014221,137.962280 
	C647.014221,137.962280 647.095886,137.950668 646.935425,137.343643 
	C646.299561,136.529465 645.663635,135.715286 644.976929,134.434113 
	C644.840149,134.107605 644.594849,133.937851 644.024475,133.328552 
	C643.357422,132.524597 642.690308,131.720642 641.898499,130.372620 
	C641.360535,129.885742 640.822571,129.398865 640.004272,128.304245 
	C638.500671,126.719765 636.997070,125.135284 635.311768,123.481216 
	C635.311768,123.481216 635.475830,123.585495 635.222717,123.115051 
	C634.931519,122.917870 634.640259,122.720688 634.294556,122.697052 
z"/>
<path fill="#F98706" opacity="1.000000" stroke="none" 
	d="
M174.829391,583.802795 
	C182.444290,570.432617 194.591110,564.201355 209.142044,560.873169 
	C250.204620,551.481018 291.165375,541.643677 332.575256,532.370422 
	C333.265137,536.043152 332.797546,539.625366 333.964966,542.556274 
	C337.712372,551.964478 342.026276,561.149048 346.190308,570.388977 
	C356.977203,594.324768 367.832336,618.229919 378.591095,642.178345 
	C381.956879,649.670471 391.072510,652.739380 398.376862,648.797974 
	C424.364563,634.774780 450.393982,620.828918 476.357361,606.761108 
	C477.797668,605.980652 478.785431,604.364990 480.348694,603.215454 
	C481.797241,602.801086 482.880981,602.309448 483.979736,602.213318 
	C485.324280,604.235779 486.324982,606.480835 488.035858,607.390991 
	C500.637817,614.095093 513.406006,620.485596 526.073914,627.067139 
	C538.884338,633.722717 551.825989,640.157959 564.356628,647.309082 
	C573.408752,652.475037 581.562317,648.411438 585.444824,639.326660 
	C597.377747,611.404541 609.915466,583.741455 621.967834,555.869446 
	C625.278503,548.213135 630.326721,540.946777 629.103821,531.891052 
	C661.026245,539.248291 692.946899,546.613647 724.872070,553.958679 
	C736.954590,556.738464 749.075378,559.357056 761.128479,562.257812 
	C773.270935,565.179993 782.753601,572.081787 789.589233,582.638367 
	C787.338501,584.021057 785.083191,584.722717 783.457764,586.144531 
	C773.594482,594.771912 763.842285,603.527527 754.115051,612.309082 
	C740.076843,624.982544 725.586670,637.211609 712.255066,650.592529 
	C702.834595,660.047852 697.385498,671.851746 697.882935,686.000366 
	C698.409485,700.973999 698.010010,715.980225 697.544800,730.983521 
	C553.379944,730.985718 409.685303,730.976440 265.994751,730.500610 
	C265.999237,716.226746 265.445892,702.391541 266.141815,688.619324 
	C266.989746,671.837830 260.018005,658.692932 248.748505,647.377625 
	C241.271332,639.870056 233.257401,632.885498 225.326706,625.843628 
	C211.708115,613.751465 198.028214,601.726135 184.225800,589.844971 
	C181.430939,587.439148 177.978607,585.796997 174.829391,583.802795 
z"/>
<path fill="#FFDDBF" opacity="1.000000" stroke="none" 
	d="
M635.674561,317.989899 
	C635.130676,321.896484 634.326660,325.787415 634.090210,329.712524 
	C633.282410,343.120880 632.994690,356.567261 631.907166,369.950256 
	C630.608582,385.930786 629.379883,401.972290 626.826294,417.778198 
	C624.720154,430.814545 617.029907,441.576935 608.774109,451.669861 
	C605.627686,455.516357 602.067078,459.023987 598.093628,462.965668 
	C595.660950,465.146362 593.829773,467.047485 591.777710,469.068542 
	C591.364624,469.457611 591.172546,469.726715 590.991455,469.998840 
	C591.002441,470.001831 590.995483,469.980286 590.771973,470.087830 
	C590.265930,470.393524 590.076782,470.658386 589.991821,470.994324 
	C590.002686,470.998688 589.991516,470.977020 589.691772,470.998413 
	C588.921570,471.342987 588.451050,471.666199 587.990234,471.994690 
	C588.000000,472.000000 587.989868,471.979706 587.725830,472.110291 
	C586.946106,472.822235 586.430359,473.403595 585.715820,474.086365 
	C585.269653,474.368958 585.095642,474.604340 584.649353,474.959320 
	C583.604919,475.454010 582.864441,475.828156 582.213501,476.320709 
	C560.991821,492.379181 538.267761,505.516479 512.007874,511.373352 
	C506.180389,512.673096 500.030640,512.527893 493.622314,513.025391 
	C483.399994,511.541382 474.412872,507.827789 465.858887,502.938385 
	C452.906342,495.534729 441.074829,486.675842 432.338440,474.453217 
	C416.340027,452.070648 408.171509,426.936462 408.054718,399.426636 
	C407.859528,353.442627 408.305481,307.454041 407.836548,261.473999 
	C407.669952,245.139252 420.328430,227.992630 436.866699,225.279572 
	C447.584381,223.521332 458.748474,224.680954 469.669647,223.918549 
	C484.341614,222.894287 499.106903,222.081329 513.577576,219.657806 
	C524.991028,217.746323 536.289062,214.235413 546.355774,207.582016 
	C545.371460,206.989609 544.685730,206.576920 544.384705,206.061401 
	C547.325256,205.288391 549.954895,204.819305 552.424133,203.913132 
	C562.977661,200.040192 574.191040,197.597946 583.053345,190.026978 
	C583.020874,190.002884 583.044861,190.080048 583.385620,189.986801 
	C584.811340,189.617828 585.896301,189.342102 587.102783,189.381836 
	C592.727417,195.144913 598.431946,200.405899 603.689941,206.080658 
	C613.366516,216.524170 617.596069,229.658234 621.130920,243.428696 
	C621.386963,244.903488 621.800964,245.970352 622.019409,247.075851 
	C623.664246,255.397461 625.270569,263.726654 626.895752,272.503296 
	C627.341858,277.647858 627.781067,282.342590 628.159241,287.456055 
	C629.355713,294.642456 630.613281,301.410126 631.864624,308.107300 
	C631.858398,308.036743 631.723755,308.080719 631.781982,308.463074 
	C632.862000,311.112244 633.883789,313.379089 634.890625,315.900970 
	C635.141968,316.767273 635.408264,317.378601 635.674561,317.989899 
z"/>
<path fill="#1B1B1B" opacity="1.000000" stroke="none" 
	d="
M324.958191,129.874893 
	C324.923157,129.528244 325.046326,129.252197 325.929230,128.985199 
	C327.671783,127.237221 328.812866,125.550804 329.953918,123.864380 
	C330.385681,123.281975 330.817444,122.699570 331.869629,122.023689 
	C336.964447,117.241478 341.438873,112.552742 345.913300,107.864006 
	C345.913300,107.863998 345.954773,107.960159 346.292603,107.961922 
	C349.990814,107.357124 353.351135,106.750565 356.711487,106.143997 
	C356.905518,105.710190 357.099548,105.276375 357.293579,104.842560 
	C354.458313,103.586426 351.623047,102.330292 348.787781,101.074158 
	C348.486084,100.601318 348.184418,100.128487 348.198822,99.089355 
	C348.676910,97.055679 348.933746,95.591530 348.983765,94.120361 
	C349.157837,88.998337 353.029144,83.492523 357.962616,82.197701 
	C375.233521,77.664879 392.562744,73.354218 409.832275,68.816406 
	C413.303436,67.904320 416.610016,66.366089 419.992493,65.116531 
	C420.431549,65.036453 420.870605,64.956375 421.850098,65.188133 
	C423.591156,65.039635 424.791779,64.579300 425.992401,64.118965 
	C426.434265,64.040184 426.876099,63.961407 427.909302,64.222397 
	C435.334381,63.946129 442.170593,63.354198 448.995178,62.649940 
	C449.376678,62.610569 449.662506,61.643955 449.992859,61.108917 
	C451.059204,60.977432 452.125519,60.845940 453.638245,61.143238 
	C457.593964,62.490715 461.078522,63.241329 463.992615,60.114380 
	C465.377045,59.973869 466.761444,59.833355 468.827515,60.107807 
	C476.536957,60.686123 483.564392,60.924400 490.592712,60.952789 
	C492.089630,60.958836 493.589691,60.201172 495.088287,59.795357 
	C497.110535,59.838268 499.132751,59.881184 501.662262,60.386169 
	C504.482361,60.816841 506.795227,60.785446 509.108063,60.754051 
	C515.831116,61.754578 522.554199,62.755100 529.669434,64.200363 
	C530.360657,64.965813 530.659729,65.286522 530.958801,65.607239 
	C531.301331,65.156502 531.643860,64.705772 531.986389,64.255035 
	C539.776855,66.765350 547.567322,69.275673 555.856201,72.160408 
	C556.693665,72.648659 557.032776,72.762497 557.371826,72.876343 
	C567.754028,77.237762 577.324646,82.692314 584.958435,91.301849 
	C589.440369,96.356644 594.119202,101.575974 601.470459,102.594864 
	C599.980591,103.110092 598.629517,103.307320 596.540405,103.612267 
	C606.124390,117.384247 609.347717,132.128006 607.907776,147.757339 
	C606.446167,163.621796 599.492249,176.870132 586.640869,187.039001 
	C585.209290,188.074600 584.127075,189.077316 583.044861,190.080048 
	C583.044861,190.080048 583.020874,190.002884 582.671509,190.018387 
	C579.812256,191.210022 577.310974,192.405258 574.790894,193.559158 
	C559.392212,200.609863 543.578796,206.155884 526.454041,207.086853 
	C525.607666,207.132858 524.820496,208.265854 523.598999,208.964569 
	C521.817810,209.075119 520.443420,209.113861 518.806335,208.832626 
	C515.279724,208.358505 511.733765,206.219635 508.595917,209.944672 
	C506.781128,209.978073 505.380768,209.934540 503.681122,209.615723 
	C499.592773,209.532547 495.803650,209.724625 491.573273,209.987396 
	C488.751129,209.994888 486.370300,209.931671 483.892761,209.481659 
	C478.201202,209.041901 472.606262,208.988937 466.584076,208.999481 
	C464.433228,208.990524 462.709625,208.918045 460.938324,208.529160 
	C459.932404,208.409576 458.974182,208.606384 457.566284,208.871857 
	C454.081818,208.911346 451.047028,208.882202 448.016052,208.901566 
	C448.019806,208.950073 448.114410,208.927338 447.977844,208.631302 
	C447.222534,208.159653 446.603851,207.984024 445.876495,207.428467 
	C438.184570,206.998367 430.601318,206.948181 422.591492,206.970520 
	C420.438019,206.998306 418.711060,206.953568 416.681458,206.627655 
	C412.908234,206.227631 409.429199,205.924332 405.971344,206.082581 
	C404.626373,206.144135 403.329071,207.246765 401.712036,207.953003 
	C401.003571,208.041733 400.593109,208.052643 399.708801,208.076111 
	C398.920685,208.121338 398.606415,208.153992 398.335999,208.275543 
	C398.379883,208.364471 398.202393,208.452942 397.999390,208.119324 
	C391.714325,207.868790 385.809692,208.538147 380.746552,212.958954 
	C380.316620,213.368027 380.151550,213.682251 379.732361,214.112946 
	C379.309387,214.308182 379.140503,214.386917 378.688293,214.441879 
	C377.697418,214.642822 376.989807,214.867538 376.026215,215.155304 
	C375.506042,215.440598 375.241852,215.662827 374.872192,216.008636 
	C374.766724,216.132217 374.550415,216.374725 374.551025,216.426270 
	C374.551605,216.477829 374.455292,216.441010 374.178680,216.591034 
	C372.945526,217.163803 371.989014,217.586548 370.851379,218.101440 
	C370.430420,218.326965 370.223999,218.500244 369.884338,218.875183 
	C369.717682,219.036972 369.256409,219.092178 368.860596,219.070312 
	C367.681824,219.815659 366.898834,220.582886 366.000610,221.586243 
	C365.543091,222.200668 365.200775,222.578979 364.659424,222.977829 
	C364.460388,222.998367 364.060852,223.020721 363.699829,223.021667 
	C362.544403,223.932175 361.750000,224.841736 360.852844,225.978378 
	C360.750153,226.205460 360.546967,226.660660 360.618866,226.699890 
	C360.690765,226.739120 360.653473,226.579605 360.415283,226.697281 
	C359.976074,227.100586 359.775055,227.386200 359.655334,227.677399 
	C359.736664,227.682999 359.639160,227.552292 359.430573,227.649536 
	C359.016632,227.998764 358.752228,228.140961 358.040436,228.150208 
	C356.779449,229.451294 355.906769,230.775528 355.013306,232.318649 
	C354.992554,232.537521 354.920166,232.971252 354.955841,232.979828 
	C354.991516,232.988388 354.954956,232.924759 354.695923,233.061478 
	C354.142181,233.701324 353.847412,234.204453 353.629639,234.742111 
	C353.706665,234.776642 353.670288,234.611801 353.436951,234.756058 
	C353.060059,235.233719 352.916473,235.567108 352.827515,235.905396 
	C352.882141,235.910278 352.848389,235.805847 352.594391,235.935638 
	C352.045135,236.552505 351.749878,237.039581 351.522827,237.513351 
	C351.591034,237.500046 351.479462,237.582962 351.289154,237.755112 
	C350.983917,238.248596 350.868988,238.569916 350.812378,238.897888 
	C350.870667,238.904526 350.836639,238.792206 350.576294,238.941956 
	C350.060577,239.635147 349.805237,240.178589 349.619537,240.747452 
	C349.689178,240.772873 349.611481,240.646591 349.407562,240.804260 
	C348.887695,241.337067 348.571777,241.712234 347.935364,242.086716 
	C347.469025,242.750229 347.323120,243.414413 347.124756,244.402344 
	C346.668182,245.491913 346.264069,246.257751 345.659302,247.187866 
	C345.339813,247.673386 345.220917,247.994644 345.118408,248.505447 
	C345.134796,248.694992 344.916260,249.006485 344.547760,249.081238 
	C343.815674,250.527863 343.452087,251.899734 343.107483,253.471497 
	C343.126404,253.671356 342.917725,254.014404 342.698486,254.165985 
	C342.352814,254.645493 342.226440,254.973434 342.139923,255.591919 
	C342.094910,256.256866 342.010010,256.631256 341.616547,257.044128 
	C341.321350,257.775421 341.334686,258.468292 341.304993,259.478363 
	C341.128357,260.200317 340.994751,260.605011 340.567749,261.047211 
	C340.239685,261.747772 340.205078,262.410828 340.179047,263.403839 
	C340.079712,264.159424 339.971771,264.585083 339.545258,265.057861 
	C339.166840,266.074738 339.106964,267.044434 339.086243,268.350769 
	C339.034790,269.128357 338.944153,269.569275 338.520081,270.071289 
	C338.132416,271.424042 338.078247,272.715729 338.067108,274.343079 
	C338.034393,275.121948 337.958618,275.565186 337.513733,276.092224 
	C337.069519,278.779205 336.994415,281.382385 336.981812,284.322235 
	C336.986481,285.109375 336.928619,285.559906 336.581055,286.042847 
	C336.233368,286.732758 336.175385,287.390289 336.068298,288.466675 
	C336.084412,290.567474 336.149628,292.249390 335.888153,294.176147 
	C335.681824,297.276123 335.802216,300.131256 335.989960,303.361938 
	C335.995697,304.495087 335.934052,305.252655 335.525513,306.077728 
	C335.222015,307.477722 335.265442,308.810242 335.288391,310.490845 
	C334.846741,311.892029 334.425507,312.945160 333.648407,314.052551 
	C332.880310,315.120514 332.468079,316.134247 332.029968,317.442139 
	C331.950562,318.126221 331.897125,318.516083 331.892029,318.927368 
	C331.940369,318.948730 331.895477,318.852997 331.649597,318.961365 
	C331.002563,319.402008 330.601379,319.734253 329.807129,320.073975 
	C328.649628,320.369720 327.876831,320.637665 327.122101,320.949402 
	C321.432495,323.299408 319.396973,322.226562 318.010437,316.385803 
	C317.723785,315.178162 316.767334,314.129547 316.119629,313.007629 
	C316.054718,312.559296 315.989807,312.110992 316.261627,311.058960 
	C316.327271,305.588165 316.157898,300.710876 315.671539,295.865417 
	C315.601471,295.167572 314.005646,294.622925 313.115936,294.007385 
	C313.040131,293.568054 312.964294,293.128693 313.207092,292.125580 
	C313.290894,289.342438 313.498566,286.955139 312.732849,284.937225 
	C310.909332,280.131683 311.184631,274.262939 306.099091,271.006683 
	C306.099091,271.006683 305.896301,270.652069 305.927673,270.054565 
	C304.884155,268.002380 303.809296,266.547699 302.734436,265.093048 
	C302.378204,265.090729 302.137360,264.922852 301.987854,263.982239 
	C301.244202,262.627411 300.524536,261.879761 299.804871,261.132141 
	C299.804871,261.132141 299.910614,261.087219 299.926849,260.757111 
	C298.694397,258.954895 297.445740,257.482819 296.197052,256.010712 
	C296.197052,256.010712 295.930389,255.670761 295.950012,255.040405 
	C294.352478,249.942551 292.735321,245.475082 291.118164,241.007614 
	C291.057343,240.557495 290.996490,240.107361 291.376678,239.236282 
	C292.166382,236.650162 292.762695,234.491592 292.820374,232.318710 
	C293.055573,223.453995 292.214935,214.456528 293.442627,205.743561 
	C296.180847,186.310226 302.260681,167.849197 312.477112,150.899719 
	C313.362183,149.431320 313.455200,147.485535 313.916077,145.761490 
	C314.108185,145.265152 314.300293,144.768829 315.078735,144.107391 
	C317.446838,140.962845 319.228577,137.983414 321.010315,135.003967 
	C321.129974,134.705933 321.249664,134.407883 321.984222,134.016357 
	C323.385437,132.573547 324.171814,131.224213 324.958191,129.874893 
z"/>
<path fill="#FCD3AA" opacity="1.000000" stroke="none" 
	d="
M378.971588,214.465652 
	C379.140503,214.386917 379.309387,214.308182 380.150940,214.121201 
	C382.596527,213.709381 384.365509,213.380737 386.142914,213.106476 
	C395.051117,211.731796 403.921722,209.706589 412.880920,209.170959 
	C424.588409,208.470993 436.366638,208.953537 448.114410,208.927338 
	C448.114410,208.927338 448.019806,208.950073 448.282837,209.230865 
	C453.173035,209.711517 457.820007,209.705048 462.423920,210.146973 
	C482.422089,212.066528 502.430206,212.738052 522.467346,210.928360 
	C523.352051,210.848465 524.147827,209.784164 525.436401,209.101089 
	C531.925171,208.070572 537.962585,207.117401 544.000000,206.164230 
	C544.685730,206.576920 545.371460,206.989609 546.355774,207.582016 
	C536.289062,214.235413 524.991028,217.746323 513.577576,219.657806 
	C499.106903,222.081329 484.341614,222.894287 469.669647,223.918549 
	C458.748474,224.680954 447.584381,223.521332 436.866699,225.279572 
	C420.328430,227.992630 407.669952,245.139252 407.836548,261.473999 
	C408.305481,307.454041 407.859528,353.442627 408.054718,399.426636 
	C408.171509,426.936462 416.340027,452.070648 432.338440,474.453217 
	C441.074829,486.675842 452.906342,495.534729 465.858887,502.938385 
	C474.412872,507.827789 483.399994,511.541382 493.516907,513.414185 
	C493.306915,514.190674 492.784454,514.888672 492.285461,514.872253 
	C479.866821,514.464478 467.256989,515.200439 455.073090,513.265259 
	C427.096069,508.821686 402.970703,495.381683 380.766724,478.265625 
	C375.561646,474.253204 370.442780,470.128906 365.284241,466.056122 
	C355.155457,455.457916 345.343475,444.632111 339.044830,431.143311 
	C334.625305,421.678802 332.180206,411.746033 332.046021,401.319855 
	C331.870209,387.659729 332.017395,373.995544 331.848022,360.335297 
	C331.689240,347.530487 331.298981,334.728546 331.272583,321.275879 
	C331.654907,320.035309 331.775208,319.444153 331.895508,318.852997 
	C331.895477,318.852997 331.940369,318.948730 332.270721,318.908020 
	C332.981842,317.817627 333.362610,316.768005 333.764648,315.717651 
	C333.785919,315.716919 333.739502,315.704559 334.106659,315.659851 
	C335.294342,314.238312 336.611206,312.938843 336.840302,311.469788 
	C337.472961,307.412964 337.676056,303.287231 338.003784,299.185150 
	C338.672058,290.819794 338.899261,282.393433 340.081024,274.102356 
	C341.191101,266.313873 343.296753,258.667328 345.259583,250.783585 
	C346.907013,247.288101 348.259247,243.967346 349.611481,240.646591 
	C349.611481,240.646591 349.689178,240.772873 349.960785,240.694580 
	C350.433807,240.008255 350.635223,239.400223 350.836639,238.792206 
	C350.836639,238.792206 350.870667,238.904526 351.088318,238.788254 
	C351.363800,238.308975 351.421631,237.945969 351.479462,237.582962 
	C351.479462,237.582962 351.591034,237.500046 351.870117,237.536163 
	C352.382263,236.983475 352.615326,236.394653 352.848389,235.805847 
	C352.848389,235.805847 352.882141,235.910278 353.103943,235.798859 
	C353.440582,235.328903 353.555450,234.970352 353.670288,234.611801 
	C353.670288,234.611801 353.706665,234.776642 353.959961,234.705872 
	C354.460510,234.064972 354.707733,233.494858 354.954956,232.924759 
	C354.954956,232.924759 354.991516,232.988388 355.201630,232.864166 
	C355.570038,232.422897 355.728333,232.105850 355.898621,231.850388 
	C355.910583,231.911957 355.785828,231.898758 356.055573,231.800903 
	C356.486389,231.370148 356.647430,231.037216 356.824097,230.776810 
	C356.839661,230.849319 356.695251,230.815399 356.982880,230.741730 
	C357.418518,230.320953 357.566559,229.973846 357.733978,229.700226 
	C357.753357,229.773697 357.613464,229.714310 357.961121,229.700745 
	C358.752258,228.975540 359.195709,228.263916 359.639160,227.552292 
	C359.639160,227.552292 359.736664,227.682999 359.965820,227.659698 
	C360.347839,227.284134 360.500641,226.931870 360.653473,226.579605 
	C360.653473,226.579605 360.690765,226.739120 360.929260,226.681152 
	C361.343414,226.277466 361.519073,225.931763 361.732361,225.655212 
	C361.769958,225.724380 361.614685,225.698181 361.911957,225.672806 
	C362.402405,225.322784 362.595612,224.998154 362.811035,224.750732 
	C362.833313,224.827957 362.674683,224.801910 362.968201,224.739624 
	C363.479340,224.356873 363.696960,224.036423 363.932770,223.538300 
	C363.950958,223.360611 364.060852,223.020721 364.060852,223.020721 
	C364.060852,223.020721 364.460388,222.998367 365.011780,222.968781 
	C366.302765,222.177078 367.042358,221.414963 367.805969,220.725128 
	C367.829987,220.797424 367.680481,220.768265 367.960999,220.738358 
	C368.481323,220.435837 368.721130,220.163239 368.962524,219.931213 
	C368.964111,219.971802 368.892578,219.933289 369.202515,219.931091 
	C369.985992,219.605560 370.459534,219.282211 371.290710,218.947739 
	C372.583984,218.104736 373.519623,217.272873 374.455292,216.441010 
	C374.455292,216.441010 374.551605,216.477829 374.876648,216.589691 
	C376.458313,215.956253 377.714935,215.210953 378.971588,214.465652 
z"/>
<path fill="#FB8F1A" opacity="1.000000" stroke="none" 
	d="
M479.983887,603.138184 
	C478.785431,604.364990 477.797668,605.980652 476.357361,606.761108 
	C450.393982,620.828918 424.364563,634.774780 398.376862,648.797974 
	C391.072510,652.739380 381.956879,649.670471 378.591095,642.178345 
	C367.832336,618.229919 356.977203,594.324768 346.190308,570.388977 
	C342.026276,561.149048 337.712372,551.964478 333.964966,542.556274 
	C332.797546,539.625366 333.265137,536.043152 332.967194,532.295776 
	C332.966675,531.505676 333.111420,531.252136 333.970093,530.978271 
	C334.998077,529.870850 335.440338,528.857056 335.882568,527.843201 
	C335.882568,527.843201 335.911377,527.936279 336.050964,527.890625 
	C336.292847,527.777588 336.491425,527.670593 336.482544,527.648926 
	C336.395935,527.438232 336.274597,527.241882 336.163147,527.041443 
	C340.470001,520.163879 344.685944,513.227173 349.111237,506.426697 
	C352.984100,500.475128 358.551025,499.021118 365.728912,501.339233 
	C375.569824,509.974030 384.839264,518.306946 394.180878,526.558105 
	C408.000183,538.764343 421.870758,550.912598 435.911682,563.370239 
	C450.730560,576.816040 465.357208,589.977112 479.983887,603.138184 
z"/>
<path fill="#FB8F1A" opacity="1.000000" stroke="none" 
	d="
M629.082153,531.919678 
	C630.326721,540.946777 625.278503,548.213135 621.967834,555.869446 
	C609.915466,583.741455 597.377747,611.404541 585.444824,639.326660 
	C581.562317,648.411438 573.408752,652.475037 564.356628,647.309082 
	C551.825989,640.157959 538.884338,633.722717 526.073914,627.067139 
	C513.406006,620.485596 500.637817,614.095093 488.035858,607.390991 
	C486.324982,606.480835 485.324280,604.235779 484.139282,601.927612 
	C521.855286,567.496826 559.426697,533.747253 596.998047,499.997742 
	C604.352722,496.662933 609.621216,498.194122 613.753235,505.118439 
	C618.150452,512.487061 622.373901,519.959351 626.603943,527.841675 
	C626.737305,528.509033 626.940002,528.721008 627.142639,528.932983 
	C627.142639,528.932983 627.056824,528.956177 627.069092,529.238525 
	C627.449951,529.997070 627.818481,530.473267 628.186951,530.949524 
	C628.186951,530.949524 628.055786,530.964722 628.154114,531.155518 
	C628.545349,531.550598 628.838318,531.755005 629.131226,531.959351 
	C629.131226,531.959351 629.060425,531.948242 629.082153,531.919678 
z"/>
<path fill="#FB8F1B" opacity="1.000000" stroke="none" 
	d="
M698.015015,730.972168 
	C698.010010,715.980225 698.409485,700.973999 697.882935,686.000366 
	C697.385498,671.851746 702.834595,660.047852 712.255066,650.592529 
	C725.586670,637.211609 740.076843,624.982544 754.115051,612.309082 
	C763.842285,603.527527 773.594482,594.771912 783.457764,586.144531 
	C785.083191,584.722717 787.338501,584.021057 789.689148,582.962402 
	C790.075623,582.938232 790.031067,582.960083 790.056274,583.255859 
	C790.446228,584.019226 790.811035,584.486816 791.175903,584.954346 
	C791.175903,584.954346 791.070496,584.948242 791.078064,585.229126 
	C791.471558,585.981201 791.857422,586.452332 792.243286,586.923523 
	C792.243286,586.923523 792.115234,586.926636 792.106934,587.199280 
	C792.470337,587.960266 792.841919,588.448608 793.213501,588.936951 
	C793.213501,588.936951 793.100952,588.942322 793.072632,589.306396 
	C794.049438,593.457214 795.054504,597.243958 796.054077,601.497437 
	C796.049438,638.498962 796.050354,675.033813 796.051331,711.568665 
	C795.582520,720.109192 788.416138,728.308289 779.008240,731.067139 
	C778.217712,731.298950 777.426697,731.529114 775.939270,731.517334 
	C773.425171,731.189453 771.607727,731.032349 769.790100,731.029907 
	C745.865051,730.997925 721.940063,730.987793 698.015015,730.972168 
z"/>
<path fill="#FB8F1B" opacity="1.000000" stroke="none" 
	d="
M174.836884,583.815796 
	C177.978607,585.796997 181.430939,587.439148 184.225800,589.844971 
	C198.028214,601.726135 211.708115,613.751465 225.326706,625.843628 
	C233.257401,632.885498 241.271332,639.870056 248.748505,647.377625 
	C260.018005,658.692932 266.989746,671.837830 266.141815,688.619324 
	C265.445892,702.391541 265.999237,716.226746 265.527344,730.518311 
	C242.151840,731.008362 219.247803,730.996521 196.343933,731.054932 
	C194.592209,731.059387 192.841766,731.561279 191.090744,731.831970 
	C182.724167,730.949341 176.607498,726.620972 172.361206,719.101685 
	C172.478333,718.315979 172.292786,718.119812 171.884262,718.064575 
	C171.569901,717.574646 171.255524,717.084778 171.205902,716.063843 
	C170.965851,708.977905 170.055435,702.424927 170.024841,695.867859 
	C169.874268,663.588623 169.957108,631.308350 170.251083,598.759521 
	C170.647552,596.601929 170.750488,594.713257 170.853424,592.824524 
	C170.853424,592.824524 170.876862,592.953247 171.135086,592.781616 
	C171.560944,591.690552 171.728577,590.771179 171.896194,589.851807 
	C171.896194,589.851807 171.926010,589.955261 172.167389,589.801392 
	C172.537460,589.022400 172.666138,588.397339 172.794830,587.772217 
	C172.794830,587.772217 172.839249,587.904968 173.088608,587.777527 
	C173.497086,587.026672 173.656204,586.403259 173.815323,585.779846 
	C173.815323,585.779846 173.866577,585.906738 174.108490,585.781738 
	C174.522491,585.044678 174.694580,584.432739 174.866669,583.820740 
	C174.866669,583.820740 174.844391,583.828735 174.836884,583.815796 
z"/>
<path fill="#333333" opacity="1.000000" stroke="none" 
	d="
M586.990234,187.006104 
	C599.492249,176.870132 606.446167,163.621796 607.907776,147.757339 
	C609.347717,132.128006 606.124390,117.384247 596.540405,103.612267 
	C598.629517,103.307320 599.980591,103.110092 601.732666,102.865189 
	C602.133545,102.817513 602.065674,102.866875 602.211548,103.156380 
	C603.290100,103.600960 604.222656,103.756035 605.155273,103.911118 
	C605.155273,103.911118 605.055542,103.949821 605.226135,104.224060 
	C606.114014,104.633499 606.831360,104.768700 607.548645,104.903900 
	C611.910339,107.028290 616.271973,109.152672 620.852295,111.950897 
	C622.090759,113.070587 623.110596,113.516434 624.130371,113.962280 
	C624.468628,113.915627 624.741455,114.027908 625.122253,114.806229 
	C625.662292,115.458786 626.029053,115.604233 626.395752,115.749680 
	C626.395752,115.749680 626.178894,115.772102 626.262390,115.999290 
	C626.928467,116.475342 627.510986,116.724205 628.093567,116.973068 
	C628.445129,116.936531 628.722900,117.062660 628.986328,117.951622 
	C630.495056,119.574623 631.944275,120.597458 633.393433,121.620293 
	C633.393433,121.620293 633.269043,121.709000 633.312256,121.952461 
	C633.724426,122.339523 634.093384,122.483131 634.462280,122.626740 
	C634.462280,122.626740 634.294556,122.697052 634.331909,122.933807 
	C634.738159,123.308876 635.106995,123.447182 635.475830,123.585495 
	C635.475830,123.585495 635.311768,123.481216 635.272095,123.879959 
	C636.916565,125.823128 638.600647,127.367546 640.284668,128.911987 
	C640.822571,129.398865 641.360535,129.885742 641.963379,131.022888 
	C642.765808,132.423737 643.503418,133.174316 644.241028,133.924896 
	C644.594849,133.937851 644.840149,134.107605 645.004028,135.037430 
	C645.719299,136.410721 646.407593,137.180695 647.095886,137.950684 
	C647.095886,137.950668 647.014221,137.962280 647.024536,138.306885 
	C648.059326,140.081772 649.083923,141.512085 650.108521,142.942383 
	C650.108521,142.942383 650.024658,142.948547 650.059082,143.240540 
	C650.468262,143.995682 650.843079,144.458847 651.217834,144.922028 
	C651.217834,144.922028 651.094055,144.924255 651.091003,145.203918 
	C651.475708,145.956665 651.863464,146.429733 652.251221,146.902832 
	C652.251221,146.902832 652.117676,146.908401 652.083130,147.217850 
	C652.751892,148.664978 653.455139,149.802673 654.158325,150.940369 
	C654.158325,150.940369 654.057190,150.931122 654.080933,151.210510 
	C654.436951,151.981598 654.769287,152.473312 655.101562,152.965027 
	C655.101562,152.965027 655.024048,152.955612 655.031494,153.334320 
	C657.028687,162.135925 658.986389,170.566757 661.062561,178.968292 
	C661.251587,179.733017 662.201416,180.309692 662.797974,180.973694 
	C664.197815,197.775848 666.161255,214.556549 666.801819,231.387604 
	C667.238098,242.851273 664.289917,253.739532 658.740906,264.269836 
	C654.750793,271.841705 653.003479,280.809967 651.406250,289.369995 
	C649.693665,298.547913 649.348267,307.979248 648.365417,317.295654 
	C647.898071,321.725128 642.588928,324.039520 638.939880,321.377533 
	C637.882996,320.606567 637.070435,319.500702 635.910278,318.269135 
	C635.408264,317.378601 635.141968,316.767273 634.918457,315.482300 
	C633.882080,312.565979 632.802917,310.323334 631.723755,308.080688 
	C631.723755,308.080719 631.858398,308.036743 631.909180,307.656128 
	C631.348938,302.706085 630.844116,298.118835 630.081421,293.574890 
	C629.708679,291.354156 628.855835,289.213959 628.220337,287.037323 
	C627.781067,282.342590 627.341858,277.647858 627.181091,272.277374 
	C626.591431,265.119965 625.973877,258.590424 624.748413,252.177032 
	C624.145203,249.020065 622.417297,246.077988 621.198303,243.038666 
	C617.596069,229.658234 613.366516,216.524170 603.689941,206.080658 
	C598.431946,200.405899 592.727417,195.144913 587.104126,189.038452 
	C586.986023,187.921753 586.988159,187.463928 586.990234,187.006104 
z"/>
<path fill="#F2C69E" opacity="1.000000" stroke="none" 
	d="
M435.719482,563.085510 
	C421.870758,550.912598 408.000183,538.764343 394.180878,526.558105 
	C384.839264,518.306946 375.569824,509.974030 366.134644,501.374664 
	C365.712769,489.705566 365.424408,478.339508 365.210144,466.514771 
	C370.442780,470.128906 375.561646,474.253204 380.766724,478.265625 
	C402.970703,495.381683 427.096069,508.821686 455.073090,513.265259 
	C467.256989,515.200439 479.866821,514.464478 492.285461,514.872253 
	C492.784454,514.888672 493.306915,514.190674 493.923859,513.436768 
	C500.030640,512.527893 506.180389,512.673096 512.007874,511.373352 
	C538.267761,505.516479 560.991821,492.379181 582.213501,476.320709 
	C582.864441,475.828156 583.604919,475.454010 584.624512,475.316589 
	C583.958618,476.911377 583.163574,478.435974 581.954590,479.481812 
	C572.679932,487.504364 563.646729,495.853638 553.929993,503.308044 
	C531.244995,520.711060 507.707153,536.888855 481.712830,549.079224 
	C467.083618,555.939758 451.726624,560.636597 435.719482,563.085510 
z"/>
<path fill="#FAD1AB" opacity="1.000000" stroke="none" 
	d="
M435.911682,563.370239 
	C451.726624,560.636597 467.083618,555.939758 481.712830,549.079224 
	C507.707153,536.888855 531.244995,520.711060 553.929993,503.308044 
	C563.646729,495.853638 572.679932,487.504364 581.954590,479.481812 
	C583.163574,478.435974 583.958618,476.911377 584.970215,475.251282 
	C585.095642,474.604340 585.269653,474.368958 586.049927,474.057190 
	C587.051819,473.277588 587.520874,472.628662 587.989868,471.979736 
	C587.989868,471.979706 588.000000,472.000000 588.293213,471.982941 
	C589.054749,471.636261 589.523132,471.306641 589.991516,470.977020 
	C589.991516,470.977020 590.002686,470.998688 590.218079,470.890747 
	C590.715637,470.581726 590.902954,470.314240 590.995483,469.980286 
	C590.995483,469.980286 591.002441,470.001831 591.220337,469.889221 
	C591.625061,469.500610 591.811829,469.224609 591.998657,468.948608 
	C593.829773,467.047485 595.660950,465.146362 597.809875,463.128174 
	C597.418579,473.532959 596.681396,484.053009 596.030090,494.578400 
	C595.929993,496.196259 596.225464,497.838623 596.668030,499.733704 
	C559.426697,533.747253 521.855286,567.496826 484.124268,601.532104 
	C482.880981,602.309448 481.797241,602.801086 480.348694,603.215454 
	C465.357208,589.977112 450.730560,576.816040 435.911682,563.370239 
z"/>
<path fill="#FD5500" opacity="1.000000" stroke="none" 
	d="
M191.548904,731.894287 
	C192.841766,731.561279 194.592209,731.059387 196.343933,731.054932 
	C219.247803,730.996521 242.151840,731.008362 265.523254,730.984863 
	C409.685303,730.976440 553.379944,730.985718 697.544800,730.983521 
	C721.940063,730.987793 745.865051,730.997925 769.790100,731.029907 
	C771.607727,731.032349 773.425171,731.189453 775.567993,731.513794 
	C774.733215,731.830322 773.573120,731.975525 772.412964,731.975525 
	C578.944336,731.976013 385.475708,731.966064 191.548904,731.894287 
z"/>
<path fill="#0F0F0F" opacity="1.000000" stroke="none" 
	d="
M313.611450,145.934067 
	C313.455200,147.485535 313.362183,149.431320 312.477112,150.899719 
	C302.260681,167.849197 296.180847,186.310226 293.442627,205.743561 
	C292.214935,214.456528 293.055573,223.453995 292.820374,232.318710 
	C292.762695,234.491592 292.166382,236.650162 291.435425,238.899078 
	C291.074249,229.212479 290.265839,219.354858 291.282623,209.689240 
	C293.681854,186.882523 301.287201,165.681213 313.611450,145.934067 
z"/>
<path fill="#0F0F0F" opacity="1.000000" stroke="none" 
	d="
M419.583008,65.063309 
	C416.610016,66.366089 413.303436,67.904320 409.832275,68.816406 
	C392.562744,73.354218 375.233521,77.664879 357.962616,82.197701 
	C353.029144,83.492523 349.157837,88.998337 348.983765,94.120361 
	C348.933746,95.591530 348.676910,97.055679 348.202820,98.786949 
	C344.879059,92.855331 348.473511,83.030655 358.763885,80.170692 
	C374.157013,75.892532 389.649292,71.967224 405.127686,68.002296 
	C409.761108,66.815407 414.488953,65.997200 419.583008,65.063309 
z"/>
<path fill="#FD5500" opacity="1.000000" stroke="none" 
	d="
M169.957550,599.028442 
	C169.957108,631.308350 169.874268,663.588623 170.024841,695.867859 
	C170.055435,702.424927 170.965851,708.977905 171.212280,715.749390 
	C170.265839,713.285034 168.986664,710.605774 168.979019,707.922913 
	C168.876343,671.937622 168.951111,635.951843 169.269257,599.499390 
	C169.556702,599.032593 169.957550,599.028442 169.957550,599.028442 
z"/>
<path fill="#FD5500" opacity="1.000000" stroke="none" 
	d="
M796.399414,711.259766 
	C796.050354,675.033813 796.049438,638.498962 796.243896,601.498047 
	C796.439209,601.031921 796.820007,601.038208 796.820007,601.038208 
	C796.795837,637.675781 796.771667,674.313354 796.399414,711.259766 
z"/>
<path fill="#0F0F0F" opacity="1.000000" stroke="none" 
	d="
M494.704041,59.639496 
	C493.589691,60.201172 492.089630,60.958836 490.592712,60.952789 
	C483.564392,60.924400 476.536957,60.686123 469.236206,60.196709 
	C477.415405,59.741634 485.867615,59.612633 494.704041,59.639496 
z"/>
<path fill="#1B1B1B" opacity="1.000000" stroke="none" 
	d="
M662.857056,180.568359 
	C662.201416,180.309692 661.251587,179.733017 661.062561,178.968292 
	C658.986389,170.566757 657.028687,162.135925 655.049255,153.299591 
	C657.678406,161.978455 660.297302,171.070740 662.857056,180.568359 
z"/>
<path fill="#0F0F0F" opacity="1.000000" stroke="none" 
	d="
M316.061737,313.416565 
	C316.767334,314.129547 317.723785,315.178162 318.010437,316.385803 
	C319.396973,322.226562 321.432495,323.299408 327.122101,320.949402 
	C327.876831,320.637665 328.649628,320.369720 329.743103,320.294250 
	C330.072174,320.507019 330.020721,320.962952 330.020721,320.962952 
	C328.755707,321.733704 327.553802,322.643616 326.214569,323.250732 
	C320.791321,325.709442 317.838226,324.083038 316.854492,318.219025 
	C316.607758,316.748352 316.289368,315.289703 316.061737,313.416565 
z"/>
<path fill="#0F0F0F" opacity="1.000000" stroke="none" 
	d="
M306.127014,271.376312 
	C311.184631,274.262939 310.909332,280.131683 312.732849,284.937225 
	C313.498566,286.955139 313.290894,289.342438 313.238831,291.791687 
	C310.686279,285.263031 308.420593,278.504486 306.127014,271.376312 
z"/>
<path fill="#0F0F0F" opacity="1.000000" stroke="none" 
	d="
M449.598206,61.047485 
	C449.662506,61.643955 449.376678,62.610569 448.995178,62.649940 
	C442.170593,63.354198 435.334381,63.946129 428.243988,64.266899 
	C435.059387,62.976433 442.131470,61.981243 449.598206,61.047485 
z"/>
<path fill="#0F0F0F" opacity="1.000000" stroke="none" 
	d="
M345.599182,107.984970 
	C341.438873,112.552742 336.964447,117.241478 332.129944,121.924652 
	C336.274933,117.314705 340.779968,112.710312 345.599182,107.984970 
z"/>
<path fill="#0F0F0F" opacity="1.000000" stroke="none" 
	d="
M348.845703,101.420273 
	C351.623047,102.330292 354.458313,103.586426 357.293579,104.842560 
	C357.099548,105.276375 356.905518,105.710190 356.711487,106.143997 
	C353.351135,106.750565 349.990814,107.357124 346.246765,107.936630 
	C346.491089,105.671021 351.414642,105.558563 348.845703,101.420273 
z"/>
<path fill="#0F0F0F" opacity="1.000000" stroke="none" 
	d="
M313.073364,294.422180 
	C314.005646,294.622925 315.601471,295.167572 315.671539,295.865417 
	C316.157898,300.710876 316.327271,305.588165 316.313110,310.721619 
	C315.028870,305.604340 314.029816,300.220642 313.073364,294.422180 
z"/>
<path fill="#0F0F0F" opacity="1.000000" stroke="none" 
	d="
M291.054443,241.407532 
	C292.735321,245.475082 294.352478,249.942551 295.943787,254.824463 
	C294.275543,250.761749 292.633118,246.284592 291.054443,241.407532 
z"/>
<path fill="#0F0F0F" opacity="1.000000" stroke="none" 
	d="
M320.751282,135.214722 
	C319.228577,137.983414 317.446838,140.962845 315.311401,143.964447 
	C316.802551,141.132889 318.647400,138.279175 320.751282,135.214722 
z"/>
<path fill="#0F0F0F" opacity="1.000000" stroke="none" 
	d="
M463.559418,60.050148 
	C461.078522,63.241329 457.593964,62.490715 454.035706,61.213673 
	C457.033234,60.565521 460.079742,60.275723 463.559418,60.050148 
z"/>
<path fill="#F98706" opacity="1.000000" stroke="none" 
	d="
M796.886658,600.644409 
	C796.820007,601.038208 796.439209,601.031921 796.249390,601.031311 
	C795.054504,597.243958 794.049438,593.457214 793.086792,589.251831 
	C794.403870,592.639038 795.678589,596.444885 796.886658,600.644409 
z"/>
<path fill="#0F0F0F" opacity="1.000000" stroke="none" 
	d="
M508.771942,60.547302 
	C506.795227,60.785446 504.482361,60.816841 502.088257,60.476753 
	C504.149902,60.183701 506.292877,60.262127 508.771942,60.547302 
z"/>
<path fill="#1B1B1B" opacity="1.000000" stroke="none" 
	d="
M640.144470,128.608093 
	C638.600647,127.367546 636.916565,125.823128 635.362976,123.914757 
	C636.997070,125.135284 638.500671,126.719765 640.144470,128.608093 
z"/>
<path fill="#0F0F0F" opacity="1.000000" stroke="none" 
	d="
M329.657349,124.013443 
	C328.812866,125.550804 327.671783,127.237221 326.156921,128.923676 
	C326.975616,127.336647 328.168182,125.749580 329.657349,124.013443 
z"/>
<path fill="#0F0F0F" opacity="1.000000" stroke="none" 
	d="
M296.262970,256.327148 
	C297.445740,257.482819 298.694397,258.954895 299.902161,260.808960 
	C298.683777,259.675171 297.506348,258.159363 296.262970,256.327148 
z"/>
<path fill="#1B1B1B" opacity="1.000000" stroke="none" 
	d="
M633.230530,121.343216 
	C631.944275,120.597458 630.495056,119.574623 629.052124,118.180740 
	C630.394775,118.895172 631.731201,119.980659 633.230530,121.343216 
z"/>
<path fill="#0F0F0F" opacity="1.000000" stroke="none" 
	d="
M302.851990,265.416809 
	C303.809296,266.547699 304.884155,268.002380 305.937653,269.850525 
	C304.934052,268.742859 303.951782,267.241699 302.851990,265.416809 
z"/>
<path fill="#1B1B1B" opacity="1.000000" stroke="none" 
	d="
M650.043884,142.611969 
	C649.083923,141.512085 648.059326,140.081772 647.046326,138.271881 
	C648.031677,139.355362 649.005432,140.818436 650.043884,142.611969 
z"/>
<path fill="#F98706" opacity="1.000000" stroke="none" 
	d="
M170.251083,598.759521 
	C169.957550,599.028442 169.556702,599.032593 169.356415,599.040894 
	C169.527374,597.124329 169.898636,595.199585 170.561676,593.049683 
	C170.750488,594.713257 170.647552,596.601929 170.251083,598.759521 
z"/>
<path fill="#0F0F0F" opacity="1.000000" stroke="none" 
	d="
M425.644440,64.059998 
	C424.791779,64.579300 423.591156,65.039635 422.183777,65.224525 
	C423.083496,64.633057 424.190002,64.317039 425.644440,64.059998 
z"/>
<path fill="#0F0F0F" opacity="1.000000" stroke="none" 
	d="
M324.677551,130.039932 
	C324.171814,131.224213 323.385437,132.573547 322.224976,133.935806 
	C322.699524,132.700806 323.548187,131.452896 324.677551,130.039932 
z"/>
<path fill="#1B1B1B" opacity="1.000000" stroke="none" 
	d="
M654.116577,150.600159 
	C653.455139,149.802673 652.751892,148.664978 652.102234,147.153809 
	C652.795471,147.940186 653.435120,149.100067 654.116577,150.600159 
z"/>
<path fill="#1B1B1B" opacity="1.000000" stroke="none" 
	d="
M644.132751,133.626724 
	C643.503418,133.174316 642.765808,132.423737 642.025757,131.294922 
	C642.690308,131.720642 643.357422,132.524597 644.132751,133.626724 
z"/>
<path fill="#0F0F0F" opacity="1.000000" stroke="none" 
	d="
M299.895172,261.433960 
	C300.524536,261.879761 301.244202,262.627411 301.960815,263.750977 
	C301.300323,263.329834 300.642883,262.532806 299.895172,261.433960 
z"/>
<path fill="#1B1B1B" opacity="1.000000" stroke="none" 
	d="
M623.950195,113.699738 
	C623.110596,113.516434 622.090759,113.070587 621.051819,112.257401 
	C621.945068,112.405769 622.857544,112.921478 623.950195,113.699738 
z"/>
<path fill="#F98706" opacity="1.000000" stroke="none" 
	d="
M335.603821,527.998535 
	C335.440338,528.857056 334.998077,529.870850 334.185699,530.911133 
	C334.318726,530.009644 334.821869,529.081726 335.603821,527.998535 
z"/>
<path fill="#1B1B1B" opacity="1.000000" stroke="none" 
	d="
M647.015625,137.647156 
	C646.407593,137.180695 645.719299,136.410721 645.029419,135.270935 
	C645.663635,135.715286 646.299561,136.529465 647.015625,137.647156 
z"/>
<path fill="#0F0F0F" opacity="1.000000" stroke="none" 
	d="
M531.669006,64.138390 
	C531.643860,64.705772 531.301331,65.156502 530.958801,65.607239 
	C530.659729,65.286522 530.360657,64.965813 530.033447,64.361053 
	C530.454102,64.058586 530.902832,64.040161 531.669006,64.138390 
z"/>
<path fill="#F98706" opacity="1.000000" stroke="none" 
	d="
M171.612793,590.049805 
	C171.728577,590.771179 171.560944,591.690552 171.069977,592.775269 
	C170.940887,592.043030 171.135147,591.145386 171.612793,590.049805 
z"/>
<path fill="#FFDDBF" opacity="1.000000" stroke="none" 
	d="
M330.273254,320.975281 
	C330.020721,320.962952 330.072174,320.507019 330.136169,320.286743 
	C330.601379,319.734253 331.002563,319.402008 331.649597,318.961365 
	C331.775208,319.444153 331.654907,320.035309 331.283020,320.806488 
	C330.862915,320.986877 330.694336,320.987244 330.273254,320.975281 
z"/>
<path fill="#1B1B1B" opacity="1.000000" stroke="none" 
	d="
M604.927734,103.655716 
	C604.222656,103.756035 603.290100,103.600960 602.208984,103.114532 
	C602.940430,102.988884 603.820312,103.194595 604.927734,103.655716 
z"/>
<path fill="#F98706" opacity="1.000000" stroke="none" 
	d="
M173.541107,585.938477 
	C173.656204,586.403259 173.497086,587.026672 173.018799,587.772583 
	C172.888718,587.295715 173.077805,586.696411 173.541107,585.938477 
z"/>
<path fill="#F98706" opacity="1.000000" stroke="none" 
	d="
M791.113892,584.655762 
	C790.811035,584.486816 790.446228,584.019226 790.065552,583.233398 
	C790.383728,583.395874 790.717834,583.876526 791.113892,584.655762 
z"/>
<path fill="#1B1B1B" opacity="1.000000" stroke="none" 
	d="
M651.146362,144.624695 
	C650.843079,144.458847 650.468262,143.995682 650.079712,143.203888 
	C650.402222,143.359283 650.738525,143.843323 651.146362,144.624695 
z"/>
<path fill="#1B1B1B" opacity="1.000000" stroke="none" 
	d="
M652.185547,146.595230 
	C651.863464,146.429733 651.475708,145.956665 651.107544,145.144257 
	C651.458008,145.299164 651.788940,145.793396 652.185547,146.595230 
z"/>
<path fill="#1B1B1B" opacity="1.000000" stroke="none" 
	d="
M607.341492,104.606491 
	C606.831360,104.768700 606.114014,104.633499 605.216858,104.171371 
	C605.736084,103.999321 606.435242,104.154205 607.341492,104.606491 
z"/>
<path fill="#F98706" opacity="1.000000" stroke="none" 
	d="
M174.589142,583.972046 
	C174.694580,584.432739 174.522491,585.044678 174.040085,585.783813 
	C173.923706,585.315002 174.117676,584.719177 174.589142,583.972046 
z"/>
<path fill="#F98706" opacity="1.000000" stroke="none" 
	d="
M628.126831,530.642761 
	C627.818481,530.473267 627.449951,529.997070 627.082520,529.196167 
	C627.411377,529.359619 627.739075,529.847778 628.126831,530.642761 
z"/>
<path fill="#F98706" opacity="1.000000" stroke="none" 
	d="
M792.190430,586.613281 
	C791.857422,586.452332 791.471558,585.981201 791.093750,585.178711 
	C791.447083,585.332642 791.792297,585.817871 792.190430,586.613281 
z"/>
<path fill="#F98706" opacity="1.000000" stroke="none" 
	d="
M793.164917,588.624268 
	C792.841919,588.448608 792.470337,587.960266 792.125305,587.137939 
	C792.473450,587.306458 792.794922,587.809021 793.164917,588.624268 
z"/>
<path fill="#F98706" opacity="1.000000" stroke="none" 
	d="
M172.526794,587.943115 
	C172.666138,588.397339 172.537460,589.022400 172.113617,589.803711 
	C171.965225,589.344604 172.111984,588.729370 172.526794,587.943115 
z"/>
<path fill="#1B1B1B" opacity="1.000000" stroke="none" 
	d="
M655.065552,152.658051 
	C654.769287,152.473312 654.436951,151.981598 654.097900,151.162643 
	C654.403931,151.340622 654.716736,151.845840 655.065552,152.658051 
z"/>
<path fill="#1B1B1B" opacity="1.000000" stroke="none" 
	d="
M627.929749,116.724258 
	C627.510986,116.724205 626.928467,116.475342 626.292969,115.894661 
	C626.748657,115.867050 627.257263,116.171257 627.929749,116.724258 
z"/>
<path fill="#1B1B1B" opacity="1.000000" stroke="none" 
	d="
M634.334595,122.383820 
	C634.093384,122.483131 633.724426,122.339523 633.323914,121.876953 
	C633.597168,121.752296 633.902039,121.946602 634.334595,122.383820 
z"/>
<path fill="#1B1B1B" opacity="1.000000" stroke="none" 
	d="
M635.349243,123.350266 
	C635.106995,123.447182 634.738159,123.308876 634.359131,122.847038 
	C634.640259,122.720688 634.931519,122.917870 635.349243,123.350266 
z"/>
<path fill="#FD5500" opacity="1.000000" stroke="none" 
	d="
M171.938904,718.278320 
	C172.292786,718.119812 172.478333,718.315979 172.325378,718.765015 
	C172.209824,718.876892 171.993561,718.492126 171.938904,718.278320 
z"/>
<path fill="#0F0F0F" opacity="1.000000" stroke="none" 
	d="
M557.228638,72.626434 
	C557.032776,72.762497 556.693665,72.648659 556.187744,72.321396 
	C556.375793,72.197495 556.730591,72.287010 557.228638,72.626434 
z"/>
<path fill="#F98706" opacity="1.000000" stroke="none" 
	d="
M629.035095,531.701843 
	C628.838318,531.755005 628.545349,531.550598 628.155884,531.089478 
	C628.352600,531.036560 628.645752,531.240479 629.035095,531.701843 
z"/>
<path fill="#1B1B1B" opacity="1.000000" stroke="none" 
	d="
M626.254211,115.495804 
	C626.029053,115.604233 625.662292,115.458786 625.182617,115.028641 
	C625.417358,114.909920 625.765015,115.075920 626.254211,115.495804 
z"/>
<path fill="#F98706" opacity="1.000000" stroke="none" 
	d="
M627.087280,528.701538 
	C626.940002,528.721008 626.737305,528.509033 626.667114,528.176025 
	C626.799500,528.054932 627.031982,528.470154 627.087280,528.701538 
z"/>
<path fill="#F98706" opacity="1.000000" stroke="none" 
	d="
M336.046997,527.245361 
	C336.274597,527.241882 336.395935,527.438232 336.482544,527.648926 
	C336.491425,527.670593 336.292847,527.777588 336.004822,527.875000 
	C335.819122,527.905029 335.930847,527.449219 336.046997,527.245361 
z"/>
<path fill="#0F0F0F" opacity="1.000000" stroke="none" 
	d="
M544.384705,206.061401 
	C537.962585,207.117401 531.925171,208.070572 525.192139,209.027893 
	C524.332886,208.985580 524.169312,208.939163 524.005737,208.892731 
	C524.820496,208.265854 525.607666,207.132858 526.454041,207.086853 
	C543.578796,206.155884 559.392212,200.609863 574.790894,193.559158 
	C577.310974,192.405258 579.812256,191.210022 582.703979,190.042480 
	C574.191040,197.597946 562.977661,200.040192 552.424133,203.913132 
	C549.954895,204.819305 547.325256,205.288391 544.384705,206.061401 
z"/>
<path fill="#1B1B1B" opacity="1.000000" stroke="none" 
	d="
M621.130920,243.428696 
	C622.417297,246.077988 624.145203,249.020065 624.748413,252.177032 
	C625.973877,258.590424 626.591431,265.119965 627.174255,271.827576 
	C625.270569,263.726654 623.664246,255.397461 622.019409,247.075851 
	C621.800964,245.970352 621.386963,244.903488 621.130920,243.428696 
z"/>
<path fill="#1B1B1B" opacity="1.000000" stroke="none" 
	d="
M628.159241,287.456055 
	C628.855835,289.213959 629.708679,291.354156 630.081421,293.574890 
	C630.844116,298.118835 631.348938,302.706085 631.915405,307.726654 
	C630.613281,301.410126 629.355713,294.642456 628.159241,287.456055 
z"/>
<path fill="#1B1B1B" opacity="1.000000" stroke="none" 
	d="
M631.781982,308.463043 
	C632.802917,310.323334 633.882080,312.565979 634.933411,315.227295 
	C633.883789,313.379089 632.862000,311.112244 631.781982,308.463043 
z"/>
<path fill="#0F0F0F" opacity="1.000000" stroke="none" 
	d="
M586.640869,187.039001 
	C586.988159,187.463928 586.986023,187.921753 586.982666,188.722961 
	C585.896301,189.342102 584.811340,189.617828 583.385620,189.986801 
	C584.127075,189.077316 585.209290,188.074600 586.640869,187.039001 
z"/>
<path fill="#F2C69E" opacity="1.000000" stroke="none" 
	d="
M587.725830,472.110321 
	C587.520874,472.628662 587.051819,473.277588 586.248657,473.955750 
	C586.430359,473.403595 586.946106,472.822235 587.725830,472.110321 
z"/>
<path fill="#F2C69E" opacity="1.000000" stroke="none" 
	d="
M589.691772,470.998413 
	C589.523132,471.306641 589.054749,471.636261 588.283447,471.977631 
	C588.451050,471.666199 588.921570,471.342987 589.691772,470.998413 
z"/>
<path fill="#F2C69E" opacity="1.000000" stroke="none" 
	d="
M591.777710,469.068542 
	C591.811829,469.224609 591.625061,469.500610 591.209351,469.886230 
	C591.172546,469.726715 591.364624,469.457611 591.777710,469.068542 
z"/>
<path fill="#F2C69E" opacity="1.000000" stroke="none" 
	d="
M590.771973,470.087830 
	C590.902954,470.314240 590.715637,470.581726 590.207214,470.886353 
	C590.076782,470.658386 590.265930,470.393524 590.771973,470.087830 
z"/>
<path fill="#FFDDBF" opacity="1.000000" stroke="none" 
	d="
M523.598999,208.964569 
	C524.169312,208.939163 524.332886,208.985580 524.740723,209.105225 
	C524.147827,209.784164 523.352051,210.848465 522.467346,210.928360 
	C502.430206,212.738052 482.422089,212.066528 462.423920,210.146973 
	C457.820007,209.705048 453.173035,209.711517 448.279083,209.182343 
	C451.047028,208.882202 454.081818,208.911346 457.933624,208.940735 
	C459.495789,208.909164 460.240936,208.877365 460.986053,208.845581 
	C462.709625,208.918045 464.433228,208.990524 467.011749,209.086182 
	C473.240936,209.362411 478.615204,209.615433 483.989441,209.868454 
	C486.370300,209.931671 488.751129,209.994888 492.028473,210.055603 
	C496.610107,209.999039 500.295227,209.945023 503.980377,209.890991 
	C505.380768,209.934540 506.781128,209.978073 509.038147,210.001495 
	C512.952881,209.705109 516.010986,209.428848 519.069031,209.152588 
	C520.443420,209.113861 521.817810,209.075119 523.598999,208.964569 
z"/>
<path fill="#FFDDBF" opacity="1.000000" stroke="none" 
	d="
M447.977844,208.631317 
	C436.366638,208.953537 424.588409,208.470993 412.880920,209.170959 
	C403.921722,209.706589 395.051117,211.731796 386.142914,213.106476 
	C384.365509,213.380737 382.596527,213.709381 380.405029,214.004700 
	C380.151550,213.682251 380.316620,213.368027 381.133118,212.986938 
	C387.257172,211.431015 392.729767,209.941971 398.202393,208.452942 
	C398.202393,208.452942 398.379883,208.364471 398.550415,208.512177 
	C399.208191,208.461105 399.695404,208.262329 400.182617,208.063538 
	C400.593109,208.052643 401.003571,208.041733 402.137939,208.003250 
	C407.569275,207.620056 412.276672,207.264435 416.984100,206.908829 
	C418.711060,206.953568 420.438019,206.998306 423.049652,207.038895 
	C431.284607,207.292633 438.634857,207.550522 445.985138,207.808411 
	C446.603851,207.984024 447.222534,208.159653 447.977844,208.631317 
z"/>
<path fill="#FFDDBF" opacity="1.000000" stroke="none" 
	d="
M344.964355,250.958328 
	C343.296753,258.667328 341.191101,266.313873 340.081024,274.102356 
	C338.899261,282.393433 338.672058,290.819794 338.003784,299.185150 
	C337.676056,303.287231 337.472961,307.412964 336.840302,311.469788 
	C336.611206,312.938843 335.294342,314.238312 334.158386,315.375214 
	C333.896729,314.756287 333.950500,314.377289 334.004272,313.998291 
	C334.425507,312.945160 334.846741,311.892029 335.502808,310.203735 
	C335.782562,308.382446 335.827484,307.196350 335.872375,306.010254 
	C335.934052,305.252655 335.995697,304.495087 336.071655,302.916687 
	C336.128967,299.374390 336.171906,296.652863 336.214844,293.931335 
	C336.149628,292.249390 336.084412,290.567474 336.349121,288.338715 
	C336.742950,287.198059 336.806854,286.604248 336.870758,286.010406 
	C336.928619,285.559906 336.986481,285.109375 337.074768,283.932892 
	C337.364410,280.807404 337.623627,278.407928 337.882874,276.008423 
	C337.958618,275.565186 338.034393,275.121948 338.231079,274.037445 
	C338.519165,272.267517 338.686340,271.138885 338.853516,270.010223 
	C338.944153,269.569275 339.034790,269.128357 339.252319,268.078003 
	C339.540741,266.649292 339.702271,265.830017 339.863831,265.010712 
	C339.971771,264.585083 340.079712,264.159424 340.383972,263.203125 
	C340.673950,262.118225 340.767548,261.563995 340.861176,261.009735 
	C340.994751,260.605011 341.128357,260.200317 341.519409,259.274536 
	C341.826294,258.170898 341.875702,257.588287 341.925110,257.005676 
	C342.010010,256.631256 342.094910,256.256866 342.390381,255.461975 
	C342.706512,254.699112 342.812134,254.356766 342.917725,254.014404 
	C342.917725,254.014404 343.126404,253.671356 343.353363,253.278107 
	C343.936890,252.157776 344.293427,251.430679 344.727722,250.768326 
	C344.805481,250.833069 344.964386,250.958328 344.964355,250.958328 
z"/>
<path fill="#0F0F0F" opacity="1.000000" stroke="none" 
	d="
M445.876495,207.428467 
	C438.634857,207.550522 431.284607,207.292633 423.476196,206.966370 
	C430.601318,206.948181 438.184570,206.998367 445.876495,207.428467 
z"/>
<path fill="#0F0F0F" opacity="1.000000" stroke="none" 
	d="
M397.999390,208.119308 
	C392.729767,209.941971 387.257172,211.431015 381.397949,212.892075 
	C385.809692,208.538147 391.714325,207.868790 397.999390,208.119308 
z"/>
<path fill="#0F0F0F" opacity="1.000000" stroke="none" 
	d="
M483.892761,209.481659 
	C478.615204,209.615433 473.240936,209.362411 467.439026,209.022675 
	C472.606262,208.988937 478.201202,209.041901 483.892761,209.481659 
z"/>
<path fill="#0F0F0F" opacity="1.000000" stroke="none" 
	d="
M416.681458,206.627655 
	C412.276672,207.264435 407.569275,207.620056 402.435944,207.925430 
	C403.329071,207.246765 404.626373,206.144135 405.971344,206.082581 
	C409.429199,205.924332 412.908234,206.227631 416.681458,206.627655 
z"/>
<path fill="#0F0F0F" opacity="1.000000" stroke="none" 
	d="
M518.806335,208.832611 
	C516.010986,209.428848 512.952881,209.705109 509.452576,209.924530 
	C511.733765,206.219635 515.279724,208.358505 518.806335,208.832611 
z"/>
<path fill="#FFDDBF" opacity="1.000000" stroke="none" 
	d="
M349.407562,240.804260 
	C348.259247,243.967346 346.907013,247.288101 345.259583,250.783585 
	C344.964386,250.958328 344.805481,250.833069 344.787842,250.485428 
	C344.818909,249.760681 344.867584,249.383591 344.916260,249.006485 
	C344.916260,249.006485 345.134796,248.694992 345.347717,248.359833 
	C345.660400,247.690994 345.760162,247.357300 345.859924,247.023590 
	C346.264069,246.257751 346.668182,245.491913 347.378906,244.248016 
	C347.875641,243.209106 348.065735,242.648254 348.255859,242.087402 
	C348.571777,241.712234 348.887695,241.337067 349.407562,240.804260 
z"/>
<path fill="#0F0F0F" opacity="1.000000" stroke="none" 
	d="
M337.513733,276.092224 
	C337.623627,278.407928 337.364410,280.807404 337.012238,283.596252 
	C336.994415,281.382385 337.069519,278.779205 337.513733,276.092224 
z"/>
<path fill="#0F0F0F" opacity="1.000000" stroke="none" 
	d="
M503.681122,209.615738 
	C500.295227,209.945023 496.610107,209.999039 492.469757,209.984879 
	C495.803650,209.724625 499.592773,209.532547 503.681122,209.615738 
z"/>
<path fill="#0F0F0F" opacity="1.000000" stroke="none" 
	d="
M335.888123,294.176147 
	C336.171906,296.652863 336.128967,299.374390 336.004272,302.541138 
	C335.802216,300.131256 335.681824,297.276123 335.888123,294.176147 
z"/>
<path fill="#0F0F0F" opacity="1.000000" stroke="none" 
	d="
M335.525513,306.077728 
	C335.827484,307.196350 335.782562,308.382446 335.523254,309.855652 
	C335.265442,308.810242 335.222015,307.477722 335.525513,306.077728 
z"/>
<path fill="#0F0F0F" opacity="1.000000" stroke="none" 
	d="
M355.034058,232.099762 
	C355.906769,230.775528 356.779449,229.451294 357.915405,228.413818 
	C357.990265,229.038498 357.801880,229.376404 357.613464,229.714310 
	C357.613464,229.714310 357.753357,229.773697 357.486237,229.820496 
	C357.044495,230.183319 356.869873,230.499359 356.695251,230.815399 
	C356.695251,230.815399 356.839661,230.849319 356.570526,230.890625 
	C356.129547,231.254196 355.957672,231.576477 355.785828,231.898758 
	C355.785828,231.898758 355.910583,231.911957 355.681030,231.916321 
	C355.451447,231.920700 355.034058,232.099762 355.034058,232.099762 
z"/>
<path fill="#0F0F0F" opacity="1.000000" stroke="none" 
	d="
M338.520081,270.071289 
	C338.686340,271.138885 338.519165,272.267517 338.188049,273.701782 
	C338.078247,272.715729 338.132416,271.424042 338.520081,270.071289 
z"/>
<path fill="#0F0F0F" opacity="1.000000" stroke="none" 
	d="
M344.547760,249.081238 
	C344.867584,249.383591 344.818909,249.760681 344.710114,250.420685 
	C344.293427,251.430679 343.936890,252.157776 343.334412,253.078247 
	C343.452087,251.899734 343.815674,250.527863 344.547760,249.081238 
z"/>
<path fill="#0F0F0F" opacity="1.000000" stroke="none" 
	d="
M363.699829,223.021667 
	C364.060852,223.020721 363.950958,223.360611 363.664551,223.643982 
	C363.143646,224.218872 362.909149,224.510391 362.674683,224.801910 
	C362.674683,224.801910 362.833313,224.827957 362.554382,224.844345 
	C362.055176,225.139877 361.834930,225.419037 361.614685,225.698181 
	C361.614685,225.698181 361.769958,225.724380 361.546814,225.693451 
	C361.323669,225.662537 360.955566,225.751297 360.955566,225.751297 
	C361.750000,224.841736 362.544403,223.932175 363.699829,223.021667 
z"/>
<path fill="#FFDDBF" opacity="1.000000" stroke="none" 
	d="
M378.688293,214.441879 
	C377.714935,215.210953 376.458313,215.956253 374.876038,216.538147 
	C374.550415,216.374725 374.766724,216.132217 375.149597,216.004089 
	C375.782379,215.614731 376.032288,215.353485 376.282196,215.092255 
	C376.989807,214.867538 377.697418,214.642822 378.688293,214.441879 
z"/>
<path fill="#0F0F0F" opacity="1.000000" stroke="none" 
	d="
M460.938324,208.529175 
	C460.240936,208.877365 459.495789,208.909164 458.383331,208.872086 
	C458.974182,208.606384 459.932404,208.409576 460.938324,208.529175 
z"/>
<path fill="#0F0F0F" opacity="1.000000" stroke="none" 
	d="
M339.545258,265.057861 
	C339.702271,265.830017 339.540741,266.649292 339.213135,267.741364 
	C339.106964,267.044434 339.166840,266.074738 339.545258,265.057861 
z"/>
<path fill="#0F0F0F" opacity="1.000000" stroke="none" 
	d="
M333.648407,314.052551 
	C333.950500,314.377289 333.896729,314.756287 333.791199,315.419922 
	C333.739502,315.704559 333.785919,315.716919 333.523193,315.869904 
	C332.858917,316.397919 332.457397,316.772919 332.055847,317.147949 
	C332.468079,316.134247 332.880310,315.120514 333.648407,314.052551 
z"/>
<path fill="#FFDDBF" opacity="1.000000" stroke="none" 
	d="
M332.029938,317.442139 
	C332.457397,316.772919 332.858917,316.397919 333.501892,315.870636 
	C333.362610,316.768005 332.981842,317.817627 332.222382,318.886627 
	C331.897125,318.516083 331.950562,318.126221 332.029938,317.442139 
z"/>
<path fill="#0F0F0F" opacity="1.000000" stroke="none" 
	d="
M366.115845,221.350098 
	C366.898834,220.582886 367.681824,219.815659 368.768188,219.279953 
	C369.071594,219.511475 368.892578,219.933289 368.892578,219.933289 
	C368.892578,219.933289 368.964111,219.971802 368.690979,219.985565 
	C368.172089,220.255630 367.926270,220.511948 367.680481,220.768250 
	C367.680481,220.768265 367.829987,220.797424 367.519043,220.819122 
	C366.843994,221.010574 366.479919,221.180344 366.115845,221.350098 
z"/>
<path fill="#FFDDBF" opacity="1.000000" stroke="none" 
	d="
M374.178680,216.591034 
	C373.519623,217.272873 372.583984,218.104736 371.244659,218.890579 
	C370.841003,218.844559 370.738495,218.735855 370.788452,218.544678 
	C370.838379,218.353516 371.032471,218.009308 371.032471,218.009308 
	C371.989014,217.586548 372.945526,217.163803 374.178680,216.591034 
z"/>
<path fill="#FFDDBF" opacity="1.000000" stroke="none" 
	d="
M366.000610,221.586227 
	C366.479919,221.180344 366.843994,221.010574 367.494995,220.746826 
	C367.042358,221.414963 366.302765,222.177078 365.210815,222.948242 
	C365.200775,222.578979 365.543091,222.200668 366.000610,221.586227 
z"/>
<path fill="#0F0F0F" opacity="1.000000" stroke="none" 
	d="
M347.935364,242.086716 
	C348.065735,242.648254 347.875641,243.209106 347.431396,243.924286 
	C347.323120,243.414413 347.469025,242.750229 347.935364,242.086716 
z"/>
<path fill="#0F0F0F" opacity="1.000000" stroke="none" 
	d="
M341.616547,257.044128 
	C341.875702,257.588287 341.826294,258.170898 341.562439,258.957336 
	C341.334686,258.468292 341.321350,257.775421 341.616547,257.044128 
z"/>
<path fill="#0F0F0F" opacity="1.000000" stroke="none" 
	d="
M336.581055,286.042847 
	C336.806854,286.604248 336.742950,287.198059 336.398193,287.919861 
	C336.175385,287.390289 336.233368,286.732758 336.581055,286.042847 
z"/>
<path fill="#0F0F0F" opacity="1.000000" stroke="none" 
	d="
M340.567749,261.047211 
	C340.767548,261.563995 340.673950,262.118225 340.375366,262.873199 
	C340.205078,262.410828 340.239685,261.747772 340.567749,261.047211 
z"/>
<path fill="#FFDDBF" opacity="1.000000" stroke="none" 
	d="
M357.961121,229.700745 
	C357.801880,229.376404 357.990265,229.038498 358.303711,228.436981 
	C358.752228,228.140961 359.016632,227.998764 359.430573,227.649536 
	C359.195709,228.263916 358.752258,228.975540 357.961121,229.700745 
z"/>
<path fill="#FFDDBF" opacity="1.000000" stroke="none" 
	d="
M369.202515,219.931091 
	C368.892578,219.933289 369.071594,219.511475 369.164001,219.301819 
	C369.256409,219.092178 369.717682,219.036972 370.056244,218.880371 
	C370.394806,218.723770 370.738495,218.735855 370.738495,218.735855 
	C370.738495,218.735855 370.841003,218.844559 370.887054,218.901718 
	C370.459534,219.282211 369.985992,219.605560 369.202515,219.931091 
z"/>
<path fill="#FFDDBF" opacity="1.000000" stroke="none" 
	d="
M354.695923,233.061478 
	C354.707733,233.494858 354.460510,234.064972 353.882965,234.671326 
	C353.847412,234.204453 354.142181,233.701324 354.695923,233.061478 
z"/>
<path fill="#FFDDBF" opacity="1.000000" stroke="none" 
	d="
M352.594360,235.935638 
	C352.615326,236.394653 352.382263,236.983475 351.801880,237.549469 
	C351.749878,237.039581 352.045135,236.552505 352.594360,235.935638 
z"/>
<path fill="#FFDDBF" opacity="1.000000" stroke="none" 
	d="
M350.576294,238.941956 
	C350.635223,239.400223 350.433807,240.008255 349.891144,240.669159 
	C349.805237,240.178589 350.060577,239.635147 350.576294,238.941956 
z"/>
<path fill="#0F0F0F" opacity="1.000000" stroke="none" 
	d="
M376.026215,215.155304 
	C376.032288,215.353485 375.782379,215.614731 375.255066,215.880524 
	C375.241852,215.662827 375.506042,215.440598 376.026215,215.155304 
z"/>
<path fill="#0F0F0F" opacity="1.000000" stroke="none" 
	d="
M399.708801,208.076126 
	C399.695404,208.262329 399.208191,208.461105 398.506531,208.423248 
	C398.606415,208.153992 398.920685,208.121338 399.708801,208.076126 
z"/>
<path fill="#FFDDBF" opacity="1.000000" stroke="none" 
	d="
M360.415283,226.697281 
	C360.500641,226.931870 360.347839,227.284134 359.884521,227.654114 
	C359.775055,227.386200 359.976074,227.100586 360.415283,226.697281 
z"/>
<path fill="#0F0F0F" opacity="1.000000" stroke="none" 
	d="
M345.659302,247.187866 
	C345.760162,247.357300 345.660400,247.690994 345.331360,248.170288 
	C345.220917,247.994644 345.339813,247.673386 345.659302,247.187866 
z"/>
<path fill="#FFDDBF" opacity="1.000000" stroke="none" 
	d="
M351.289154,237.755112 
	C351.421631,237.945969 351.363800,238.308975 351.030029,238.781616 
	C350.868988,238.569916 350.983917,238.248596 351.289154,237.755112 
z"/>
<path fill="#0F0F0F" opacity="1.000000" stroke="none" 
	d="
M342.698486,254.165985 
	C342.812134,254.356766 342.706512,254.699112 342.350464,255.171417 
	C342.226440,254.973434 342.352814,254.645493 342.698486,254.165985 
z"/>
<path fill="#FFDDBF" opacity="1.000000" stroke="none" 
	d="
M353.436951,234.756058 
	C353.555450,234.970352 353.440582,235.328903 353.049286,235.793976 
	C352.916473,235.567108 353.060059,235.233719 353.436951,234.756058 
z"/>
<path fill="#FFDDBF" opacity="1.000000" stroke="none" 
	d="
M355.013306,232.318634 
	C355.034058,232.099762 355.451447,231.920700 355.669067,231.854767 
	C355.728333,232.105850 355.570038,232.422897 355.165955,232.855591 
	C354.920166,232.971252 354.992554,232.537521 355.013306,232.318634 
z"/>
<path fill="#FFDDBF" opacity="1.000000" stroke="none" 
	d="
M360.852844,225.978378 
	C360.955566,225.751297 361.323669,225.662537 361.509216,225.624298 
	C361.519073,225.931763 361.343414,226.277466 360.857361,226.641907 
	C360.546967,226.660660 360.750153,226.205460 360.852844,225.978378 
z"/>
<path fill="#0F0F0F" opacity="1.000000" stroke="none" 
	d="
M370.788452,218.544678 
	C370.738495,218.735855 370.394806,218.723770 370.222900,218.718567 
	C370.223999,218.500244 370.430420,218.326965 370.851379,218.101440 
	C371.032471,218.009308 370.838379,218.353516 370.788452,218.544678 
z"/>
<path fill="#FFDDBF" opacity="1.000000" stroke="none" 
	d="
M356.055573,231.800903 
	C355.957672,231.576477 356.129547,231.254196 356.554932,230.818115 
	C356.647430,231.037216 356.486389,231.370148 356.055573,231.800903 
z"/>
<path fill="#FFDDBF" opacity="1.000000" stroke="none" 
	d="
M356.982880,230.741730 
	C356.869873,230.499359 357.044495,230.183319 357.466858,229.747009 
	C357.566559,229.973846 357.418518,230.320953 356.982880,230.741730 
z"/>
<path fill="#FFDDBF" opacity="1.000000" stroke="none" 
	d="
M361.911957,225.672806 
	C361.834930,225.419037 362.055176,225.139877 362.532104,224.767120 
	C362.595612,224.998154 362.402405,225.322784 361.911957,225.672806 
z"/>
<path fill="#FFDDBF" opacity="1.000000" stroke="none" 
	d="
M362.968201,224.739624 
	C362.909149,224.510391 363.143646,224.218872 363.646362,223.821655 
	C363.696960,224.036423 363.479340,224.356873 362.968201,224.739624 
z"/>
<path fill="#FFDDBF" opacity="1.000000" stroke="none" 
	d="
M367.960999,220.738342 
	C367.926270,220.511948 368.172089,220.255630 368.689392,219.944977 
	C368.721130,220.163239 368.481323,220.435837 367.960999,220.738342 
z"/>
</svg>