<?xml version="1.0" encoding="UTF-8"?>
<svg version="1.1" xmlns="http://www.w3.org/2000/svg" width="240" height="240">
<path d="M0 0 C79.2 0 158.4 0 240 0 C240 79.2 240 158.4 240 240 C160.8 240 81.6 240 0 240 C0 160.8 0 81.6 0 0 Z " fill="#FEFEFE" transform="translate(0,0)"/>
<path d="M0 0 C0.87107895 -0.00960754 1.7421579 -0.01921509 2.63963318 -0.02911377 C3.58234573 -0.03336365 4.52505829 -0.03761353 5.49633789 -0.04199219 C6.94635948 -0.0505423 6.94635948 -0.0505423 8.42567444 -0.05926514 C10.47257388 -0.06872054 12.51948859 -0.07525126 14.56640625 -0.07910156 C17.70282402 -0.0888171 20.83858936 -0.11983952 23.97485352 -0.15136719 C25.96117774 -0.15789611 27.94750666 -0.16314702 29.93383789 -0.16699219 C31.34487038 -0.18551239 31.34487038 -0.18551239 32.78440857 -0.20440674 C33.65863968 -0.20140564 34.53287079 -0.19840454 35.43359375 -0.1953125 C36.20255478 -0.19895813 36.97151581 -0.20260376 37.76377869 -0.20635986 C40.36766388 0.2678937 41.23645558 1.03261798 42.78149414 3.16113281 C43.07997408 6.20975806 43.20171259 9.04973376 43.17993164 12.09863281 C43.18280182 12.97511475 43.185672 13.85159668 43.18862915 14.75463867 C43.19067012 16.60726569 43.18513792 18.45991424 43.17260742 20.3125 C43.15655398 23.1505546 43.17245469 25.98718508 43.19165039 28.82519531 C43.18966796 30.62467763 43.1858243 32.42415905 43.17993164 34.22363281 C43.18600433 35.07368896 43.19207703 35.92374512 43.19833374 36.79956055 C43.12791363 42.68935135 43.12791363 42.68935135 41.51374817 44.88764954 C39.38724033 46.45097231 38.29674954 46.52588902 35.67724609 46.50170898 C34.44630974 46.50136909 34.44630974 46.50136909 33.19050598 46.50102234 C32.30916489 46.48553848 31.42782379 46.47005463 30.51977539 46.45410156 C29.16108589 46.4477343 29.16108589 46.4477343 27.77494812 46.4412384 C24.88099481 46.42444129 21.98773708 46.38678731 19.09399414 46.34863281 C17.13241565 46.3335873 15.17082626 46.31989867 13.20922852 46.30761719 C8.39971558 46.27453439 3.59072281 46.22274503 -1.21850586 46.16113281 C-1.20279541 47.38743408 -1.18708496 48.61373535 -1.17089844 49.87719727 C-1.11663975 54.42254073 -1.08217057 58.96785551 -1.05371094 63.51342773 C-1.03861504 65.48157564 -1.01813638 67.44968987 -0.9921875 69.41772461 C-0.95583937 72.24503893 -0.93878772 75.07190891 -0.92553711 77.89941406 C-0.91005325 78.78075516 -0.8945694 79.66209625 -0.87861633 80.57014465 C-0.87838974 81.39076889 -0.87816315 82.21139313 -0.87792969 83.05688477 C-0.86793694 84.13943291 -0.86793694 84.13943291 -0.85774231 85.24385071 C-1.32528694 87.72862212 -2.28406117 88.58581777 -4.21850586 90.16113281 C-7.4063399 91.75504983 -10.8637587 91.36650988 -14.36694336 91.39941406 C-15.17588043 91.40748581 -15.9848175 91.41555756 -16.81826782 91.4238739 C-18.53141131 91.43771271 -20.24458234 91.44843578 -21.95776367 91.45629883 C-24.5764591 91.4735207 -27.19389479 91.5174076 -29.81225586 91.56152344 C-31.47630907 91.5716497 -33.14037302 91.58016602 -34.80444336 91.58691406 C-35.58685394 91.60442215 -36.36926453 91.62193024 -37.17538452 91.63996887 C-40.63691084 91.62617216 -42.80886208 91.43903933 -45.70629883 89.47338867 C-47.52256346 86.69621039 -47.75448044 85.04227681 -47.82788086 81.73925781 C-47.86010742 80.71445313 -47.89233398 79.68964844 -47.92553711 78.63378906 C-47.9397168 77.5703125 -47.95389648 76.50683594 -47.96850586 75.41113281 C-47.9981543 74.3321875 -48.02780273 73.25324219 -48.05834961 72.14160156 C-48.12897522 69.48137037 -48.18170782 66.82201179 -48.21850586 64.16113281 C-56.96045301 76.07857358 -63.08295908 85.66168833 -61.21850586 101.16113281 C-59.658095 106.09269869 -56.5562712 109.42645466 -52.21850586 112.16113281 C-37.6083205 119.57566508 -21.08686228 118.94195037 -5.21850586 117.16113281 C-5.08702148 116.38382812 -4.95553711 115.60652344 -4.82006836 114.80566406 C-4.04126244 111.38195233 -3.07608585 110.1915186 -0.21850586 108.16113281 C3.8627535 107.56749509 6.02231749 107.7485368 9.65649414 109.72363281 C12.44754722 112.92513487 12.78149414 114.9421901 12.78149414 119.16113281 C11.1931048 122.73500884 10.06515056 123.97202853 6.78149414 126.16113281 C3.84399414 126.47363281 3.84399414 126.47363281 0.78149414 126.16113281 C0.18981445 125.65324219 -0.40186523 125.14535156 -1.01147461 124.62207031 C-4.09057553 122.58386899 -5.95261823 123.0686352 -9.59350586 123.47363281 C-10.93415403 123.59265917 -12.27535535 123.70555802 -13.61694336 123.81347656 C-14.34880859 123.8726123 -15.08067383 123.93174805 -15.8347168 123.99267578 C-32.55022473 125.17392327 -48.28884366 125.15081068 -62.41381836 114.83691406 C-67.34958437 110.25370276 -70.00143851 104.93204707 -70.38647461 98.24316406 C-70.39291992 97.16421875 -70.39936523 96.08527344 -70.40600586 94.97363281 C-70.42018555 93.90757812 -70.43436523 92.84152344 -70.44897461 91.74316406 C-69.91637654 83.46532621 -67.38419265 76.57958126 -63.78100586 69.16113281 C-63.12382568 67.79734497 -63.12382568 67.79734497 -62.45336914 66.40600586 C-56.19323348 53.71842826 -48.49097376 41.86156078 -39.21850586 31.16113281 C-38.51209961 30.34515625 -37.80569336 29.52917969 -37.07788086 28.68847656 C-34.82769641 26.14325045 -32.53580471 23.64533929 -30.21850586 21.16113281 C-29.45924805 20.33613281 -28.69999023 19.51113281 -27.91772461 18.66113281 C-10.18863456 0.09056386 -10.18863456 0.09056386 0 0 Z " fill="#E56827" transform="translate(144.218505859375,83.8388671875)"/>
<path d="M0 0 C1.16090149 0.00022659 2.32180298 0.00045319 3.5178833 0.00068665 C5.38993439 0.02391243 5.38993439 0.02391243 7.29980469 0.04760742 C8.5815155 0.05185226 9.86322632 0.05609711 11.18377686 0.06047058 C14.58367604 0.07189969 17.98318792 0.10134951 21.38293457 0.13458252 C24.85517132 0.16532554 28.32747093 0.17898491 31.79980469 0.1940918 C38.60725498 0.22622159 45.41444872 0.27739414 52.22167969 0.34057617 C45.91279315 9.86850825 45.91279315 9.86850825 43.03027344 13.77807617 C42.48395264 14.52009277 41.93763184 15.26210937 41.37475586 16.02661133 C40.80861572 16.79021973 40.24247559 17.55382812 39.65917969 18.34057617 C39.06145752 19.14930176 38.46373535 19.95802734 37.84790039 20.79125977 C20.88438579 43.67787007 20.88438579 43.67787007 18.22167969 46.34057617 C14.10364325 46.62164174 9.97316518 46.57239782 5.84667969 46.59057617 C4.68394531 46.61120117 3.52121094 46.63182617 2.32324219 46.65307617 C0.65261719 46.66081055 0.65261719 46.66081055 -1.05175781 46.66870117 C-2.0770459 46.67804688 -3.10233398 46.68739258 -4.15869141 46.69702148 C-7.23534441 46.27839023 -7.89209337 45.73107799 -9.77832031 43.34057617 C-10.08896051 40.29236057 -10.22244616 37.45279701 -10.21191406 34.40307617 C-10.21977684 33.08835327 -10.21977684 33.08835327 -10.22779846 31.74707031 C-10.23422025 29.89446065 -10.23287962 28.04181021 -10.22436523 26.18920898 C-10.2158513 23.35090776 -10.24461942 20.51461616 -10.27636719 17.67651367 C-10.27797916 15.87703511 -10.27740175 14.07755298 -10.27441406 12.27807617 C-10.28564804 11.42802002 -10.29688202 10.57796387 -10.30845642 9.70214844 C-10.23864697 3.81642102 -10.23864697 3.81642102 -8.10810852 1.61405945 C-5.20668691 0.02811619 -3.29994388 -0.02152137 0 0 Z " fill="#01509C" transform="translate(62.7783203125,83.659423828125)"/>
<path d="M0 0 C5.08982945 4.48992322 8.57927982 9.17927372 9.3359375 16.05078125 C9.43458637 24.2879623 8.83834686 29.80362947 3.19921875 35.96875 C-2.13734288 41.02553073 -7.03390892 42.95514557 -14.375 43.375 C-20.49232919 43.18773482 -25.51406452 41.26812018 -30.05078125 37.12890625 C-36.12086021 30.48072453 -37.48054233 25.18811814 -37.30859375 16.2265625 C-36.70937586 9.96132231 -34.29126968 5.9481878 -29.75 1.6875 C-20.51583411 -5.53838248 -10.07326828 -5.88016799 0 0 Z " fill="#02519C" transform="translate(134,34)"/>
<path d="M0 0 C2.875 1.5625 2.875 1.5625 5 4 C6.14888518 7.94929279 6.43129396 10.02958859 4.75 13.8125 C3 16 3 16 0 18 C-2.9375 18.3125 -2.9375 18.3125 -6 18 C-6.59167969 17.49210937 -7.18335938 16.98421875 -7.79296875 16.4609375 C-10.87206967 14.42273618 -12.73411237 14.90750239 -16.375 15.3125 C-23.02360563 15.92127583 -29.63622606 16.1884441 -36.3125 16.25 C-37.67157471 16.28154175 -37.67157471 16.28154175 -39.05810547 16.3137207 C-45.49952967 16.3483394 -50.94217928 15.16484848 -57 13 C-57 12.34 -57 11.68 -57 11 C-56.2575 11.04125 -55.515 11.0825 -54.75 11.125 C-52.04978841 11.20914613 -52.04978841 11.20914613 -50.16796875 9.96875 C-47.36736398 8.71730859 -45.59392781 9.00481207 -42.5625 9.375 C-32.29914883 10.42380961 -22.24267795 10.14947889 -12 9 C-11.86851562 8.22269531 -11.73703125 7.44539062 -11.6015625 6.64453125 C-10.14220748 0.22905498 -6.08298283 -0.85375198 0 0 Z " fill="#DB6825" transform="translate(151,192)"/>
<path d="M0 0 C2.875 1.5625 2.875 1.5625 5 4 C6.14009771 7.91908586 6.40888632 10.03158504 4.8125 13.8125 C2.97707828 16.02766415 1.66404576 16.98949988 -1 18 C-1 17.01 -1 16.02 -1 15 C-2.32 15 -3.64 15 -5 15 C-7.13457576 12.15389899 -8.35334574 9.491933 -9 6 C-9.2475 6.639375 -9.495 7.27875 -9.75 7.9375 C-11 10 -11 10 -13 10.875 C-13.99 10.936875 -13.99 10.936875 -15 11 C-15.66 10.34 -16.32 9.68 -17 9 C-15.35 9 -13.7 9 -12 9 C-11.9175 8.2575 -11.835 7.515 -11.75 6.75 C-10.00562632 0.35396318 -6.28156369 -0.88162297 0 0 Z " fill="#E26D22" transform="translate(151,192)"/>
<path d="M0 0 C1.03330948 0.00424484 2.06661896 0.00848969 3.13124084 0.01286316 C6.41198447 0.02957481 9.69210017 0.06721364 12.97265625 0.10546875 C15.20506922 0.12052527 17.43749187 0.13421198 19.66992188 0.14648438 C25.12521206 0.17945365 30.58013927 0.22957788 36.03515625 0.29296875 C35.70515625 1.28296875 35.37515625 2.27296875 35.03515625 3.29296875 C34.54015625 2.79796875 34.54015625 2.79796875 34.03515625 2.29296875 C32.70228544 2.17440409 31.36332898 2.12296978 30.02539062 2.10009766 C29.17360229 2.08403473 28.32181396 2.0679718 27.44421387 2.05142212 C23.51457425 2.00690847 19.58510692 1.96584168 15.65527344 1.94287109 C13.58940306 1.92638293 11.52358803 1.89918845 9.45800781 1.86083984 C6.47300736 1.80570411 3.48934938 1.78413389 0.50390625 1.76953125 C-0.40895142 1.74686188 -1.32180908 1.7241925 -2.2623291 1.70083618 C-8.98471846 1.72268217 -13.40673438 3.55905775 -18.96484375 7.29296875 C-18.64466858 5.40119934 -18.64466858 5.40119934 -17.96484375 3.29296875 C-12.13670502 -0.21479434 -6.66249045 -0.10399942 0 0 Z " fill="#FEF1DE" transform="translate(149.96484375,82.70703125)"/>
<path d="M0 0 C1.77149666 0.0001133 1.77149666 0.0001133 3.57878113 0.00022888 C4.85385025 0.00539017 6.12891937 0.01055145 7.44262695 0.01586914 C9.40060966 0.01799156 9.40060966 0.01799156 11.39814758 0.02015686 C14.86530477 0.02397159 18.33241994 0.03379295 21.79956055 0.04486084 C25.33878003 0.05509741 28.87800631 0.05965929 32.41723633 0.06469727 C39.35931086 0.07541616 46.30135751 0.09248005 53.2434082 0.11352539 C53.2434082 0.44352539 53.2434082 0.77352539 53.2434082 1.11352539 C52.16678925 1.12565567 52.16678925 1.12565567 51.06842041 1.13803101 C44.30009309 1.2160133 37.53194303 1.30331503 30.76387405 1.40105247 C27.28443631 1.45097103 23.80502828 1.49730121 20.32543945 1.53540039 C16.32394373 1.57937202 12.32281404 1.6390051 8.3215332 1.69946289 C7.07349915 1.7110141 5.82546509 1.72256531 4.53961182 1.73446655 C2.79825958 1.76427109 2.79825958 1.76427109 1.02172852 1.79467773 C-0.51049347 1.81466324 -0.51049347 1.81466324 -2.07366943 1.83505249 C-4.77576258 2.11551522 -6.44350778 2.73024929 -8.7565918 4.11352539 C-8.7565918 3.12352539 -8.7565918 2.13352539 -8.7565918 1.11352539 C-5.57819489 0.05405975 -3.33813832 -0.00711757 0 0 Z " fill="#E8F8FC" transform="translate(61.756591796875,82.886474609375)"/>
<path d="M0 0 C1.07765625 0.11085937 2.1553125 0.22171875 3.265625 0.3359375 C4.08546875 0.43132812 4.9053125 0.52671875 5.75 0.625 C5.75 0.955 5.75 1.285 5.75 1.625 C2.78 1.625 -0.19 1.625 -3.25 1.625 C-3.25 2.615 -3.25 3.605 -3.25 4.625 C-2.59 4.625 -1.93 4.625 -1.25 4.625 C-1.25 5.285 -1.25 5.945 -1.25 6.625 C-6.11896303 6.02880045 -10.57790951 5.05523178 -15.25 3.625 C-15.25 2.965 -15.25 2.305 -15.25 1.625 C-14.5075 1.66625 -13.765 1.7075 -13 1.75 C-10.30437806 1.83930213 -10.30437806 1.83930213 -8.46875 0.59375 C-5.45824251 -0.72069693 -3.24292011 -0.35249132 0 0 Z " fill="#D96F31" transform="translate(109.25,201.375)"/>
<path d="M0 0 C0.33 0 0.66 0 1 0 C0.26818632 8.78176412 0.26818632 8.78176412 -3 12 C-9.34562141 13.26513959 -14.41055343 12.06088741 -20 9 C-22.51599015 9.33652369 -22.51599015 9.33652369 -25 10 C-28.3125 9.5625 -28.3125 9.5625 -31 9 C-31 8.67 -31 8.34 -31 8 C-28.58388629 7.75057533 -26.16940879 7.52492499 -23.75 7.3125 C-23.06808594 7.23966797 -22.38617188 7.16683594 -21.68359375 7.09179688 C-18.45124382 6.82504955 -16.48897628 6.68981606 -13.703125 8.45703125 C-13.14109375 8.96621094 -12.5790625 9.47539062 -12 10 C-8.73244716 10.4084441 -6.73528013 10.34721562 -3.75 8.9375 C-1.31420383 6.24072567 -0.79149292 3.4957604 0 0 Z " fill="#FDE7CD" transform="translate(157,199)"/>
<path d="M0 0 C2.5625 0.1875 2.5625 0.1875 4.5625 2.1875 C4.00694444 6.74305556 4.00694444 6.74305556 2.5625 8.1875 C0.0625 8.3125 0.0625 8.3125 -2.4375 8.1875 C-3.4375 7.1875 -3.4375 7.1875 -3.5625 4.1875 C-3.39891479 0.26145498 -3.39891479 0.26145498 0 0 Z " fill="#FEEDD7" transform="translate(147.4375,196.8125)"/>
<path d="M0 0 C0.99 0.99 1.98 1.98 3 3 C0.03 2.67 -2.94 2.34 -6 2 C-4.35920758 3.64079242 -2.22231235 3.60112342 0 4 C-0.33 4.66 -0.66 5.32 -1 6 C-2.65 6 -4.3 6 -6 6 C-6.66 7.32 -7.32 8.64 -8 10 C-8.33 8.68 -8.66 7.36 -9 6 C-9.2475 6.639375 -9.495 7.27875 -9.75 7.9375 C-11 10 -11 10 -13 10.875 C-13.99 10.936875 -13.99 10.936875 -15 11 C-15.66 10.34 -16.32 9.68 -17 9 C-15.35 9 -13.7 9 -12 9 C-11.9175 8.2575 -11.835 7.515 -11.75 6.75 C-9.99911062 0.33007226 -6.29481054 -0.8011577 0 0 Z " fill="#D6763B" transform="translate(151,192)"/>
<path d="M0 0 C11.52164009 -0.3690205 11.52164009 -0.3690205 17 2 C17 2.66 17 3.32 17 4 C14.54159395 4.02691685 12.08348118 4.04679802 9.625 4.0625 C8.92632812 4.07087891 8.22765625 4.07925781 7.5078125 4.08789062 C2.2265625 4.11328125 2.2265625 4.11328125 0 3 C0 2.01 0 1.02 0 0 Z " fill="#EA6820" transform="translate(106,203)"/>
<path d="M0 0 C0.33 0 0.66 0 1 0 C1.01981934 0.7113208 1.03963867 1.4226416 1.06005859 2.15551758 C1.15524867 5.37488816 1.26495229 8.5936045 1.375 11.8125 C1.42140625 13.49182617 1.42140625 13.49182617 1.46875 15.20507812 C1.50742188 16.27822266 1.54609375 17.35136719 1.5859375 18.45703125 C1.6173584 19.44678955 1.6487793 20.43654785 1.68115234 21.45629883 C1.83773433 24.24075094 1.83773433 24.24075094 4 27 C0.125 25.125 0.125 25.125 -1 24 C-1.40967226 20.36864143 -1.51653905 16.71194641 -1.6875 13.0625 C-1.74744141 12.03447266 -1.80738281 11.00644531 -1.86914062 9.94726562 C-1.91619141 8.96564453 -1.96324219 7.98402344 -2.01171875 6.97265625 C-2.05772217 6.06781494 -2.10372559 5.16297363 -2.15112305 4.23071289 C-2 2 -2 2 0 0 Z " fill="#FEE9C7" transform="translate(96,147)"/>
<path d="M0 0 C0.66 0.33 1.32 0.66 2 1 C1.63076923 8.38461538 1.63076923 8.38461538 -1.5625 11.5 C-2.366875 11.995 -3.17125 12.49 -4 13 C-4.33 12.01 -4.66 11.02 -5 10 C-6.32 10 -7.64 10 -9 10 C-9 9.34 -9 8.68 -9 8 C-7.02 7.34 -5.04 6.68 -3 6 C-3 6.66 -3 7.32 -3 8 C-2.01 8 -1.02 8 0 8 C0 5.36 0 2.72 0 0 Z " fill="#D77437" transform="translate(155,197)"/>
<path d="M0 0 C0.33 0 0.66 0 1 0 C1.04241723 2.33294775 1.04092937 4.66702567 1 7 C0.67 7.33 0.34 7.66 0 8 C-0.53460773 14.12742711 -0.68907979 18.86736725 3 24 C2.67 24.99 2.34 25.98 2 27 C-2.94720263 20.50679655 -2.7849082 13.94947725 -2 6 C-1.39780318 3.97965265 -0.74975572 1.97035804 0 0 Z " fill="#FDEAD4" transform="translate(84,165)"/>
<path d="M0 0 C0.66 0 1.32 0 2 0 C2 0.66 2 1.32 2 2 C3.32 2 4.64 2 6 2 C6 2.99 6 3.98 6 5 C3.6568787 4.74438677 1.32156597 4.40729228 -1 4 C-1.33 3.34 -1.66 2.68 -2 2 C-1.34 2 -0.68 2 0 2 C0 1.34 0 0.68 0 0 Z " fill="#DA6926" transform="translate(144,205)"/>
<path d="M0 0 C0.33 0.66 0.66 1.32 1 2 C1.99 2.33 2.98 2.66 4 3 C1.03 5.475 1.03 5.475 -2 8 C-2.33 6.68 -2.66 5.36 -3 4 C-2.34 4 -1.68 4 -1 4 C-0.67 2.68 -0.34 1.36 0 0 Z " fill="#FEF1DE" transform="translate(115,98)"/>
<path d="M0 0 C0.66 0.33 1.32 0.66 2 1 C-3.14285714 6.57142857 -3.14285714 6.57142857 -7 7 C-2.25 1.125 -2.25 1.125 0 0 Z " fill="#0F4F8E" transform="translate(108,33)"/>
<path d="M0 0 C0.66 0.66 1.32 1.32 2 2 C1.01 2.33 0.02 2.66 -1 3 C-2.20882096 5.00016466 -2.20882096 5.00016466 -3 7 C-3.99 7 -4.98 7 -6 7 C-4.02 4.69 -2.04 2.38 0 0 Z " fill="#D86E31" transform="translate(112,107)"/>
<path d="M0 0 C1.32 0.33 2.64 0.66 4 1 C3.67 1.99 3.34 2.98 3 4 C1.35 4 -0.3 4 -2 4 C-1.34 2.68 -0.68 1.36 0 0 Z " fill="#FEFDFC" transform="translate(147,199)"/>
</svg>
